SplineFontDB: 1.0
FontName: DejaVuSansMono-Bold
FullName: DejaVu Sans Mono Bold
FamilyName: DejaVu Sans Mono
Weight: Bold
Copyright: Copyright (c) 2003 by Bitstream, Inc. All Rights Reserved.\nDejaVu changes are in public domain\n
Version: 2.0
ItalicAngle: 0
UnderlinePosition: -221
UnderlineWidth: 246
Ascent: 1556
Descent: 492
Order2: 1
NeedsXUIDChange: 1
FSType: 0
PfmFamily: 17
TTFWeight: 700
TTFWidth: 5
LineGap: 0
VLineGap: 0
Panose: 2 11 7 9 3 6 4 2 2 4
OS2TypoAscent: 1556
OS2TypoAOffset: 0
OS2TypoDescent: -492
OS2TypoDOffset: 0
OS2TypoLinegap: 410
OS2WinAscent: 1901
OS2WinAOffset: 0
OS2WinDescent: 483
OS2WinDOffset: 0
HheadAscent: 1901
HheadAOffset: 0
HheadDescent: -483
HheadDOffset: 0
OS2Vendor: 'PfEd'
ScriptLang: 2
 1 DFLT 1 dflt 
 1 latn 1 dflt 
TtfTable: prep 1272
\,q1GFM@_V]=S0V]*#V?"1S+/[^AU/[^uXL7g$+R"1+9qZ8)NeA-9'%"0\j@"g;\DXqLo='*G<7
"0/=0"fhD$W=8s.Vi1eXrWB+7"K/,""fI:]VgnoIV'ZAC=TbNd"JmFIV#CIk1'=6c"/2AX"eknt
Tt(-M5lUt[T0WXR7g#AL".l&="eKK3SMC;;rWAYd".K&gRJm;U&d+IH"-sc+PPtZIrWA;^"-EKa
O(Ak+O*q+jN>)PV('BPT&-\%-",mcnMe4"6M_YBl$j2?B]*4&j",M_<"c0bmLk#V`L*["Y>m#jI
"GS3)KnKs?Kc'uG%g.HM"+pLSJRoArJMI=XIhN!9A-7;p"+HO<I:NG-;ZhAY*X-mG"+"Mi"aVp+
Go-X.Af_,#A-7&T"*XYGFE7lpEt&4lE@qE8rW@-m")qin"`SklD\rRoD7]shrW@"R>m5)W")WPk
ChY1!Cg@-Z5Qkk<");Nr"_tXOBgD\E"))9f"__EKB4`1gB4M*VAIo#W*Wosb"(_B5A,ZR>rW?SW
"(;*1?=X.C>8.6GrW?@="'RG^=Y16i=V_*A('@V<&d;A9"'./Z<W3)";[Wb.&-Gi="&_u3"]CWg
;,@f-;&071&-G`-"&;R$"\t?c9k4?"rW>gm"%l,u"\P'_8J;1sq?'7a"%I\@777dm7=>8+'*CT=
"$mD!5;E=)&Hb0Y%L##p"$AXQ"[!7s3su-O3>Vi[Q30-,$O&O,"$(l73"#gJ5Qj#((^2iW"#__D
"Z@2"2)H-R2+n$.1DC!L(]uQ."#;SJ"YsTj0eF"A0c1!H0,Qqi"Y`=H0,OdD/J84>*WmuF&Hsa!
""h"a5X5VY/1V57/.ht8\,lXq#m;b.%L"?n""Uk^^d&2/.L$4`.LlP1\,h+F<s0sF""4Z^-VFOg
,T$\3,Qf><(^23Y"!djZ"XFoe,8:5(*#&Q#1'8[B1^,$d"!@RV"X#W(*ubmt*uY5&)\`GsrW=/\
'EoL4!ur!W)]B@n)\`An\,q1G#m;.a&Hs'd!ueZN5X5VY)$g`V)%crg\,lXq<s0?S!uFT4('"sN
(7#%;2ZjaQ!tt\V"V^_7&i'P$&2FD$q?%9/&d8h%!tPlD"V6"`%KI+F%TifB#S.(J*WlfY%g<@_
!t,VA$31\B#R:bA#S."C\,jB1#m:J;$3^YC!sc=:J3XDD"pG;:"ptG:\,ek%"9f)6"h4R55T'\-

StartChar: .notdef
Encoding: 0 -1 0
AltUni: 0
Width: 1233
Flags: W
Fore
104 -362 m 1,0,-1
 104 1444 l 1,1,-1
 1128 1444 l 1,2,-1
 1128 -362 l 1,3,-1
 104 -362 l 1,0,-1
219 -248 m 1,4,-1
 1014 -248 l 1,5,-1
 1014 1329 l 1,6,-1
 219 1329 l 1,7,-1
 219 -248 l 1,4,-1
EndSplineSet
EndChar
StartChar: exclam
Encoding: 33 33 33
Width: 1233
Flags: W
Fore
483 283 m 1,0,-1
 750 283 l 1,1,-1
 750 0 l 1,2,-1
 483 0 l 1,3,-1
 483 283 l 1,0,-1
483 1493 m 1,4,-1
 750 1493 l 1,5,-1
 750 838 l 1,6,-1
 717 481 l 1,7,-1
 518 481 l 1,8,-1
 483 838 l 1,9,-1
 483 1493 l 1,4,-1
EndSplineSet
EndChar
StartChar: quotedbl
Encoding: 34 34 34
Width: 1233
Flags: W
Fore
999 1493 m 1,0,-1
 999 938 l 1,1,-1
 743 938 l 1,2,-1
 743 1493 l 1,3,-1
 999 1493 l 1,0,-1
487 1493 m 1,4,-1
 487 938 l 1,5,-1
 231 938 l 1,6,-1
 231 1493 l 1,7,-1
 487 1493 l 1,4,-1
EndSplineSet
EndChar
StartChar: numbersign
Encoding: 35 35 35
Width: 1233
Flags: W
Fore
707 1470 m 1,0,-1
 612 1096 l 1,1,-1
 815 1096 l 1,2,-1
 909 1470 l 1,3,-1
 1133 1470 l 1,4,-1
 1036 1096 l 1,5,-1
 1229 1096 l 1,6,-1
 1229 881 l 1,7,-1
 983 881 l 1,8,-1
 909 588 l 1,9,-1
 1114 588 l 1,10,-1
 1114 373 l 1,11,-1
 856 373 l 1,12,-1
 762 0 l 1,13,-1
 541 0 l 1,14,-1
 635 373 l 1,15,-1
 430 373 l 1,16,-1
 336 0 l 1,17,-1
 115 0 l 1,18,-1
 209 373 l 1,19,-1
 2 373 l 1,20,-1
 2 588 l 1,21,-1
 262 588 l 1,22,-1
 336 881 l 1,23,-1
 117 881 l 1,24,-1
 117 1096 l 1,25,-1
 391 1096 l 1,26,-1
 485 1470 l 1,27,-1
 707 1470 l 1,0,-1
762 881 m 1,28,-1
 557 881 l 1,29,-1
 483 588 l 1,30,-1
 688 588 l 1,31,-1
 762 881 l 1,28,-1
EndSplineSet
EndChar
StartChar: dollar
Encoding: 36 36 36
Width: 1233
Flags: W
Fore
694 528 m 1,0,-1
 694 226 l 1,1,2
 757 235 757 235 792 274.5 c 128,-1,3
 827 314 827 314 827 375 c 0,4,5
 827 437 827 437 792.5 476.5 c 128,-1,6
 758 516 758 516 694 528 c 1,0,-1
553 817 m 1,7,-1
 553 1100 l 1,8,9
 491 1092 491 1092 459.5 1058.5 c 128,-1,10
 428 1025 428 1025 428 967 c 0,11,12
 428 910 428 910 459.5 872 c 128,-1,13
 491 834 491 834 553 817 c 1,7,-1
694 -301 m 1,14,-1
 553 -301 l 1,15,-1
 552 0 l 1,16,17
 465 3 465 3 370 26 c 128,-1,18
 275 49 275 49 172 92 c 1,19,-1
 172 354 l 1,20,21
 275 293 275 293 371.5 260 c 128,-1,22
 468 227 468 227 553 226 c 1,23,-1
 553 555 l 1,24,25
 356 594 356 594 260 689.5 c 128,-1,26
 164 785 164 785 164 942 c 0,27,28
 164 1109 164 1109 266 1208 c 128,-1,29
 368 1307 368 1307 553 1319 c 1,30,-1
 553 1556 l 1,31,-1
 694 1556 l 1,32,-1
 695 1319 l 1,33,34
 766 1315 766 1315 842.5 1301 c 128,-1,35
 919 1287 919 1287 999 1262 c 1,36,-1
 999 1006 l 1,37,38
 937 1046 937 1046 861 1070 c 128,-1,39
 785 1094 785 1094 694 1100 c 1,40,-1
 694 793 l 1,41,42
 891 762 891 762 991.5 658.5 c 128,-1,43
 1092 555 1092 555 1092 383 c 0,44,45
 1092 219 1092 219 983.5 114 c 128,-1,46
 875 9 875 9 695 0 c 1,47,-1
 694 -301 l 1,14,-1
EndSplineSet
EndChar
StartChar: percent
Encoding: 37 37 37
Width: 1233
Flags: W
Fore
33 1112 m 0,0,1
 33 1246 33 1246 126 1339 c 128,-1,2
 219 1432 219 1432 352 1432 c 0,3,4
 485 1432 485 1432 578.5 1338.5 c 128,-1,5
 672 1245 672 1245 672 1112 c 0,6,7
 672 979 672 979 578.5 886 c 128,-1,8
 485 793 485 793 352 793 c 0,9,10
 219 793 219 793 126 885.5 c 128,-1,11
 33 978 33 978 33 1112 c 0,0,1
352 1249 m 0,12,13
 295 1249 295 1249 255 1209.5 c 128,-1,14
 215 1170 215 1170 215 1112 c 0,15,16
 215 1054 215 1054 255 1014.5 c 128,-1,17
 295 975 295 975 352 975 c 0,18,19
 410 975 410 975 449.5 1014.5 c 128,-1,20
 489 1054 489 1054 489 1112 c 0,21,22
 489 1169 489 1169 449 1209 c 128,-1,23
 409 1249 409 1249 352 1249 c 0,12,13
86 561 m 1,24,-1
 1128 979 l 1,25,-1
 1169 883 l 1,26,-1
 121 465 l 1,27,-1
 86 561 l 1,24,-1
580 319 m 0,28,29
 580 453 580 453 672.5 546 c 128,-1,30
 765 639 765 639 899 639 c 0,31,32
 1031 639 1031 639 1125 545.5 c 128,-1,33
 1219 452 1219 452 1219 319 c 0,34,35
 1219 187 1219 187 1125 93.5 c 128,-1,36
 1031 0 1031 0 899 0 c 0,37,38
 765 0 765 0 672.5 92.5 c 128,-1,39
 580 185 580 185 580 319 c 0,28,29
897 457 m 0,40,41
 841 457 841 457 801.5 417 c 128,-1,42
 762 377 762 377 762 319 c 0,43,44
 762 261 762 261 801 221.5 c 128,-1,45
 840 182 840 182 897 182 c 0,46,47
 955 182 955 182 995.5 222 c 128,-1,48
 1036 262 1036 262 1036 319 c 0,49,50
 1036 376 1036 376 995 416.5 c 128,-1,51
 954 457 954 457 897 457 c 0,40,41
EndSplineSet
EndChar
StartChar: ampersand
Encoding: 38 38 38
Width: 1233
Flags: W
Fore
870 72 m 1,0,1
 795 22 795 22 710.5 -3.5 c 128,-1,2
 626 -29 626 -29 539 -29 c 0,3,4
 315 -29 315 -29 176 102 c 128,-1,5
 37 233 37 233 37 442 c 0,6,7
 37 587 37 587 107.5 706 c 128,-1,8
 178 825 178 825 317 913 c 1,9,10
 267 991 267 991 243 1057.5 c 128,-1,11
 219 1124 219 1124 219 1184 c 0,12,13
 219 1346 219 1346 328 1433 c 128,-1,14
 437 1520 437 1520 643 1520 c 0,15,16
 716 1520 716 1520 786 1509 c 128,-1,17
 856 1498 856 1498 924 1477 c 1,18,-1
 924 1221 l 1,19,20
 860 1257 860 1257 794.5 1275.5 c 128,-1,21
 729 1294 729 1294 664 1294 c 0,22,23
 584 1294 584 1294 543 1266 c 128,-1,24
 502 1238 502 1238 502 1184 c 0,25,26
 502 1148 502 1148 532.5 1085 c 128,-1,27
 563 1022 563 1022 631 920 c 1,28,-1
 944 440 l 1,29,30
 965 478 965 478 976 527 c 128,-1,31
 987 576 987 576 987 633 c 0,32,33
 987 663 987 663 985 691.5 c 128,-1,34
 983 720 983 720 979 745 c 1,35,-1
 1214 745 l 1,36,-1
 1214 694 l 2,37,38
 1214 549 1214 549 1180 440.5 c 128,-1,39
 1146 332 1146 332 1073 246 c 1,40,-1
 1235 0 l 1,41,-1
 918 0 l 1,42,-1
 870 72 l 1,0,1
440 731 m 1,43,44
 374 688 374 688 340.5 628.5 c 128,-1,45
 307 569 307 569 307 496 c 0,46,47
 307 374 307 374 385.5 290.5 c 128,-1,48
 464 207 464 207 578 207 c 0,49,50
 606 207 606 207 635.5 213.5 c 128,-1,51
 665 220 665 220 693 232 c 0,52,53
 695 233 695 233 701 236 c 0,54,55
 730 250 730 250 748 262 c 1,56,-1
 440 731 l 1,43,44
EndSplineSet
EndChar
StartChar: quotesingle
Encoding: 39 39 39
Width: 1233
Flags: W
Fore
743 1493 m 1,0,-1
 743 938 l 1,1,-1
 487 938 l 1,2,-1
 487 1493 l 1,3,-1
 743 1493 l 1,0,-1
EndSplineSet
EndChar
StartChar: parenleft
Encoding: 40 40 40
Width: 1233
Flags: W
Fore
924 1554 m 1,0,1
 792 1315 792 1315 728 1091 c 128,-1,2
 664 867 664 867 664 643 c 0,3,4
 664 421 664 421 728 195.5 c 128,-1,5
 792 -30 792 -30 924 -270 c 1,6,-1
 696 -270 l 1,7,8
 537 -39 537 -39 460 185.5 c 128,-1,9
 383 410 383 410 383 643 c 0,10,11
 383 875 383 875 460.5 1100.5 c 128,-1,12
 538 1326 538 1326 696 1554 c 1,13,-1
 924 1554 l 1,0,1
EndSplineSet
EndChar
StartChar: parenright
Encoding: 41 41 41
Width: 1233
Flags: W
Fore
309 1554 m 1,0,-1
 537 1554 l 1,1,2
 695 1326 695 1326 772.5 1100.5 c 128,-1,3
 850 875 850 875 850 643 c 0,4,5
 850 410 850 410 773 185.5 c 128,-1,6
 696 -39 696 -39 537 -270 c 1,7,-1
 309 -270 l 1,8,9
 441 -30 441 -30 505 195.5 c 128,-1,10
 569 421 569 421 569 643 c 0,11,12
 569 867 569 867 505 1091 c 128,-1,13
 441 1315 441 1315 309 1554 c 1,0,-1
EndSplineSet
EndChar
StartChar: asterisk
Encoding: 42 42 42
Width: 1233
Flags: W
Fore
1108 1217 m 1,0,-1
 778 1044 l 1,1,-1
 1108 870 l 1,2,-1
 1032 729 l 1,3,-1
 700 913 l 1,4,-1
 700 569 l 1,5,-1
 528 569 l 1,6,-1
 528 913 l 1,7,-1
 197 729 l 1,8,-1
 121 870 l 1,9,-1
 453 1044 l 1,10,-1
 121 1217 l 1,11,-1
 197 1358 l 1,12,-1
 528 1176 l 1,13,-1
 528 1520 l 1,14,-1
 700 1520 l 1,15,-1
 700 1176 l 1,16,-1
 1032 1358 l 1,17,-1
 1108 1217 l 1,0,-1
EndSplineSet
EndChar
StartChar: plus
Encoding: 43 43 43
Width: 1233
Flags: W
Fore
735 1192 m 1,0,-1
 735 762 l 1,1,-1
 1165 762 l 1,2,-1
 1165 524 l 1,3,-1
 735 524 l 1,4,-1
 735 92 l 1,5,-1
 498 92 l 1,6,-1
 498 524 l 1,7,-1
 66 524 l 1,8,-1
 66 762 l 1,9,-1
 498 762 l 1,10,-1
 498 1192 l 1,11,-1
 735 1192 l 1,0,-1
EndSplineSet
EndChar
StartChar: comma
Encoding: 44 44 44
Width: 1233
Flags: W
Fore
461 367 m 1,0,-1
 774 367 l 1,1,-1
 774 96 l 1,2,-1
 578 -287 l 1,3,-1
 362 -287 l 1,4,-1
 461 96 l 1,5,-1
 461 367 l 1,0,-1
EndSplineSet
EndChar
StartChar: hyphen
Encoding: 45 45 45
Width: 1233
Flags: W
Fore
301 735 m 1,0,-1
 932 735 l 1,1,-1
 932 444 l 1,2,-1
 301 444 l 1,3,-1
 301 735 l 1,0,-1
EndSplineSet
EndChar
StartChar: period
Encoding: 46 46 46
Width: 1233
Flags: W
Fore
449 367 m 1,0,-1
 782 367 l 1,1,-1
 782 0 l 1,2,-1
 449 0 l 1,3,-1
 449 367 l 1,0,-1
EndSplineSet
EndChar
StartChar: slash
Encoding: 47 47 47
Width: 1233
Flags: W
Fore
899 1493 m 1,0,-1
 1120 1493 l 1,1,-1
 334 -190 l 1,2,-1
 113 -190 l 1,3,-1
 899 1493 l 1,0,-1
EndSplineSet
EndChar
StartChar: zero
Encoding: 48 48 48
Width: 1233
Flags: W
Fore
492 745 m 0,0,1
 492 798 492 798 528 834 c 128,-1,2
 564 870 564 870 616 870 c 0,3,4
 669 870 669 870 705 834 c 128,-1,5
 741 798 741 798 741 745 c 0,6,7
 741 693 741 693 705 657 c 128,-1,8
 669 621 669 621 616 621 c 0,9,10
 564 621 564 621 528 656.5 c 128,-1,11
 492 692 492 692 492 745 c 0,0,1
616 1270 m 0,12,13
 514 1270 514 1270 467 1145 c 128,-1,14
 420 1020 420 1020 420 745 c 0,15,16
 420 471 420 471 467 346 c 128,-1,17
 514 221 514 221 616 221 c 0,18,19
 719 221 719 221 766 346 c 128,-1,20
 813 471 813 471 813 745 c 0,21,22
 813 1020 813 1020 766 1145 c 128,-1,23
 719 1270 719 1270 616 1270 c 0,12,13
123 745 m 0,24,25
 123 1133 123 1133 246 1326.5 c 128,-1,26
 369 1520 369 1520 616 1520 c 0,27,28
 864 1520 864 1520 987 1327 c 128,-1,29
 1110 1134 1110 1134 1110 745 c 0,30,31
 1110 357 1110 357 987 164 c 128,-1,32
 864 -29 864 -29 616 -29 c 0,33,34
 369 -29 369 -29 246 164.5 c 128,-1,35
 123 358 123 358 123 745 c 0,24,25
EndSplineSet
EndChar
StartChar: one
Encoding: 49 49 49
Width: 1233
Flags: W
Fore
188 260 m 1,0,-1
 518 260 l 1,1,-1
 518 1229 l 1,2,-1
 211 1153 l 1,3,-1
 211 1419 l 1,4,-1
 520 1493 l 1,5,-1
 805 1493 l 1,6,-1
 805 260 l 1,7,-1
 1135 260 l 1,8,-1
 1135 0 l 1,9,-1
 188 0 l 1,10,-1
 188 260 l 1,0,-1
EndSplineSet
EndChar
StartChar: two
Encoding: 50 50 50
Width: 1233
Flags: W
Fore
434 260 m 1,0,-1
 1063 260 l 1,1,-1
 1063 0 l 1,2,-1
 115 0 l 1,3,-1
 115 252 l 1,4,-1
 275 422 l 2,5,6
 560 725 560 725 621 795 c 0,7,8
 696 881 696 881 729 947.5 c 128,-1,9
 762 1014 762 1014 762 1079 c 0,10,11
 762 1179 762 1179 701.5 1233.5 c 128,-1,12
 641 1288 641 1288 530 1288 c 0,13,14
 451 1288 451 1288 352.5 1256.5 c 128,-1,15
 254 1225 254 1225 147 1165 c 1,16,-1
 147 1440 l 1,17,18
 254 1479 254 1479 356.5 1499.5 c 128,-1,19
 459 1520 459 1520 553 1520 c 0,20,21
 790 1520 790 1520 925.5 1409.5 c 128,-1,22
 1061 1299 1061 1299 1061 1108 c 0,23,24
 1061 1020 1061 1020 1031.5 943 c 128,-1,25
 1002 866 1002 866 930 772 c 0,26,27
 877 704 877 704 639 466 c 0,28,29
 510 337 510 337 434 260 c 1,0,-1
EndSplineSet
EndChar
StartChar: three
Encoding: 51 51 51
Width: 1233
Flags: W
Fore
549 668 m 2,0,-1
 391 668 l 1,1,-1
 391 928 l 1,2,-1
 549 928 l 2,3,4
 659 928 659 928 719.5 971.5 c 128,-1,5
 780 1015 780 1015 780 1094 c 0,6,7
 780 1177 780 1177 719.5 1223.5 c 128,-1,8
 659 1270 659 1270 549 1270 c 0,9,10
 465 1270 465 1270 369 1249 c 128,-1,11
 273 1228 273 1228 170 1188 c 1,12,-1
 170 1456 l 1,13,14
 273 1487 273 1487 373 1503.5 c 128,-1,15
 473 1520 473 1520 565 1520 c 0,16,17
 801 1520 801 1520 933 1417 c 128,-1,18
 1065 1314 1065 1314 1065 1133 c 0,19,20
 1065 1000 1065 1000 989 915.5 c 128,-1,21
 913 831 913 831 772 805 c 1,22,23
 932 777 932 777 1016 677.5 c 128,-1,24
 1100 578 1100 578 1100 416 c 0,25,26
 1100 199 1100 199 961 85 c 128,-1,27
 822 -29 822 -29 557 -29 c 0,28,29
 444 -29 444 -29 334.5 -10 c 128,-1,30
 225 9 225 9 125 45 c 1,31,-1
 125 319 l 1,32,33
 219 272 219 272 328 247.5 c 128,-1,34
 437 223 437 223 557 223 c 0,35,36
 677 223 677 223 747 278.5 c 128,-1,37
 817 334 817 334 817 428 c 0,38,39
 817 543 817 543 747 605.5 c 128,-1,40
 677 668 677 668 549 668 c 2,0,-1
EndSplineSet
EndChar
StartChar: four
Encoding: 52 52 52
Width: 1233
Flags: W
Fore
694 1165 m 1,0,-1
 317 575 l 1,1,-1
 694 575 l 1,2,-1
 694 1165 l 1,0,-1
668 1493 m 1,3,-1
 977 1493 l 1,4,-1
 977 575 l 1,5,-1
 1141 575 l 1,6,-1
 1141 322 l 1,7,-1
 977 322 l 1,8,-1
 977 0 l 1,9,-1
 694 0 l 1,10,-1
 694 322 l 1,11,-1
 102 322 l 1,12,-1
 102 608 l 1,13,-1
 668 1493 l 1,3,-1
EndSplineSet
EndChar
StartChar: five
Encoding: 53 53 53
Width: 1233
Flags: W
Fore
193 1493 m 1,0,-1
 1004 1493 l 1,1,-1
 1004 1233 l 1,2,-1
 432 1233 l 1,3,-1
 432 956 l 1,4,5
 468 970 468 970 509 976.5 c 128,-1,6
 550 983 550 983 596 983 c 0,7,8
 818 983 818 983 956 843 c 128,-1,9
 1094 703 1094 703 1094 479 c 0,10,11
 1094 244 1094 244 944.5 107.5 c 128,-1,12
 795 -29 795 -29 537 -29 c 0,13,14
 441 -29 441 -29 343 -13 c 128,-1,15
 245 3 245 3 143 35 c 1,16,-1
 143 301 l 1,17,18
 226 260 226 260 313.5 239.5 c 128,-1,19
 401 219 401 219 489 219 c 0,20,21
 645 219 645 219 726 285.5 c 128,-1,22
 807 352 807 352 807 479 c 0,23,24
 807 596 807 596 726.5 666.5 c 128,-1,25
 646 737 646 737 512 737 c 0,26,27
 433 737 433 737 353.5 717.5 c 128,-1,28
 274 698 274 698 193 659 c 1,29,-1
 193 1493 l 1,0,-1
EndSplineSet
EndChar
StartChar: six
Encoding: 54 54 54
Width: 1233
Flags: W
Fore
643 748 m 0,0,1
 547 748 547 748 496.5 678.5 c 128,-1,2
 446 609 446 609 446 477 c 0,3,4
 446 346 446 346 496.5 276.5 c 128,-1,5
 547 207 547 207 643 207 c 0,6,7
 739 207 739 207 790.5 276.5 c 128,-1,8
 842 346 842 346 842 477 c 0,9,10
 842 608 842 608 790.5 678 c 128,-1,11
 739 748 739 748 643 748 c 0,0,1
1030 1458 m 1,12,-1
 1030 1190 l 1,13,14
 951 1235 951 1235 878.5 1257.5 c 128,-1,15
 806 1280 806 1280 739 1280 c 0,16,17
 579 1280 579 1280 495.5 1172.5 c 128,-1,18
 412 1065 412 1065 408 855 c 1,19,20
 455 920 455 920 528 952.5 c 128,-1,21
 601 985 601 985 700 985 c 0,22,23
 902 985 902 985 1012 857.5 c 128,-1,24
 1122 730 1122 730 1122 496 c 0,25,26
 1122 245 1122 245 998.5 107 c 128,-1,27
 875 -31 875 -31 651 -31 c 0,28,29
 378 -31 378 -31 254.5 152 c 128,-1,30
 131 335 131 335 131 743 c 0,31,32
 131 1131 131 1131 282 1324.5 c 128,-1,33
 433 1518 433 1518 735 1518 c 0,34,35
 805 1518 805 1518 879.5 1503 c 128,-1,36
 954 1488 954 1488 1030 1458 c 1,12,-1
EndSplineSet
EndChar
StartChar: seven
Encoding: 55 55 55
Width: 1233
Flags: W
Fore
135 1493 m 1,0,-1
 1079 1493 l 1,1,-1
 1079 1284 l 1,2,-1
 573 0 l 1,3,-1
 272 0 l 1,4,-1
 758 1233 l 1,5,-1
 135 1233 l 1,6,-1
 135 1493 l 1,0,-1
EndSplineSet
EndChar
StartChar: eight
Encoding: 56 56 56
Width: 1233
Flags: W
Fore
616 666 m 0,0,1
 517 666 517 666 456 603.5 c 128,-1,2
 395 541 395 541 395 438 c 0,3,4
 395 335 395 335 456 272 c 128,-1,5
 517 209 517 209 616 209 c 0,6,7
 715 209 715 209 776.5 273 c 128,-1,8
 838 337 838 337 838 438 c 0,9,10
 838 541 838 541 777 603.5 c 128,-1,11
 716 666 716 666 616 666 c 0,0,1
397 791 m 1,12,13
 284 830 284 830 225 913.5 c 128,-1,14
 166 997 166 997 166 1118 c 0,15,16
 166 1304 166 1304 287 1412 c 128,-1,17
 408 1520 408 1520 616 1520 c 0,18,19
 825 1520 825 1520 946 1412 c 128,-1,20
 1067 1304 1067 1304 1067 1118 c 0,21,22
 1067 998 1067 998 1009 914.5 c 128,-1,23
 951 831 951 831 840 791 c 1,24,25
 964 753 964 753 1034 655 c 128,-1,26
 1104 557 1104 557 1104 420 c 0,27,28
 1104 205 1104 205 977 88 c 128,-1,29
 850 -29 850 -29 616 -29 c 0,30,31
 383 -29 383 -29 256 88 c 128,-1,32
 129 205 129 205 129 420 c 0,33,34
 129 558 129 558 200 656 c 128,-1,35
 271 754 271 754 397 791 c 1,12,13
428 1094 m 0,36,37
 428 1006 428 1006 478.5 954.5 c 128,-1,38
 529 903 529 903 616 903 c 0,39,40
 704 903 704 903 754.5 954.5 c 128,-1,41
 805 1006 805 1006 805 1094 c 0,42,43
 805 1181 805 1181 754.5 1231.5 c 128,-1,44
 704 1282 704 1282 616 1282 c 0,45,46
 530 1282 530 1282 479 1231 c 128,-1,47
 428 1180 428 1180 428 1094 c 0,36,37
EndSplineSet
EndChar
StartChar: nine
Encoding: 57 57 57
Width: 1233
Flags: W
Fore
203 20 m 1,0,-1
 203 289 l 1,1,2
 282 243 282 243 354.5 221 c 128,-1,3
 427 199 427 199 494 199 c 0,4,5
 653 199 653 199 736.5 305.5 c 128,-1,6
 820 412 820 412 825 624 c 1,7,8
 778 559 778 559 705 526.5 c 128,-1,9
 632 494 632 494 532 494 c 0,10,11
 331 494 331 494 221 621.5 c 128,-1,12
 111 749 111 749 111 983 c 0,13,14
 111 1233 111 1233 234 1370 c 128,-1,15
 357 1507 357 1507 582 1507 c 0,16,17
 855 1507 855 1507 978.5 1324.5 c 128,-1,18
 1102 1142 1102 1142 1102 735 c 0,19,20
 1102 348 1102 348 951 154.5 c 128,-1,21
 800 -39 800 -39 498 -39 c 0,22,23
 428 -39 428 -39 353.5 -24 c 128,-1,24
 279 -9 279 -9 203 20 c 1,0,-1
590 741 m 0,25,26
 685 741 685 741 735.5 810.5 c 128,-1,27
 786 880 786 880 786 1012 c 0,28,29
 786 1143 786 1143 735.5 1212.5 c 128,-1,30
 685 1282 685 1282 590 1282 c 0,31,32
 494 1282 494 1282 442.5 1212.5 c 128,-1,33
 391 1143 391 1143 391 1012 c 0,34,35
 391 881 391 881 442.5 811 c 128,-1,36
 494 741 494 741 590 741 c 0,25,26
EndSplineSet
EndChar
StartChar: colon
Encoding: 58 58 58
Width: 1233
Flags: W
Fore
449 1063 m 1,0,-1
 782 1063 l 1,1,-1
 782 698 l 1,2,-1
 449 698 l 1,3,-1
 449 1063 l 1,0,-1
449 367 m 1,4,-1
 782 367 l 1,5,-1
 782 0 l 1,6,-1
 449 0 l 1,7,-1
 449 367 l 1,4,-1
EndSplineSet
EndChar
StartChar: semicolon
Encoding: 59 59 59
Width: 1233
Flags: W
Fore
449 367 m 1,0,-1
 782 367 l 1,1,-1
 782 96 l 1,2,-1
 586 -287 l 1,3,-1
 371 -287 l 1,4,-1
 449 96 l 1,5,-1
 449 367 l 1,0,-1
449 1063 m 1,6,-1
 782 1063 l 1,7,-1
 782 698 l 1,8,-1
 449 698 l 1,9,-1
 449 1063 l 1,6,-1
EndSplineSet
EndChar
StartChar: less
Encoding: 60 60 60
Width: 1233
Flags: W
Fore
1145 926 m 1,0,-1
 350 641 l 1,1,-1
 1145 358 l 1,2,-1
 1145 109 l 1,3,-1
 88 524 l 1,4,-1
 88 760 l 1,5,-1
 1145 1176 l 1,6,-1
 1145 926 l 1,0,-1
EndSplineSet
EndChar
StartChar: equal
Encoding: 61 61 61
Width: 1233
Flags: W
Fore
88 532 m 1,0,-1
 1145 532 l 1,1,-1
 1145 295 l 1,2,-1
 88 295 l 1,3,-1
 88 532 l 1,0,-1
88 987 m 1,4,-1
 1145 987 l 1,5,-1
 1145 752 l 1,6,-1
 88 752 l 1,7,-1
 88 987 l 1,4,-1
EndSplineSet
EndChar
StartChar: greater
Encoding: 62 62 62
Width: 1233
Flags: W
Fore
88 926 m 1,0,-1
 88 1176 l 1,1,-1
 1145 760 l 1,2,-1
 1145 524 l 1,3,-1
 88 109 l 1,4,-1
 88 358 l 1,5,-1
 883 641 l 1,6,-1
 88 926 l 1,0,-1
EndSplineSet
EndChar
StartChar: question
Encoding: 63 63 63
Width: 1233
Flags: W
Fore
440 283 m 1,0,-1
 707 283 l 1,1,-1
 707 0 l 1,2,-1
 440 0 l 1,3,-1
 440 283 l 1,0,-1
707 401 m 1,4,-1
 440 401 l 1,5,-1
 440 555 l 2,6,7
 440 654 440 654 471 724 c 128,-1,8
 502 794 502 794 582 872 c 2,9,-1
 672 961 l 2,10,11
 735 1022 735 1022 757.5 1062 c 128,-1,12
 780 1102 780 1102 780 1145 c 0,13,14
 780 1212 780 1212 734 1246 c 128,-1,15
 688 1280 688 1280 596 1280 c 0,16,17
 512 1280 512 1280 420.5 1244.5 c 128,-1,18
 329 1209 329 1209 233 1139 c 1,19,-1
 233 1407 l 1,20,21
 331 1463 331 1463 431.5 1491.5 c 128,-1,22
 532 1520 532 1520 633 1520 c 0,23,24
 835 1520 835 1520 950 1426 c 128,-1,25
 1065 1332 1065 1332 1065 1167 c 0,26,27
 1065 1091 1065 1091 1031 1025.5 c 128,-1,28
 997 960 997 960 903 868 c 2,29,-1
 815 782 l 2,30,31
 747 716 747 716 728 674 c 128,-1,32
 709 632 709 632 709 571 c 0,33,34
 709 562 709 562 708.5 550 c 128,-1,35
 708 538 708 538 707 524 c 1,36,-1
 707 401 l 1,4,-1
EndSplineSet
EndChar
StartChar: at
Encoding: 64 64 64
Width: 1233
Flags: W
Fore
973 545 m 0,0,1
 973 658 973 658 922 722 c 128,-1,2
 871 786 871 786 782 786 c 0,3,4
 693 786 693 786 642.5 722 c 128,-1,5
 592 658 592 658 592 545 c 0,6,7
 592 431 592 431 642.5 367 c 128,-1,8
 693 303 693 303 782 303 c 0,9,10
 871 303 871 303 922 367 c 128,-1,11
 973 431 973 431 973 545 c 0,0,1
1159 135 m 1,12,-1
 963 135 l 1,13,-1
 963 217 l 1,14,15
 925 164 925 164 873.5 139.5 c 128,-1,16
 822 115 822 115 750 115 c 0,17,18
 586 115 586 115 485.5 233 c 128,-1,19
 385 351 385 351 385 545 c 0,20,21
 385 738 385 738 485 855.5 c 128,-1,22
 585 973 585 973 750 973 c 0,23,24
 821 973 821 973 875 948.5 c 128,-1,25
 929 924 929 924 963 877 c 1,26,-1
 963 918 l 2,27,28
 963 1054 963 1054 888.5 1128 c 128,-1,29
 814 1202 814 1202 676 1202 c 0,30,31
 468 1202 468 1202 336.5 1019 c 128,-1,32
 205 836 205 836 205 543 c 0,33,34
 205 236 205 236 357 54.5 c 128,-1,35
 509 -127 509 -127 762 -127 c 0,36,37
 842 -127 842 -127 917 -103.5 c 128,-1,38
 992 -80 992 -80 1061 -33 c 1,39,-1
 1153 -209 l 1,40,41
 1072 -264 1072 -264 976.5 -291.5 c 128,-1,42
 881 -319 881 -319 772 -319 c 0,43,44
 422 -319 422 -319 214 -86 c 128,-1,45
 6 147 6 147 6 543 c 0,46,47
 6 930 6 930 193 1162.5 c 128,-1,48
 380 1395 380 1395 688 1395 c 0,49,50
 906 1395 906 1395 1032.5 1263.5 c 128,-1,51
 1159 1132 1159 1132 1159 905 c 2,52,-1
 1159 135 l 1,12,-1
EndSplineSet
EndChar
StartChar: A
Encoding: 65 65 65
Width: 1233
Flags: W
Fore
616 1223 m 1,0,-1
 477 612 l 1,1,-1
 756 612 l 1,2,-1
 616 1223 l 1,0,-1
436 1493 m 1,3,-1
 797 1493 l 1,4,-1
 1200 0 l 1,5,-1
 905 0 l 1,6,-1
 813 369 l 1,7,-1
 418 369 l 1,8,-1
 328 0 l 1,9,-1
 33 0 l 1,10,-1
 436 1493 l 1,3,-1
EndSplineSet
EndChar
StartChar: B
Encoding: 66 66 66
Width: 1233
Flags: W
Fore
410 678 m 1,0,-1
 410 236 l 1,1,-1
 606 236 l 2,2,3
 747 236 747 236 803.5 284 c 128,-1,4
 860 332 860 332 860 451 c 0,5,6
 860 572 860 572 801 625 c 128,-1,7
 742 678 742 678 606 678 c 2,8,-1
 410 678 l 1,0,-1
410 1260 m 1,9,-1
 410 913 l 1,10,-1
 606 913 l 2,11,12
 718 913 718 913 765.5 953 c 128,-1,13
 813 993 813 993 813 1085 c 0,14,15
 813 1177 813 1177 764.5 1218.5 c 128,-1,16
 716 1260 716 1260 606 1260 c 2,17,-1
 410 1260 l 1,9,-1
125 1495 m 1,18,-1
 606 1495 l 2,19,20
 855 1495 855 1495 980.5 1400.5 c 128,-1,21
 1106 1306 1106 1306 1106 1118 c 0,22,23
 1106 974 1106 974 1032 893 c 128,-1,24
 958 812 958 812 815 799 c 1,25,26
 986 782 986 782 1072.5 684 c 128,-1,27
 1159 586 1159 586 1159 410 c 0,28,29
 1159 194 1159 194 1029 97 c 128,-1,30
 899 0 899 0 606 0 c 2,31,-1
 125 0 l 1,32,-1
 125 1495 l 1,18,-1
EndSplineSet
EndChar
StartChar: C
Encoding: 67 67 67
Width: 1233
Flags: W
Fore
1081 43 m 1,0,1
 1011 7 1011 7 934 -11 c 128,-1,2
 857 -29 857 -29 772 -29 c 0,3,4
 470 -29 470 -29 311 170 c 128,-1,5
 152 369 152 369 152 745 c 0,6,7
 152 1122 152 1122 311 1321 c 128,-1,8
 470 1520 470 1520 772 1520 c 0,9,10
 857 1520 857 1520 935 1502 c 128,-1,11
 1013 1484 1013 1484 1081 1448 c 1,12,-1
 1081 1120 l 1,13,14
 1005 1190 1005 1190 933.5 1222.5 c 128,-1,15
 862 1255 862 1255 786 1255 c 0,16,17
 624 1255 624 1255 541.5 1126.5 c 128,-1,18
 459 998 459 998 459 745 c 0,19,20
 459 493 459 493 541.5 364.5 c 128,-1,21
 624 236 624 236 786 236 c 0,22,23
 862 236 862 236 933.5 268.5 c 128,-1,24
 1005 301 1005 301 1081 371 c 1,25,-1
 1081 43 l 1,0,1
EndSplineSet
EndChar
StartChar: D
Encoding: 68 68 68
Width: 1233
Flags: W
Fore
432 1227 m 1,0,-1
 432 266 l 1,1,-1
 512 266 l 2,2,3
 686 266 686 266 760 375.5 c 128,-1,4
 834 485 834 485 834 748 c 0,5,6
 834 1009 834 1009 760 1118 c 128,-1,7
 686 1227 686 1227 512 1227 c 2,8,-1
 432 1227 l 1,0,-1
137 1493 m 1,9,-1
 453 1493 l 2,10,11
 819 1493 819 1493 980 1318.5 c 128,-1,12
 1141 1144 1141 1144 1141 748 c 0,13,14
 1141 351 1141 351 980 175.5 c 128,-1,15
 819 0 819 0 453 0 c 2,16,-1
 137 0 l 1,17,-1
 137 1493 l 1,9,-1
EndSplineSet
EndChar
StartChar: E
Encoding: 69 69 69
Width: 1233
Flags: W
Fore
1098 0 m 1,0,-1
 168 0 l 1,1,-1
 168 1493 l 1,2,-1
 1098 1493 l 1,3,-1
 1098 1233 l 1,4,-1
 463 1233 l 1,5,-1
 463 911 l 1,6,-1
 1038 911 l 1,7,-1
 1038 651 l 1,8,-1
 463 651 l 1,9,-1
 463 260 l 1,10,-1
 1098 260 l 1,11,-1
 1098 0 l 1,0,-1
EndSplineSet
EndChar
StartChar: F
Encoding: 70 70 70
Width: 1233
Flags: W
Fore
1112 1233 m 1,0,-1
 477 1233 l 1,1,-1
 477 911 l 1,2,-1
 1055 911 l 1,3,-1
 1055 651 l 1,4,-1
 477 651 l 1,5,-1
 477 0 l 1,6,-1
 182 0 l 1,7,-1
 182 1493 l 1,8,-1
 1112 1493 l 1,9,-1
 1112 1233 l 1,0,-1
EndSplineSet
EndChar
StartChar: G
Encoding: 71 71 71
Width: 1233
Flags: W
Fore
872 270 m 1,0,-1
 872 555 l 1,1,-1
 670 555 l 1,2,-1
 670 803 l 1,3,-1
 1130 803 l 1,4,-1
 1130 119 l 1,5,6
 1045 46 1045 46 942.5 8.5 c 128,-1,7
 840 -29 840 -29 723 -29 c 0,8,9
 433 -29 433 -29 275 172.5 c 128,-1,10
 117 374 117 374 117 745 c 0,11,12
 117 1122 117 1122 276.5 1321 c 128,-1,13
 436 1520 436 1520 737 1520 c 0,14,15
 827 1520 827 1520 914 1494.5 c 128,-1,16
 1001 1469 1001 1469 1077 1421 c 1,17,-1
 1077 1094 l 1,18,19
 1015 1174 1015 1174 934.5 1214.5 c 128,-1,20
 854 1255 854 1255 758 1255 c 0,21,22
 590 1255 590 1255 507 1128.5 c 128,-1,23
 424 1002 424 1002 424 745 c 0,24,25
 424 496 424 496 504 366 c 128,-1,26
 584 236 584 236 737 236 c 0,27,28
 783 236 783 236 817 244.5 c 128,-1,29
 851 253 851 253 872 270 c 1,0,-1
EndSplineSet
EndChar
StartChar: H
Encoding: 72 72 72
Width: 1233
Flags: W
Fore
137 1493 m 1,0,-1
 432 1493 l 1,1,-1
 432 924 l 1,2,-1
 801 924 l 1,3,-1
 801 1493 l 1,4,-1
 1096 1493 l 1,5,-1
 1096 0 l 1,6,-1
 801 0 l 1,7,-1
 801 664 l 1,8,-1
 432 664 l 1,9,-1
 432 0 l 1,10,-1
 137 0 l 1,11,-1
 137 1493 l 1,0,-1
EndSplineSet
EndChar
StartChar: I
Encoding: 73 73 73
Width: 1233
Flags: W
Fore
172 1233 m 1,0,-1
 172 1493 l 1,1,-1
 1061 1493 l 1,2,-1
 1061 1233 l 1,3,-1
 764 1233 l 1,4,-1
 764 260 l 1,5,-1
 1061 260 l 1,6,-1
 1061 0 l 1,7,-1
 172 0 l 1,8,-1
 172 260 l 1,9,-1
 469 260 l 1,10,-1
 469 1233 l 1,11,-1
 172 1233 l 1,0,-1
EndSplineSet
EndChar
StartChar: J
Encoding: 74 74 74
Width: 1233
Flags: W
Fore
109 74 m 1,0,-1
 109 416 l 1,1,2
 195 328 195 328 292.5 282 c 128,-1,3
 390 236 390 236 489 236 c 0,4,5
 605 236 605 236 659 294 c 128,-1,6
 713 352 713 352 713 479 c 2,7,-1
 713 1233 l 1,8,-1
 352 1233 l 1,9,-1
 352 1493 l 1,10,-1
 1008 1493 l 1,11,-1
 1008 479 l 2,12,13
 1008 206 1008 206 893.5 88.5 c 128,-1,14
 779 -29 779 -29 516 -29 c 0,15,16
 421 -29 421 -29 317.5 -3 c 128,-1,17
 214 23 214 23 109 74 c 1,0,-1
EndSplineSet
EndChar
StartChar: K
Encoding: 75 75 75
Width: 1233
Flags: W
Fore
117 1493 m 1,0,-1
 412 1493 l 1,1,-1
 412 903 l 1,2,-1
 874 1493 l 1,3,-1
 1208 1493 l 1,4,-1
 737 905 l 1,5,-1
 1225 0 l 1,6,-1
 897 0 l 1,7,-1
 543 672 l 1,8,-1
 412 506 l 1,9,-1
 412 0 l 1,10,-1
 117 0 l 1,11,-1
 117 1493 l 1,0,-1
EndSplineSet
EndChar
StartChar: L
Encoding: 76 76 76
Width: 1233
Flags: W
Fore
225 0 m 1,0,-1
 225 1493 l 1,1,-1
 520 1493 l 1,2,-1
 520 260 l 1,3,-1
 1151 260 l 1,4,-1
 1151 0 l 1,5,-1
 225 0 l 1,0,-1
EndSplineSet
EndChar
StartChar: M
Encoding: 77 77 77
Width: 1233
Flags: W
Fore
86 1493 m 1,0,-1
 438 1493 l 1,1,-1
 616 838 l 1,2,-1
 793 1493 l 1,3,-1
 1147 1493 l 1,4,-1
 1147 0 l 1,5,-1
 893 0 l 1,6,-1
 893 1196 l 1,7,-1
 735 543 l 1,8,-1
 500 543 l 1,9,-1
 340 1196 l 1,10,-1
 340 0 l 1,11,-1
 86 0 l 1,12,-1
 86 1493 l 1,0,-1
EndSplineSet
EndChar
StartChar: N
Encoding: 78 78 78
Width: 1233
Flags: W
Fore
119 1493 m 1,0,-1
 436 1493 l 1,1,-1
 852 408 l 1,2,-1
 852 1493 l 1,3,-1
 1112 1493 l 1,4,-1
 1112 0 l 1,5,-1
 797 0 l 1,6,-1
 379 1085 l 1,7,-1
 379 0 l 1,8,-1
 119 0 l 1,9,-1
 119 1493 l 1,0,-1
EndSplineSet
EndChar
StartChar: O
Encoding: 79 79 79
Width: 1233
Flags: W
Fore
616 1255 m 0,0,1
 503 1255 503 1255 451 1134.5 c 128,-1,2
 399 1014 399 1014 399 745 c 0,3,4
 399 477 399 477 451 356.5 c 128,-1,5
 503 236 503 236 616 236 c 0,6,7
 730 236 730 236 782 356.5 c 128,-1,8
 834 477 834 477 834 745 c 0,9,10
 834 1014 834 1014 782 1134.5 c 128,-1,11
 730 1255 730 1255 616 1255 c 0,0,1
92 745 m 0,12,13
 92 1128 92 1128 224.5 1324 c 128,-1,14
 357 1520 357 1520 616 1520 c 0,15,16
 876 1520 876 1520 1008.5 1324 c 128,-1,17
 1141 1128 1141 1128 1141 745 c 0,18,19
 1141 363 1141 363 1008.5 167 c 128,-1,20
 876 -29 876 -29 616 -29 c 0,21,22
 357 -29 357 -29 224.5 167 c 128,-1,23
 92 363 92 363 92 745 c 0,12,13
EndSplineSet
EndChar
StartChar: P
Encoding: 80 80 80
Width: 1233
Flags: W
Fore
457 1245 m 1,0,-1
 457 807 l 1,1,-1
 578 807 l 2,2,3
 723 807 723 807 781.5 856 c 128,-1,4
 840 905 840 905 840 1026 c 0,5,6
 840 1147 840 1147 781.5 1196 c 128,-1,7
 723 1245 723 1245 578 1245 c 2,8,-1
 457 1245 l 1,0,-1
162 1493 m 1,9,-1
 567 1493 l 2,10,11
 876 1493 876 1493 1011.5 1383 c 128,-1,12
 1147 1273 1147 1273 1147 1026 c 0,13,14
 1147 779 1147 779 1011.5 669 c 128,-1,15
 876 559 876 559 567 559 c 2,16,-1
 457 559 l 1,17,-1
 457 0 l 1,18,-1
 162 0 l 1,19,-1
 162 1493 l 1,9,-1
EndSplineSet
EndChar
StartChar: Q
Encoding: 81 81 81
Width: 1233
Flags: W
Fore
656 -23 m 1,0,1
 642 -26 642 -26 632.5 -27.5 c 128,-1,2
 623 -29 623 -29 614 -29 c 0,3,4
 357 -29 357 -29 224.5 167 c 128,-1,5
 92 363 92 363 92 745 c 0,6,7
 92 1128 92 1128 224.5 1324 c 128,-1,8
 357 1520 357 1520 616 1520 c 0,9,10
 876 1520 876 1520 1008.5 1324 c 128,-1,11
 1141 1128 1141 1128 1141 745 c 0,12,13
 1141 482 1141 482 1078 304.5 c 128,-1,14
 1015 127 1015 127 895 51 c 1,15,-1
 1081 -131 l 1,16,-1
 879 -281 l 1,17,-1
 656 -23 l 1,0,1
616 1255 m 0,18,19
 503 1255 503 1255 451 1134.5 c 128,-1,20
 399 1014 399 1014 399 745 c 0,21,22
 399 477 399 477 451 356.5 c 128,-1,23
 503 236 503 236 616 236 c 0,24,25
 730 236 730 236 782 356.5 c 128,-1,26
 834 477 834 477 834 745 c 0,27,28
 834 1014 834 1014 782 1134.5 c 128,-1,29
 730 1255 730 1255 616 1255 c 0,18,19
EndSplineSet
EndChar
StartChar: R
Encoding: 82 82 82
Width: 1233
Flags: W
Fore
807 705 m 1,0,1
 851 696 851 696 883.5 663.5 c 128,-1,2
 916 631 916 631 963 537 c 2,3,-1
 1233 0 l 1,4,-1
 909 0 l 1,5,-1
 729 377 l 2,6,7
 721 393 721 393 708 421 c 0,8,9
 629 590 629 590 522 590 c 2,10,-1
 428 590 l 1,11,-1
 428 0 l 1,12,-1
 133 0 l 1,13,-1
 133 1493 l 1,14,-1
 559 1493 l 2,15,16
 847 1493 847 1493 972.5 1391 c 128,-1,17
 1098 1289 1098 1289 1098 1059 c 0,18,19
 1098 905 1098 905 1023 814 c 128,-1,20
 948 723 948 723 807 705 c 1,0,1
428 1245 m 1,21,-1
 428 838 l 1,22,-1
 567 838 l 2,23,24
 688 838 688 838 740.5 885.5 c 128,-1,25
 793 933 793 933 793 1042 c 0,26,27
 793 1151 793 1151 741 1198 c 128,-1,28
 689 1245 689 1245 567 1245 c 2,29,-1
 428 1245 l 1,21,-1
EndSplineSet
EndChar
StartChar: S
Encoding: 83 83 83
Width: 1233
Flags: W
Fore
510 655 m 2,0,1
 287 740 287 740 208 833.5 c 128,-1,2
 129 927 129 927 129 1085 c 0,3,4
 129 1288 129 1288 259 1404 c 128,-1,5
 389 1520 389 1520 616 1520 c 0,6,7
 719 1520 719 1520 822 1496.5 c 128,-1,8
 925 1473 925 1473 1026 1427 c 1,9,-1
 1026 1139 l 1,10,11
 931 1206 931 1206 833 1241 c 128,-1,12
 735 1276 735 1276 639 1276 c 0,13,14
 532 1276 532 1276 475 1233 c 128,-1,15
 418 1190 418 1190 418 1110 c 0,16,17
 418 1048 418 1048 459.5 1007.5 c 128,-1,18
 501 967 501 967 633 918 c 2,19,-1
 760 870 l 2,20,21
 940 804 940 804 1025 695 c 128,-1,22
 1110 586 1110 586 1110 420 c 0,23,24
 1110 194 1110 194 976.5 82.5 c 128,-1,25
 843 -29 843 -29 573 -29 c 0,26,27
 462 -29 462 -29 350.5 -2.5 c 128,-1,28
 239 24 239 24 135 76 c 1,29,-1
 135 381 l 1,30,31
 253 297 253 297 363.5 256 c 128,-1,32
 474 215 474 215 582 215 c 0,33,34
 691 215 691 215 751 264.5 c 128,-1,35
 811 314 811 314 811 403 c 0,36,37
 811 470 811 470 771 520.5 c 128,-1,38
 731 571 731 571 655 600 c 2,39,-1
 510 655 l 2,0,1
EndSplineSet
EndChar
StartChar: T
Encoding: 84 84 84
Width: 1233
Flags: W
Fore
764 0 m 1,0,-1
 469 0 l 1,1,-1
 469 1235 l 1,2,-1
 90 1235 l 1,3,-1
 90 1493 l 1,4,-1
 1143 1493 l 1,5,-1
 1143 1235 l 1,6,-1
 764 1235 l 1,7,-1
 764 0 l 1,0,-1
EndSplineSet
EndChar
StartChar: U
Encoding: 85 85 85
Width: 1233
Flags: W
Fore
106 551 m 2,0,-1
 106 1493 l 1,1,-1
 401 1493 l 1,2,-1
 401 477 l 2,3,4
 401 365 401 365 458 301.5 c 128,-1,5
 515 238 515 238 616 238 c 0,6,7
 717 238 717 238 774 301.5 c 128,-1,8
 831 365 831 365 831 477 c 2,9,-1
 831 1493 l 1,10,-1
 1126 1493 l 1,11,-1
 1126 551 l 2,12,13
 1126 247 1126 247 1005 109 c 128,-1,14
 884 -29 884 -29 616 -29 c 0,15,16
 349 -29 349 -29 227.5 109 c 128,-1,17
 106 247 106 247 106 551 c 2,0,-1
EndSplineSet
EndChar
StartChar: V
Encoding: 86 86 86
Width: 1233
Flags: W
Fore
616 246 m 1,0,-1
 879 1493 l 1,1,-1
 1176 1493 l 1,2,-1
 821 0 l 1,3,-1
 412 0 l 1,4,-1
 57 1493 l 1,5,-1
 354 1493 l 1,6,-1
 616 246 l 1,0,-1
EndSplineSet
EndChar
StartChar: W
Encoding: 87 87 87
Width: 1233
Flags: W
Fore
0 1493 m 1,0,-1
 258 1493 l 1,1,-1
 365 397 l 1,2,-1
 494 1106 l 1,3,-1
 739 1106 l 1,4,-1
 889 397 l 1,5,-1
 973 1493 l 1,6,-1
 1233 1493 l 1,7,-1
 1061 0 l 1,8,-1
 786 0 l 1,9,-1
 616 784 l 1,10,-1
 457 0 l 1,11,-1
 184 0 l 1,12,-1
 0 1493 l 1,0,-1
EndSplineSet
EndChar
StartChar: X
Encoding: 88 88 88
Width: 1233
Flags: W
Fore
1206 0 m 1,0,-1
 901 0 l 1,1,-1
 616 494 l 1,2,-1
 332 0 l 1,3,-1
 27 0 l 1,4,-1
 465 758 l 1,5,-1
 39 1493 l 1,6,-1
 344 1493 l 1,7,-1
 616 1018 l 1,8,-1
 889 1493 l 1,9,-1
 1194 1493 l 1,10,-1
 770 758 l 1,11,-1
 1206 0 l 1,0,-1
EndSplineSet
EndChar
StartChar: Y
Encoding: 89 89 89
Width: 1233
Flags: W
Fore
8 1493 m 1,0,-1
 326 1493 l 1,1,-1
 616 893 l 1,2,-1
 907 1493 l 1,3,-1
 1225 1493 l 1,4,-1
 764 588 l 1,5,-1
 764 0 l 1,6,-1
 469 0 l 1,7,-1
 469 588 l 1,8,-1
 8 1493 l 1,0,-1
EndSplineSet
EndChar
StartChar: Z
Encoding: 90 90 90
Width: 1233
Flags: W
Fore
137 1493 m 1,0,-1
 1147 1493 l 1,1,-1
 1147 1249 l 1,2,-1
 455 260 l 1,3,-1
 1161 260 l 1,4,-1
 1161 0 l 1,5,-1
 115 0 l 1,6,-1
 115 244 l 1,7,-1
 786 1233 l 1,8,-1
 137 1233 l 1,9,-1
 137 1493 l 1,0,-1
EndSplineSet
EndChar
StartChar: bracketleft
Encoding: 91 91 91
Width: 1233
Flags: W
Fore
422 1556 m 1,0,-1
 930 1556 l 1,1,-1
 930 1366 l 1,2,-1
 688 1366 l 1,3,-1
 688 -80 l 1,4,-1
 930 -80 l 1,5,-1
 930 -270 l 1,6,-1
 422 -270 l 1,7,-1
 422 1556 l 1,0,-1
EndSplineSet
EndChar
StartChar: backslash
Encoding: 92 92 92
Width: 1233
Flags: W
Fore
334 1493 m 1,0,-1
 1120 -190 l 1,1,-1
 897 -190 l 1,2,-1
 111 1493 l 1,3,-1
 334 1493 l 1,0,-1
EndSplineSet
EndChar
StartChar: bracketright
Encoding: 93 93 93
Width: 1233
Flags: W
Fore
811 1556 m 1,0,-1
 811 -270 l 1,1,-1
 303 -270 l 1,2,-1
 303 -80 l 1,3,-1
 545 -80 l 1,4,-1
 545 1366 l 1,5,-1
 303 1366 l 1,6,-1
 303 1556 l 1,7,-1
 811 1556 l 1,0,-1
EndSplineSet
EndChar
StartChar: asciicircum
Encoding: 94 94 94
Width: 1233
Flags: W
Fore
739 1493 m 1,0,-1
 1176 936 l 1,1,-1
 934 936 l 1,2,-1
 616 1237 l 1,3,-1
 299 936 l 1,4,-1
 57 936 l 1,5,-1
 494 1493 l 1,6,-1
 739 1493 l 1,0,-1
EndSplineSet
EndChar
StartChar: underscore
Encoding: 95 95 95
Width: 1233
Flags: W
Fore
1233 -293 m 1,0,-1
 1233 -483 l 1,1,-1
 0 -483 l 1,2,-1
 0 -293 l 1,3,-1
 1233 -293 l 1,0,-1
EndSplineSet
EndChar
StartChar: grave
Encoding: 96 96 96
Width: 1233
Flags: W
Fore
481 1638 m 1,0,-1
 764 1262 l 1,1,-1
 567 1262 l 1,2,-1
 199 1638 l 1,3,-1
 481 1638 l 1,0,-1
EndSplineSet
EndChar
StartChar: a
Encoding: 97 97 97
Width: 1233
Flags: W
Fore
700 526 m 2,0,1
 536 526 536 526 471 484 c 128,-1,2
 406 442 406 442 406 340 c 0,3,4
 406 264 406 264 451 219 c 128,-1,5
 496 174 496 174 573 174 c 0,6,7
 689 174 689 174 753 261.5 c 128,-1,8
 817 349 817 349 817 506 c 2,9,-1
 817 526 l 1,10,-1
 700 526 l 2,0,1
1108 639 m 2,11,-1
 1108 0 l 1,12,-1
 817 0 l 1,13,-1
 817 125 l 1,14,15
 764 51 764 51 681 11 c 128,-1,16
 598 -29 598 -29 498 -29 c 0,17,18
 307 -29 307 -29 200.5 72 c 128,-1,19
 94 173 94 173 94 354 c 0,20,21
 94 550 94 550 221 643.5 c 128,-1,22
 348 737 348 737 614 737 c 2,23,-1
 817 737 l 1,24,-1
 817 786 l 2,25,26
 817 857 817 857 765.5 893.5 c 128,-1,27
 714 930 714 930 614 930 c 0,28,29
 509 930 509 930 410.5 903.5 c 128,-1,30
 312 877 312 877 205 819 c 1,31,-1
 205 1069 l 1,32,33
 302 1109 302 1109 402 1128 c 128,-1,34
 502 1147 502 1147 614 1147 c 0,35,36
 887 1147 887 1147 997.5 1036 c 128,-1,37
 1108 925 1108 925 1108 639 c 2,11,-1
EndSplineSet
EndChar
StartChar: b
Encoding: 98 98 98
Width: 1233
Flags: W
Fore
850 557 m 0,0,1
 850 719 850 719 796 811 c 128,-1,2
 742 903 742 903 647 903 c 0,3,4
 552 903 552 903 497 811 c 128,-1,5
 442 719 442 719 442 557 c 0,6,7
 442 395 442 395 497 303 c 128,-1,8
 552 211 552 211 647 211 c 0,9,10
 742 211 742 211 796 303 c 128,-1,11
 850 395 850 395 850 557 c 0,0,1
442 961 m 1,12,13
 496 1054 496 1054 567.5 1100.5 c 128,-1,14
 639 1147 639 1147 729 1147 c 0,15,16
 928 1147 928 1147 1035.5 995 c 128,-1,17
 1143 843 1143 843 1143 559 c 0,18,19
 1143 279 1143 279 1037 125 c 128,-1,20
 931 -29 931 -29 739 -29 c 0,21,22
 638 -29 638 -29 563 20 c 128,-1,23
 488 69 488 69 442 166 c 1,24,-1
 442 0 l 1,25,-1
 150 0 l 1,26,-1
 150 1556 l 1,27,-1
 442 1556 l 1,28,-1
 442 961 l 1,12,13
EndSplineSet
EndChar
StartChar: c
Encoding: 99 99 99
Width: 1233
Flags: W
Fore
1061 57 m 1,0,1
 987 14 987 14 902 -7.5 c 128,-1,2
 817 -29 817 -29 719 -29 c 0,3,4
 460 -29 460 -29 314 127 c 128,-1,5
 168 283 168 283 168 559 c 0,6,7
 168 836 168 836 315 992.5 c 128,-1,8
 462 1149 462 1149 721 1149 c 0,9,10
 811 1149 811 1149 894.5 1128 c 128,-1,11
 978 1107 978 1107 1061 1063 c 1,12,-1
 1061 795 l 1,13,14
 997 850 997 850 920.5 879.5 c 128,-1,15
 844 909 844 909 762 909 c 0,16,17
 619 909 619 909 542 818 c 128,-1,18
 465 727 465 727 465 559 c 0,19,20
 465 391 465 391 542 301 c 128,-1,21
 619 211 619 211 762 211 c 0,22,23
 847 211 847 211 921 239.5 c 128,-1,24
 995 268 995 268 1061 326 c 1,25,-1
 1061 57 l 1,0,1
EndSplineSet
EndChar
StartChar: d
Encoding: 100 100 100
Width: 1233
Flags: W
Fore
791 961 m 1,0,-1
 791 1556 l 1,1,-1
 1083 1556 l 1,2,-1
 1083 0 l 1,3,-1
 791 0 l 1,4,-1
 791 166 l 1,5,6
 744 69 744 69 669.5 20 c 128,-1,7
 595 -29 595 -29 494 -29 c 0,8,9
 302 -29 302 -29 196 125 c 128,-1,10
 90 279 90 279 90 559 c 0,11,12
 90 843 90 843 197.5 995 c 128,-1,13
 305 1147 305 1147 504 1147 c 0,14,15
 594 1147 594 1147 665.5 1100.5 c 128,-1,16
 737 1054 737 1054 791 961 c 1,0,-1
383 557 m 0,17,18
 383 395 383 395 437 303 c 128,-1,19
 491 211 491 211 586 211 c 0,20,21
 681 211 681 211 736 303 c 128,-1,22
 791 395 791 395 791 557 c 0,23,24
 791 719 791 719 736 811 c 128,-1,25
 681 903 681 903 586 903 c 0,26,27
 491 903 491 903 437 811 c 128,-1,28
 383 719 383 719 383 557 c 0,17,18
EndSplineSet
EndChar
StartChar: e
Encoding: 101 101 101
Width: 1233
Flags: W
Fore
1102 55 m 1,0,1
 1000 13 1000 13 894 -8 c 128,-1,2
 788 -29 788 -29 670 -29 c 0,3,4
 389 -29 389 -29 240.5 121.5 c 128,-1,5
 92 272 92 272 92 555 c 0,6,7
 92 829 92 829 235 988 c 128,-1,8
 378 1147 378 1147 625 1147 c 0,9,10
 874 1147 874 1147 1011.5 999.5 c 128,-1,11
 1149 852 1149 852 1149 584 c 2,12,-1
 1149 465 l 1,13,-1
 390 465 l 1,14,15
 391 333 391 333 468 268 c 128,-1,16
 545 203 545 203 698 203 c 0,17,18
 799 203 799 203 897 232 c 128,-1,19
 995 261 995 261 1102 324 c 1,20,-1
 1102 55 l 1,0,1
854 685 m 1,21,22
 852 801 852 801 794.5 860.5 c 128,-1,23
 737 920 737 920 625 920 c 0,24,25
 524 920 524 920 464 858.5 c 128,-1,26
 404 797 404 797 393 684 c 1,27,-1
 854 685 l 1,21,22
EndSplineSet
EndChar
StartChar: f
Encoding: 102 102 102
Width: 1233
Flags: W
Fore
739 1218 m 1,0,-1
 739 1120 l 1,1,-1
 1083 1120 l 1,2,-1
 1083 895 l 1,3,-1
 739 895 l 1,4,-1
 739 0 l 1,5,-1
 446 0 l 1,6,-1
 446 895 l 1,7,-1
 174 895 l 1,8,-1
 174 1120 l 1,9,-1
 446 1120 l 1,10,-1
 446 1198 l 2,11,12
 446 1400 446 1400 530 1478 c 128,-1,13
 614 1556 614 1556 842 1556 c 2,14,-1
 1083 1556 l 1,15,-1
 1083 1331 l 1,16,-1
 854 1331 l 2,17,18
 788 1331 788 1331 764.5 1307 c 128,-1,19
 741 1283 741 1283 739 1218 c 1,0,-1
EndSplineSet
EndChar
StartChar: g
Encoding: 103 103 103
Width: 1233
Flags: W
Fore
803 578 m 0,0,1
 803 728 803 728 746 818.5 c 128,-1,2
 689 909 689 909 596 909 c 0,3,4
 504 909 504 909 447.5 819 c 128,-1,5
 391 729 391 729 391 578 c 0,6,7
 391 426 391 426 447.5 336 c 128,-1,8
 504 246 504 246 596 246 c 0,9,10
 689 246 689 246 746 336.5 c 128,-1,11
 803 427 803 427 803 578 c 0,0,1
1096 84 m 2,12,13
 1096 -185 1096 -185 974.5 -304.5 c 128,-1,14
 853 -424 853 -424 580 -424 c 0,15,16
 488 -424 488 -424 398 -410.5 c 128,-1,17
 308 -397 308 -397 215 -369 c 1,18,-1
 215 -100 l 1,19,20
 298 -146 298 -146 384 -168 c 128,-1,21
 470 -190 470 -190 561 -190 c 0,22,23
 685 -190 685 -190 744 -131.5 c 128,-1,24
 803 -73 803 -73 803 51 c 2,25,-1
 803 172 l 1,26,27
 760 92 760 92 689 53 c 128,-1,28
 618 14 618 14 516 14 c 0,29,30
 324 14 324 14 211 164 c 128,-1,31
 98 314 98 314 98 571 c 0,32,33
 98 837 98 837 211 993 c 128,-1,34
 324 1149 324 1149 514 1149 c 0,35,36
 610 1149 610 1149 685 1104 c 128,-1,37
 760 1059 760 1059 803 977 c 1,38,-1
 803 1120 l 1,39,-1
 1096 1120 l 1,40,-1
 1096 84 l 2,12,13
EndSplineSet
EndChar
StartChar: h
Encoding: 104 104 104
Width: 1233
Flags: W
Fore
1071 727 m 2,0,-1
 1071 0 l 1,1,-1
 780 0 l 1,2,-1
 780 682 l 2,3,4
 780 803 780 803 745.5 855 c 128,-1,5
 711 907 711 907 633 907 c 0,6,7
 553 907 553 907 508 836.5 c 128,-1,8
 463 766 463 766 463 641 c 2,9,-1
 463 0 l 1,10,-1
 172 0 l 1,11,-1
 172 1556 l 1,12,-1
 463 1556 l 1,13,-1
 463 952 l 1,14,15
 494 1045 494 1045 569 1096 c 128,-1,16
 644 1147 644 1147 750 1147 c 0,17,18
 909 1147 909 1147 990 1041.5 c 128,-1,19
 1071 936 1071 936 1071 727 c 2,0,-1
EndSplineSet
EndChar
StartChar: i
Encoding: 105 105 105
Width: 1233
Flags: W
Fore
221 1120 m 1,0,-1
 801 1120 l 1,1,-1
 801 225 l 1,2,-1
 1165 225 l 1,3,-1
 1165 0 l 1,4,-1
 143 0 l 1,5,-1
 143 225 l 1,6,-1
 508 225 l 1,7,-1
 508 895 l 1,8,-1
 221 895 l 1,9,-1
 221 1120 l 1,0,-1
508 1665 m 1,10,-1
 801 1665 l 1,11,-1
 801 1323 l 1,12,-1
 508 1323 l 1,13,-1
 508 1665 l 1,10,-1
EndSplineSet
EndChar
StartChar: j
Encoding: 106 106 106
Width: 1233
Flags: W
Fore
850 43 m 2,0,1
 850 -209 850 -209 759.5 -316.5 c 128,-1,2
 669 -424 669 -424 459 -424 c 2,3,-1
 143 -424 l 1,4,-1
 143 -199 l 1,5,-1
 377 -199 l 2,6,7
 475 -199 475 -199 516 -144 c 128,-1,8
 557 -89 557 -89 557 43 c 2,9,-1
 557 895 l 1,10,-1
 260 895 l 1,11,-1
 260 1120 l 1,12,-1
 850 1120 l 1,13,-1
 850 43 l 2,0,1
850 1323 m 1,14,-1
 557 1323 l 1,15,-1
 557 1665 l 1,16,-1
 850 1665 l 1,17,-1
 850 1323 l 1,14,-1
EndSplineSet
EndChar
StartChar: k
Encoding: 107 107 107
Width: 1233
Flags: W
Fore
174 1556 m 1,0,-1
 467 1556 l 1,1,-1
 467 739 l 1,2,-1
 819 1120 l 1,3,-1
 1174 1120 l 1,4,-1
 750 702 l 1,5,-1
 1198 0 l 1,6,-1
 874 0 l 1,7,-1
 567 524 l 1,8,-1
 467 428 l 1,9,-1
 467 0 l 1,10,-1
 174 0 l 1,11,-1
 174 1556 l 1,0,-1
EndSplineSet
EndChar
StartChar: l
Encoding: 108 108 108
Width: 1233
Flags: W
Fore
387 467 m 2,0,-1
 387 1331 l 1,1,-1
 90 1331 l 1,2,-1
 90 1556 l 1,3,-1
 680 1556 l 1,4,-1
 680 467 l 2,5,6
 680 335 680 335 721 280 c 128,-1,7
 762 225 762 225 860 225 c 2,8,-1
 1094 225 l 1,9,-1
 1094 0 l 1,10,-1
 778 0 l 2,11,12
 569 0 569 0 478 108 c 128,-1,13
 387 216 387 216 387 467 c 2,0,-1
EndSplineSet
EndChar
StartChar: m
Encoding: 109 109 109
Width: 1233
Flags: W
Fore
690 1008 m 1,0,1
 723 1079 723 1079 774 1113 c 128,-1,2
 825 1147 825 1147 899 1147 c 0,3,4
 1044 1147 1044 1147 1099.5 1047 c 128,-1,5
 1155 947 1155 947 1155 631 c 2,6,-1
 1155 0 l 1,7,-1
 915 0 l 1,8,-1
 915 719 l 2,9,10
 915 844 915 844 896 886 c 128,-1,11
 877 928 877 928 827 928 c 0,12,13
 777 928 777 928 757 885 c 128,-1,14
 737 842 737 842 737 719 c 2,15,-1
 737 0 l 1,16,-1
 500 0 l 1,17,-1
 500 719 l 2,18,19
 500 842 500 842 480 885 c 128,-1,20
 460 928 460 928 410 928 c 0,21,22
 360 928 360 928 341 886 c 128,-1,23
 322 844 322 844 322 719 c 2,24,-1
 322 0 l 1,25,-1
 82 0 l 1,26,-1
 82 1120 l 1,27,-1
 295 1120 l 1,28,-1
 295 1004 l 1,29,30
 320 1070 320 1070 375 1108.5 c 128,-1,31
 430 1147 430 1147 498 1147 c 0,32,33
 566 1147 566 1147 622 1106.5 c 128,-1,34
 678 1066 678 1066 690 1008 c 1,0,1
EndSplineSet
EndChar
StartChar: n
Encoding: 110 110 110
Width: 1233
Flags: W
Fore
1071 727 m 2,0,-1
 1071 0 l 1,1,-1
 780 0 l 1,2,-1
 780 682 l 2,3,4
 780 804 780 804 745.5 856.5 c 128,-1,5
 711 909 711 909 633 909 c 0,6,7
 554 909 554 909 508.5 838 c 128,-1,8
 463 767 463 767 463 641 c 2,9,-1
 463 0 l 1,10,-1
 172 0 l 1,11,-1
 172 1120 l 1,12,-1
 463 1120 l 1,13,-1
 463 952 l 1,14,15
 494 1045 494 1045 569 1096 c 128,-1,16
 644 1147 644 1147 750 1147 c 0,17,18
 909 1147 909 1147 990 1041.5 c 128,-1,19
 1071 936 1071 936 1071 727 c 2,0,-1
EndSplineSet
EndChar
StartChar: o
Encoding: 111 111 111
Width: 1233
Flags: W
Fore
616 909 m 0,0,1
 511 909 511 909 451 816.5 c 128,-1,2
 391 724 391 724 391 559 c 0,3,4
 391 394 391 394 451 301.5 c 128,-1,5
 511 209 511 209 616 209 c 0,6,7
 722 209 722 209 782 301.5 c 128,-1,8
 842 394 842 394 842 559 c 0,9,10
 842 724 842 724 782 816.5 c 128,-1,11
 722 909 722 909 616 909 c 0,0,1
98 559 m 0,12,13
 98 830 98 830 238.5 988.5 c 128,-1,14
 379 1147 379 1147 616 1147 c 0,15,16
 854 1147 854 1147 994.5 988.5 c 128,-1,17
 1135 830 1135 830 1135 559 c 0,18,19
 1135 288 1135 288 994.5 129.5 c 128,-1,20
 854 -29 854 -29 616 -29 c 0,21,22
 379 -29 379 -29 238.5 129.5 c 128,-1,23
 98 288 98 288 98 559 c 0,12,13
EndSplineSet
EndChar
StartChar: p
Encoding: 112 112 112
Width: 1233
Flags: W
Fore
442 158 m 1,0,-1
 442 -426 l 1,1,-1
 150 -426 l 1,2,-1
 150 1120 l 1,3,-1
 442 1120 l 1,4,-1
 442 952 l 1,5,6
 488 1049 488 1049 563 1098 c 128,-1,7
 638 1147 638 1147 739 1147 c 0,8,9
 931 1147 931 1147 1037 993 c 128,-1,10
 1143 839 1143 839 1143 559 c 0,11,12
 1143 275 1143 275 1035.5 123 c 128,-1,13
 928 -29 928 -29 729 -29 c 0,14,15
 639 -29 639 -29 567.5 17.5 c 128,-1,16
 496 64 496 64 442 158 c 1,0,-1
850 561 m 0,17,18
 850 723 850 723 796 815 c 128,-1,19
 742 907 742 907 647 907 c 0,20,21
 552 907 552 907 497 815 c 128,-1,22
 442 723 442 723 442 561 c 0,23,24
 442 399 442 399 497 307 c 128,-1,25
 552 215 552 215 647 215 c 0,26,27
 742 215 742 215 796 307 c 128,-1,28
 850 399 850 399 850 561 c 0,17,18
EndSplineSet
EndChar
StartChar: q
Encoding: 113 113 113
Width: 1233
Flags: W
Fore
383 561 m 0,0,1
 383 399 383 399 437 307 c 128,-1,2
 491 215 491 215 586 215 c 0,3,4
 681 215 681 215 736 307 c 128,-1,5
 791 399 791 399 791 561 c 0,6,7
 791 723 791 723 736 815 c 128,-1,8
 681 907 681 907 586 907 c 0,9,10
 491 907 491 907 437 815 c 128,-1,11
 383 723 383 723 383 561 c 0,0,1
791 158 m 1,12,13
 737 64 737 64 665.5 17.5 c 128,-1,14
 594 -29 594 -29 504 -29 c 0,15,16
 305 -29 305 -29 197.5 123 c 128,-1,17
 90 275 90 275 90 559 c 0,18,19
 90 839 90 839 196 993 c 128,-1,20
 302 1147 302 1147 494 1147 c 0,21,22
 595 1147 595 1147 669.5 1098 c 128,-1,23
 744 1049 744 1049 791 952 c 1,24,-1
 791 1120 l 1,25,-1
 1083 1120 l 1,26,-1
 1083 -426 l 1,27,-1
 791 -426 l 1,28,-1
 791 158 l 1,12,13
EndSplineSet
EndChar
StartChar: r
Encoding: 114 114 114
Width: 1233
Flags: W
Fore
1151 811 m 1,0,1
 1103 855 1103 855 1038.5 877 c 128,-1,2
 974 899 974 899 897 899 c 0,3,4
 804 899 804 899 734.5 866.5 c 128,-1,5
 665 834 665 834 627 772 c 0,6,7
 603 734 603 734 593.5 680 c 128,-1,8
 584 626 584 626 584 516 c 2,9,-1
 584 0 l 1,10,-1
 291 0 l 1,11,-1
 291 1120 l 1,12,-1
 584 1120 l 1,13,-1
 584 946 l 1,14,15
 627 1042 627 1042 716 1094.5 c 128,-1,16
 805 1147 805 1147 924 1147 c 0,17,18
 984 1147 984 1147 1041.5 1132.5 c 128,-1,19
 1099 1118 1099 1118 1151 1090 c 1,20,-1
 1151 811 l 1,0,1
EndSplineSet
EndChar
StartChar: s
Encoding: 115 115 115
Width: 1233
Flags: W
Fore
991 1085 m 1,0,-1
 991 829 l 1,1,2
 910 881 910 881 822.5 907.5 c 128,-1,3
 735 934 735 934 647 934 c 0,4,5
 549 934 549 934 499 905.5 c 128,-1,6
 449 877 449 877 449 821 c 0,7,8
 449 741 449 741 663 691 c 2,9,-1
 674 688 l 1,10,-1
 758 668 l 2,11,12
 918 630 918 630 992.5 545.5 c 128,-1,13
 1067 461 1067 461 1067 317 c 0,14,15
 1067 144 1067 144 953.5 57.5 c 128,-1,16
 840 -29 840 -29 612 -29 c 0,17,18
 511 -29 511 -29 405 -11.5 c 128,-1,19
 299 6 299 6 190 41 c 1,20,-1
 190 297 l 1,21,22
 287 242 287 242 387.5 213 c 128,-1,23
 488 184 488 184 582 184 c 0,24,25
 685 184 685 184 738 214 c 128,-1,26
 791 244 791 244 791 301 c 0,27,28
 791 357 791 357 753.5 387 c 128,-1,29
 716 417 716 417 575 451 c 2,30,-1
 494 469 l 2,31,32
 326 507 326 507 249 588 c 128,-1,33
 172 669 172 669 172 805 c 0,34,35
 172 967 172 967 289 1057 c 128,-1,36
 406 1147 406 1147 618 1147 c 0,37,38
 713 1147 713 1147 807.5 1131.5 c 128,-1,39
 902 1116 902 1116 991 1085 c 1,0,-1
EndSplineSet
EndChar
StartChar: t
Encoding: 116 116 116
Width: 1233
Flags: W
Fore
690 1438 m 1,0,-1
 690 1120 l 1,1,-1
 1073 1120 l 1,2,-1
 1073 895 l 1,3,-1
 690 895 l 1,4,-1
 690 365 l 2,5,6
 690 290 690 290 726.5 257.5 c 128,-1,7
 763 225 763 225 848 225 c 2,8,-1
 1073 225 l 1,9,-1
 1073 0 l 1,10,-1
 827 0 l 2,11,12
 575 0 575 0 486 80.5 c 128,-1,13
 397 161 397 161 397 379 c 2,14,-1
 397 895 l 1,15,-1
 111 895 l 1,16,-1
 111 1120 l 1,17,-1
 397 1120 l 1,18,-1
 397 1438 l 1,19,-1
 690 1438 l 1,0,-1
EndSplineSet
EndChar
StartChar: u
Encoding: 117 117 117
Width: 1233
Flags: W
Fore
160 391 m 2,0,-1
 160 1120 l 1,1,-1
 453 1120 l 1,2,-1
 453 436 l 2,3,4
 453 315 453 315 487 263 c 128,-1,5
 521 211 521 211 600 211 c 0,6,7
 679 211 679 211 723.5 281 c 128,-1,8
 768 351 768 351 768 477 c 2,9,-1
 768 1120 l 1,10,-1
 1061 1120 l 1,11,-1
 1061 0 l 1,12,-1
 768 0 l 1,13,-1
 768 166 l 1,14,15
 737 73 737 73 662.5 22 c 128,-1,16
 588 -29 588 -29 483 -29 c 0,17,18
 323 -29 323 -29 241.5 77 c 128,-1,19
 160 183 160 183 160 391 c 2,0,-1
EndSplineSet
EndChar
StartChar: v
Encoding: 118 118 118
Width: 1233
Flags: W
Fore
1153 1120 m 1,0,-1
 797 0 l 1,1,-1
 436 0 l 1,2,-1
 80 1120 l 1,3,-1
 377 1120 l 1,4,-1
 616 246 l 1,5,-1
 856 1120 l 1,6,-1
 1153 1120 l 1,0,-1
EndSplineSet
EndChar
StartChar: w
Encoding: 119 119 119
Width: 1233
Flags: W
Fore
0 1120 m 1,0,-1
 244 1120 l 1,1,-1
 377 262 l 1,2,-1
 498 827 l 1,3,-1
 735 827 l 1,4,-1
 854 262 l 1,5,-1
 989 1120 l 1,6,-1
 1233 1120 l 1,7,-1
 1030 0 l 1,8,-1
 752 0 l 1,9,-1
 616 582 l 1,10,-1
 481 0 l 1,11,-1
 203 0 l 1,12,-1
 0 1120 l 1,0,-1
EndSplineSet
EndChar
StartChar: x
Encoding: 120 120 120
Width: 1233
Flags: W
Fore
1145 1120 m 1,0,-1
 768 584 l 1,1,-1
 1178 0 l 1,2,-1
 836 0 l 1,3,-1
 616 377 l 1,4,-1
 397 0 l 1,5,-1
 55 0 l 1,6,-1
 469 584 l 1,7,-1
 88 1120 l 1,8,-1
 430 1120 l 1,9,-1
 616 786 l 1,10,-1
 803 1120 l 1,11,-1
 1145 1120 l 1,0,-1
EndSplineSet
EndChar
StartChar: y
Encoding: 121 121 121
Width: 1233
Flags: W
Fore
711 -121 m 2,0,1
 652 -279 652 -279 569.5 -351.5 c 128,-1,2
 487 -424 487 -424 369 -424 c 2,3,-1
 127 -424 l 1,4,-1
 127 -201 l 1,5,-1
 246 -201 l 2,6,7
 336 -201 336 -201 378 -170.5 c 128,-1,8
 420 -140 420 -140 463 -29 c 1,9,-1
 485 31 l 1,10,-1
 59 1120 l 1,11,-1
 367 1120 l 1,12,-1
 623 393 l 1,13,-1
 868 1120 l 1,14,-1
 1176 1120 l 1,15,-1
 711 -121 l 2,0,1
EndSplineSet
EndChar
StartChar: z
Encoding: 122 122 122
Width: 1233
Flags: W
Fore
186 1120 m 1,0,-1
 1081 1120 l 1,1,-1
 1081 891 l 1,2,-1
 492 219 l 1,3,-1
 1081 219 l 1,4,-1
 1081 0 l 1,5,-1
 162 0 l 1,6,-1
 162 229 l 1,7,-1
 752 901 l 1,8,-1
 186 901 l 1,9,-1
 186 1120 l 1,0,-1
EndSplineSet
EndChar
StartChar: braceleft
Encoding: 123 123 123
Width: 1233
Flags: W
Fore
1053 -143 m 1,0,-1
 1053 -334 l 1,1,-1
 903 -334 l 2,2,3
 654 -334 654 -334 569.5 -260 c 128,-1,4
 485 -186 485 -186 485 35 c 2,5,-1
 485 250 l 2,6,7
 485 401 485 401 431.5 458.5 c 128,-1,8
 378 516 378 516 238 516 c 2,9,-1
 176 516 l 1,10,-1
 176 707 l 1,11,-1
 238 707 l 2,12,13
 378 707 378 707 431.5 764 c 128,-1,14
 485 821 485 821 485 973 c 2,15,-1
 485 1188 l 2,16,17
 485 1409 485 1409 569.5 1482.5 c 128,-1,18
 654 1556 654 1556 903 1556 c 2,19,-1
 1053 1556 l 1,20,-1
 1053 1366 l 1,21,-1
 930 1366 l 2,22,23
 826 1366 826 1366 791 1324 c 128,-1,24
 756 1282 756 1282 756 1139 c 2,25,-1
 756 930 l 2,26,27
 756 765 756 765 707 698 c 128,-1,28
 658 631 658 631 532 612 c 1,29,30
 658 591 658 591 707 523 c 128,-1,31
 756 455 756 455 756 291 c 2,32,-1
 756 86 l 2,33,34
 756 -58 756 -58 791 -100.5 c 128,-1,35
 826 -143 826 -143 930 -143 c 2,36,-1
 1053 -143 l 1,0,-1
EndSplineSet
EndChar
StartChar: bar
Encoding: 124 124 124
Width: 1233
Flags: W
Fore
729 1565 m 1,0,-1
 729 -483 l 1,1,-1
 502 -483 l 1,2,-1
 502 1565 l 1,3,-1
 729 1565 l 1,0,-1
EndSplineSet
EndChar
StartChar: braceright
Encoding: 125 125 125
Width: 1233
Flags: W
Fore
180 -143 m 1,0,-1
 301 -143 l 2,1,2
 405 -143 405 -143 441 -100 c 128,-1,3
 477 -57 477 -57 477 86 c 2,4,-1
 477 291 l 2,5,6
 477 455 477 455 526 523 c 128,-1,7
 575 591 575 591 700 612 c 1,8,9
 574 631 574 631 525.5 698 c 128,-1,10
 477 765 477 765 477 930 c 2,11,-1
 477 1139 l 2,12,13
 477 1280 477 1280 441.5 1323 c 128,-1,14
 406 1366 406 1366 301 1366 c 2,15,-1
 180 1366 l 1,16,-1
 180 1556 l 1,17,-1
 330 1556 l 2,18,19
 578 1556 578 1556 661.5 1482.5 c 128,-1,20
 745 1409 745 1409 745 1188 c 2,21,-1
 745 973 l 2,22,23
 745 822 745 822 799.5 764.5 c 128,-1,24
 854 707 854 707 995 707 c 2,25,-1
 1057 707 l 1,26,-1
 1057 516 l 1,27,-1
 995 516 l 2,28,29
 854 516 854 516 799.5 458 c 128,-1,30
 745 400 745 400 745 250 c 2,31,-1
 745 35 l 2,32,33
 745 -186 745 -186 661.5 -260 c 128,-1,34
 578 -334 578 -334 330 -334 c 2,35,-1
 180 -334 l 1,36,-1
 180 -143 l 1,0,-1
EndSplineSet
EndChar
StartChar: asciitilde
Encoding: 126 126 126
Width: 1233
Flags: W
Fore
1145 811 m 1,0,-1
 1145 578 l 1,1,2
 1070 518 1070 518 998.5 490.5 c 128,-1,3
 927 463 927 463 848 463 c 0,4,5
 758 463 758 463 645 514 c 0,6,7
 623 524 623 524 612 528 c 0,8,9
 535 562 535 562 483.5 574 c 128,-1,10
 432 586 432 586 381 586 c 0,11,12
 303 586 303 586 232.5 557 c 128,-1,13
 162 528 162 528 88 465 c 1,14,-1
 88 694 l 1,15,16
 166 755 166 755 239 782 c 128,-1,17
 312 809 312 809 395 809 c 0,18,19
 448 809 448 809 498 798 c 128,-1,20
 548 787 548 787 622 756 c 0,21,22
 633 751 633 751 655 741 c 0,23,24
 771 686 771 686 864 686 c 0,25,26
 934 686 934 686 1003 716.5 c 128,-1,27
 1072 747 1072 747 1145 811 c 1,0,-1
EndSplineSet
EndChar
StartChar: exclamdown
Encoding: 161 161 161
Width: 1233
Flags: W
Fore
750 1210 m 1,0,-1
 483 1210 l 1,1,-1
 483 1493 l 1,2,-1
 750 1493 l 1,3,-1
 750 1210 l 1,0,-1
750 0 m 1,4,-1
 483 0 l 1,5,-1
 483 655 l 1,6,-1
 516 1012 l 1,7,-1
 715 1012 l 1,8,-1
 750 655 l 1,9,-1
 750 0 l 1,4,-1
EndSplineSet
EndChar
StartChar: cent
Encoding: 162 162 162
Width: 1233
Flags: W
Fore
1036 1077 m 1,0,-1
 1036 809 l 1,1,2
 980 851 980 851 920 875.5 c 128,-1,3
 860 900 860 900 797 907 c 1,4,-1
 797 215 l 1,5,6
 861 220 861 220 920.5 244 c 128,-1,7
 980 268 980 268 1036 311 c 1,8,-1
 1036 43 l 1,9,10
 984 14 984 14 924 -3 c 128,-1,11
 864 -20 864 -20 797 -25 c 1,12,-1
 797 -313 l 1,13,-1
 655 -313 l 1,14,-1
 655 -25 l 1,15,16
 420 -3 420 -3 283.5 154 c 128,-1,17
 147 311 147 311 147 561 c 0,18,19
 147 816 147 816 283.5 972.5 c 128,-1,20
 420 1129 420 1129 655 1145 c 1,21,-1
 655 1432 l 1,22,-1
 797 1432 l 1,23,-1
 797 1145 l 1,24,25
 858 1140 858 1140 916.5 1123.5 c 128,-1,26
 975 1107 975 1107 1036 1077 c 1,0,-1
655 215 m 1,27,-1
 655 907 l 1,28,29
 541 893 541 893 479.5 803.5 c 128,-1,30
 418 714 418 714 418 561 c 0,31,32
 418 406 418 406 481 313.5 c 128,-1,33
 544 221 544 221 655 215 c 1,27,-1
EndSplineSet
EndChar
StartChar: sterling
Encoding: 163 163 163
Width: 1233
Flags: W
Fore
1102 1462 m 1,0,-1
 1102 1188 l 1,1,2
 1045 1229 1045 1229 980 1250.5 c 128,-1,3
 915 1272 915 1272 846 1272 c 0,4,5
 740 1272 740 1272 690.5 1205.5 c 128,-1,6
 641 1139 641 1139 641 995 c 2,7,-1
 641 819 l 1,8,-1
 977 819 l 1,9,-1
 977 594 l 1,10,-1
 641 594 l 1,11,-1
 641 260 l 1,12,-1
 1122 260 l 1,13,-1
 1122 0 l 1,14,-1
 119 0 l 1,15,-1
 119 260 l 1,16,-1
 354 260 l 1,17,-1
 354 594 l 1,18,-1
 156 594 l 1,19,-1
 156 819 l 1,20,-1
 354 819 l 1,21,-1
 354 1016 l 2,22,23
 354 1272 354 1272 466.5 1396 c 128,-1,24
 579 1520 579 1520 811 1520 c 0,25,26
 894 1520 894 1520 965 1505.5 c 128,-1,27
 1036 1491 1036 1491 1102 1462 c 1,0,-1
EndSplineSet
EndChar
StartChar: currency
Encoding: 164 164 164
Width: 1233
Flags: W
Fore
827 643 m 0,0,1
 827 716 827 716 777 765.5 c 128,-1,2
 727 815 727 815 653 815 c 0,3,4
 580 815 580 815 529.5 765.5 c 128,-1,5
 479 716 479 716 479 643 c 0,6,7
 479 569 479 569 529.5 518 c 128,-1,8
 580 467 580 467 653 467 c 0,9,10
 727 467 727 467 777 518 c 128,-1,11
 827 569 827 569 827 643 c 0,0,1
819 938 m 1,12,-1
 991 1108 l 1,13,-1
 1118 979 l 1,14,-1
 948 809 l 1,15,16
 971 768 971 768 982 726.5 c 128,-1,17
 993 685 993 685 993 641 c 0,18,19
 993 594 993 594 981.5 553.5 c 128,-1,20
 970 513 970 513 946 477 c 1,21,-1
 1118 307 l 1,22,-1
 987 176 l 1,23,-1
 817 348 l 1,24,25
 781 324 781 324 741 312.5 c 128,-1,26
 701 301 701 301 653 301 c 0,27,28
 614 301 614 301 572 311.5 c 128,-1,29
 530 322 530 322 485 344 c 1,30,-1
 315 176 l 1,31,-1
 186 305 l 1,32,-1
 356 475 l 1,33,34
 334 517 334 517 322.5 558.5 c 128,-1,35
 311 600 311 600 311 641 c 0,36,37
 311 688 311 688 322.5 728.5 c 128,-1,38
 334 769 334 769 358 807 c 1,39,-1
 186 977 l 1,40,-1
 317 1108 l 1,41,-1
 483 936 l 1,42,43
 524 960 524 960 565.5 971.5 c 128,-1,44
 607 983 607 983 653 983 c 0,45,46
 692 983 692 983 732.5 972 c 128,-1,47
 773 961 773 961 819 938 c 1,12,-1
EndSplineSet
EndChar
StartChar: yen
Encoding: 165 165 165
Width: 1233
Flags: W
Fore
8 1493 m 1,0,-1
 326 1493 l 1,1,-1
 616 893 l 1,2,-1
 907 1493 l 1,3,-1
 1225 1493 l 1,4,-1
 952 965 l 1,5,-1
 1176 965 l 1,6,-1
 1176 778 l 1,7,-1
 854 778 l 1,8,-1
 768 627 l 1,9,-1
 1176 627 l 1,10,-1
 1176 438 l 1,11,-1
 764 438 l 1,12,-1
 764 0 l 1,13,-1
 469 0 l 1,14,-1
 469 438 l 1,15,-1
 57 438 l 1,16,-1
 57 627 l 1,17,-1
 465 627 l 1,18,-1
 379 778 l 1,19,-1
 57 778 l 1,20,-1
 57 965 l 1,21,-1
 281 965 l 1,22,-1
 8 1493 l 1,0,-1
EndSplineSet
EndChar
StartChar: brokenbar
Encoding: 166 166 166
Width: 1233
Flags: W
Fore
729 408 m 1,0,-1
 729 -350 l 1,1,-1
 502 -350 l 1,2,-1
 502 408 l 1,3,-1
 729 408 l 1,0,-1
729 1432 m 1,4,-1
 729 674 l 1,5,-1
 502 674 l 1,6,-1
 502 1432 l 1,7,-1
 729 1432 l 1,4,-1
EndSplineSet
EndChar
StartChar: section
Encoding: 167 167 167
Width: 1233
Flags: W
Fore
518 856 m 1,0,1
 463 820 463 820 438.5 785.5 c 128,-1,2
 414 751 414 751 414 711 c 0,3,4
 414 657 414 657 462.5 613 c 128,-1,5
 511 569 511 569 711 473 c 1,6,7
 766 509 766 509 790.5 543.5 c 128,-1,8
 815 578 815 578 815 621 c 0,9,10
 815 702 815 702 550 840 c 2,11,-1
 518 856 l 1,0,1
930 1460 m 1,12,-1
 930 1235 l 1,13,14
 845 1265 845 1265 779 1279.5 c 128,-1,15
 713 1294 713 1294 659 1294 c 0,16,17
 583 1294 583 1294 540.5 1265 c 128,-1,18
 498 1236 498 1236 498 1184 c 0,19,20
 498 1109 498 1109 701 1004 c 0,21,22
 720 994 720 994 729 989 c 0,23,24
 943 879 943 879 1002 808.5 c 128,-1,25
 1061 738 1061 738 1061 637 c 0,26,27
 1061 548 1061 548 1013.5 484 c 128,-1,28
 966 420 966 420 864 373 c 1,29,30
 934 323 934 323 966.5 261.5 c 128,-1,31
 999 200 999 200 999 119 c 0,32,33
 999 -28 999 -28 894.5 -111.5 c 128,-1,34
 790 -195 790 -195 604 -195 c 0,35,36
 515 -195 515 -195 429 -180.5 c 128,-1,37
 343 -166 343 -166 258 -137 c 1,38,-1
 258 92 l 1,39,40
 343 62 343 62 424 46.5 c 128,-1,41
 505 31 505 31 578 31 c 0,42,43
 655 31 655 31 696 59.5 c 128,-1,44
 737 88 737 88 737 141 c 0,45,46
 737 211 737 211 523 326 c 2,47,-1
 512 332 l 1,48,-1
 486 346 l 2,49,50
 170 516 170 516 170 688 c 0,51,52
 170 782 170 782 222 851.5 c 128,-1,53
 274 921 274 921 371 954 c 1,54,55
 300 1004 300 1004 268 1064 c 128,-1,56
 236 1124 236 1124 236 1206 c 0,57,58
 236 1348 236 1348 340 1434 c 128,-1,59
 444 1520 444 1520 616 1520 c 0,60,61
 690 1520 690 1520 768.5 1505 c 128,-1,62
 847 1490 847 1490 930 1460 c 1,12,-1
EndSplineSet
EndChar
StartChar: dieresis
Encoding: 168 168 168
Width: 1233
Flags: W
Fore
696 1585 m 1,0,-1
 932 1585 l 1,1,-1
 932 1339 l 1,2,-1
 696 1339 l 1,3,-1
 696 1585 l 1,0,-1
301 1585 m 1,4,-1
 537 1585 l 1,5,-1
 537 1339 l 1,6,-1
 301 1339 l 1,7,-1
 301 1585 l 1,4,-1
EndSplineSet
Ligature: 0 0 'liga' space uni0308
EndChar
StartChar: copyright
Encoding: 169 169 169
Width: 1233
Flags: W
Fore
848 1049 m 1,0,-1
 848 881 l 1,1,2
 796 912 796 912 750.5 926 c 128,-1,3
 705 940 705 940 657 940 c 0,4,5
 560 940 560 940 506.5 888 c 128,-1,6
 453 836 453 836 453 741 c 0,7,8
 453 646 453 646 506 594.5 c 128,-1,9
 559 543 559 543 657 543 c 0,10,11
 710 543 710 543 758 557.5 c 128,-1,12
 806 572 806 572 848 602 c 1,13,-1
 848 434 l 1,14,15
 793 417 793 417 740 408 c 128,-1,16
 687 399 687 399 637 399 c 0,17,18
 468 399 468 399 367 492.5 c 128,-1,19
 266 586 266 586 266 741 c 0,20,21
 266 897 266 897 367 990 c 128,-1,22
 468 1083 468 1083 637 1083 c 0,23,24
 692 1083 692 1083 744.5 1074.5 c 128,-1,25
 797 1066 797 1066 848 1049 c 1,0,-1
616 1358 m 0,26,27
 743 1358 743 1358 852 1313 c 128,-1,28
 961 1268 961 1268 1051 1178 c 0,29,30
 1141 1087 1141 1087 1187 977 c 128,-1,31
 1233 867 1233 867 1233 741 c 0,32,33
 1233 616 1233 616 1187.5 507 c 128,-1,34
 1142 398 1142 398 1051 307 c 0,35,36
 960 216 960 216 851 170.5 c 128,-1,37
 742 125 742 125 616 125 c 0,38,39
 491 125 491 125 382 170.5 c 128,-1,40
 273 216 273 216 182 307 c 0,41,42
 91 398 91 398 45.5 507 c 128,-1,43
 0 616 0 616 0 741 c 0,44,45
 0 867 0 867 46 977 c 128,-1,46
 92 1087 92 1087 182 1178 c 0,47,48
 272 1268 272 1268 381 1313 c 128,-1,49
 490 1358 490 1358 616 1358 c 0,26,27
616 1229 m 0,50,51
 517 1229 517 1229 432 1193.5 c 128,-1,52
 347 1158 347 1158 274 1085 c 0,53,54
 203 1014 203 1014 167 928 c 128,-1,55
 131 842 131 842 131 741 c 0,56,57
 131 643 131 643 167 558 c 128,-1,58
 203 473 203 473 274 401 c 0,59,60
 345 329 345 329 431 292.5 c 128,-1,61
 517 256 517 256 616 256 c 0,62,63
 716 256 716 256 802 292.5 c 128,-1,64
 888 329 888 329 958 401 c 1,65,66
 1030 473 1030 473 1066 558 c 128,-1,67
 1102 643 1102 643 1102 741 c 0,68,69
 1102 842 1102 842 1066 928 c 128,-1,70
 1030 1014 1030 1014 958 1085 c 1,71,72
 886 1158 886 1158 801.5 1193.5 c 128,-1,73
 717 1229 717 1229 616 1229 c 0,50,51
EndSplineSet
EndChar
StartChar: ordfeminine
Encoding: 170 170 170
Width: 1233
Flags: W
Fore
786 1049 m 2,0,-1
 786 1079 l 1,1,-1
 684 1079 l 2,2,3
 575 1079 575 1079 525 1053 c 128,-1,4
 475 1027 475 1027 475 971 c 0,5,6
 475 922 475 922 505.5 894 c 128,-1,7
 536 866 536 866 590 866 c 0,8,9
 676 866 676 866 731 917.5 c 128,-1,10
 786 969 786 969 786 1049 c 2,0,-1
786 809 m 1,11,12
 736 752 736 752 675.5 725 c 128,-1,13
 615 698 615 698 537 698 c 0,14,15
 407 698 407 698 331.5 766.5 c 128,-1,16
 256 835 256 835 256 952 c 0,17,18
 256 1086 256 1086 348.5 1152.5 c 128,-1,19
 441 1219 441 1219 629 1219 c 2,20,-1
 786 1219 l 1,21,-1
 786 1245 l 2,22,23
 786 1294 786 1294 740.5 1318.5 c 128,-1,24
 695 1343 695 1343 604 1343 c 0,25,26
 522 1343 522 1343 450.5 1326.5 c 128,-1,27
 379 1310 379 1310 315 1276 c 1,28,-1
 315 1464 l 1,29,30
 388 1492 388 1492 462 1506 c 128,-1,31
 536 1520 536 1520 612 1520 c 0,32,33
 801 1520 801 1520 890 1434 c 128,-1,34
 979 1348 979 1348 979 1165 c 2,35,-1
 979 717 l 1,36,-1
 786 717 l 1,37,-1
 786 809 l 1,11,12
293 598 m 1,38,-1
 981 598 l 1,39,-1
 981 428 l 1,40,-1
 293 428 l 1,41,-1
 293 598 l 1,38,-1
EndSplineSet
EndChar
StartChar: guillemotleft
Encoding: 171 171 171
Width: 1233
Flags: W
Fore
1042 1059 m 1,0,-1
 1042 821 l 1,1,-1
 766 600 l 1,2,-1
 1042 379 l 1,3,-1
 1042 141 l 1,4,-1
 573 535 l 1,5,-1
 573 666 l 1,6,-1
 1042 1059 l 1,0,-1
588 1059 m 1,7,-1
 588 821 l 1,8,-1
 311 600 l 1,9,-1
 588 379 l 1,10,-1
 588 141 l 1,11,-1
 119 535 l 1,12,-1
 119 666 l 1,13,-1
 588 1059 l 1,7,-1
EndSplineSet
EndChar
StartChar: logicalnot
Encoding: 172 172 172
Width: 1233
Flags: W
Fore
88 899 m 1,0,-1
 1145 899 l 1,1,-1
 1145 362 l 1,2,-1
 907 362 l 1,3,-1
 907 662 l 1,4,-1
 88 662 l 1,5,-1
 88 899 l 1,0,-1
EndSplineSet
EndChar
StartChar: sfthyphen
Encoding: 173 173 173
Width: 1233
Flags: W
Fore
301 735 m 1,0,-1
 932 735 l 1,1,-1
 932 444 l 1,2,-1
 301 444 l 1,3,-1
 301 735 l 1,0,-1
EndSplineSet
EndChar
StartChar: registered
Encoding: 174 174 174
Width: 1233
Flags: W
Fore
616 1358 m 0,0,1
 743 1358 743 1358 852 1313 c 128,-1,2
 961 1268 961 1268 1051 1178 c 0,3,4
 1141 1087 1141 1087 1187 977 c 128,-1,5
 1233 867 1233 867 1233 741 c 0,6,7
 1233 616 1233 616 1187.5 507 c 128,-1,8
 1142 398 1142 398 1051 307 c 0,9,10
 960 216 960 216 851 170.5 c 128,-1,11
 742 125 742 125 616 125 c 0,12,13
 491 125 491 125 382 170.5 c 128,-1,14
 273 216 273 216 182 307 c 0,15,16
 91 398 91 398 45.5 507 c 128,-1,17
 0 616 0 616 0 741 c 0,18,19
 0 867 0 867 46 977 c 128,-1,20
 92 1087 92 1087 182 1178 c 0,21,22
 272 1268 272 1268 381 1313 c 128,-1,23
 490 1358 490 1358 616 1358 c 0,0,1
588 944 m 2,24,-1
 524 944 l 1,25,-1
 524 780 l 1,26,-1
 588 780 l 2,27,28
 645 780 645 780 673.5 800 c 128,-1,29
 702 820 702 820 702 860 c 0,30,31
 702 903 702 903 674 923.5 c 128,-1,32
 646 944 646 944 588 944 c 2,24,-1
606 1055 m 2,33,34
 739 1055 739 1055 803.5 1011 c 128,-1,35
 868 967 868 967 868 877 c 0,36,37
 868 812 868 812 829 769.5 c 128,-1,38
 790 727 790 727 719 715 c 1,39,40
 757 701 757 701 784.5 673 c 128,-1,41
 812 645 812 645 836 596 c 1,42,-1
 915 430 l 1,43,-1
 743 430 l 1,44,-1
 680 563 l 2,45,46
 653 621 653 621 624.5 644.5 c 128,-1,47
 596 668 596 668 555 670 c 2,48,-1
 524 670 l 1,49,-1
 524 430 l 1,50,-1
 360 430 l 1,51,-1
 360 1055 l 1,52,-1
 606 1055 l 2,33,34
616 1229 m 0,53,54
 517 1229 517 1229 432 1193.5 c 128,-1,55
 347 1158 347 1158 274 1085 c 0,56,57
 203 1014 203 1014 167 928 c 128,-1,58
 131 842 131 842 131 741 c 0,59,60
 131 643 131 643 167 558 c 128,-1,61
 203 473 203 473 274 399 c 1,62,63
 346 328 346 328 431.5 292 c 128,-1,64
 517 256 517 256 616 256 c 0,65,66
 715 256 715 256 801 292 c 128,-1,67
 887 328 887 328 958 399 c 0,68,69
 1030 473 1030 473 1066 558 c 128,-1,70
 1102 643 1102 643 1102 741 c 0,71,72
 1102 842 1102 842 1066 928 c 128,-1,73
 1030 1014 1030 1014 958 1085 c 1,74,75
 886 1158 886 1158 801.5 1193.5 c 128,-1,76
 717 1229 717 1229 616 1229 c 0,53,54
EndSplineSet
EndChar
StartChar: macron
Encoding: 175 175 175
Width: 1233
Flags: W
Fore
301 1556 m 1,0,-1
 932 1556 l 1,1,-1
 932 1368 l 1,2,-1
 301 1368 l 1,3,-1
 301 1556 l 1,0,-1
EndSplineSet
Ligature: 0 0 'liga' space uni0304
EndChar
StartChar: degree
Encoding: 176 176 176
Width: 1233
Flags: W
Fore
616 1520 m 0,0,1
 683 1520 683 1520 744 1494.5 c 128,-1,2
 805 1469 805 1469 852 1421 c 0,3,4
 899 1374 899 1374 923.5 1314 c 128,-1,5
 948 1254 948 1254 948 1186 c 0,6,7
 948 1120 948 1120 923 1059 c 128,-1,8
 898 998 898 998 852 952 c 0,9,10
 804 905 804 905 743 879.5 c 128,-1,11
 682 854 682 854 614 854 c 0,12,13
 473 854 473 854 378 949 c 128,-1,14
 283 1044 283 1044 283 1186 c 0,15,16
 283 1327 283 1327 379 1423.5 c 128,-1,17
 475 1520 475 1520 616 1520 c 0,0,1
616 1358 m 0,18,19
 544 1358 544 1358 494 1308 c 128,-1,20
 444 1258 444 1258 444 1186 c 0,21,22
 444 1114 444 1114 493 1065 c 128,-1,23
 542 1016 542 1016 614 1016 c 0,24,25
 686 1016 686 1016 736 1065.5 c 128,-1,26
 786 1115 786 1115 786 1186 c 0,27,28
 786 1258 786 1258 736.5 1308 c 128,-1,29
 687 1358 687 1358 616 1358 c 0,18,19
EndSplineSet
EndChar
StartChar: plusminus
Encoding: 177 177 177
Width: 1233
Flags: W
Fore
735 1284 m 1,0,-1
 735 930 l 1,1,-1
 1145 930 l 1,2,-1
 1145 694 l 1,3,-1
 735 694 l 1,4,-1
 735 340 l 1,5,-1
 498 340 l 1,6,-1
 498 694 l 1,7,-1
 88 694 l 1,8,-1
 88 930 l 1,9,-1
 498 930 l 1,10,-1
 498 1284 l 1,11,-1
 735 1284 l 1,0,-1
88 238 m 1,12,-1
 1145 238 l 1,13,-1
 1145 0 l 1,14,-1
 88 0 l 1,15,-1
 88 238 l 1,12,-1
EndSplineSet
EndChar
StartChar: twosuperior
Encoding: 178 178 178
Width: 1233
Flags: W
Fore
500 813 m 1,0,-1
 940 813 l 1,1,-1
 940 668 l 1,2,-1
 274 668 l 1,3,-1
 274 809 l 1,4,5
 325 852 325 852 415 927 c 0,6,7
 729 1189 729 1189 729 1268 c 0,8,9
 729 1320 729 1320 685.5 1350 c 128,-1,10
 642 1380 642 1380 567 1380 c 0,11,12
 511 1380 511 1380 443.5 1362.5 c 128,-1,13
 376 1345 376 1345 299 1311 c 1,14,-1
 299 1475 l 1,15,16
 374 1497 374 1497 445 1508.5 c 128,-1,17
 516 1520 516 1520 582 1520 c 0,18,19
 751 1520 751 1520 844.5 1457.5 c 128,-1,20
 938 1395 938 1395 938 1284 c 0,21,22
 938 1158 938 1158 583 878 c 0,23,24
 529 836 529 836 500 813 c 1,0,-1
EndSplineSet
EndChar
StartChar: threesuperior
Encoding: 179 179 179
Width: 1233
Flags: W
Fore
582 1042 m 2,0,-1
 471 1042 l 1,1,-1
 471 1188 l 1,2,-1
 582 1188 l 2,3,4
 656 1188 656 1188 698.5 1213 c 128,-1,5
 741 1238 741 1238 741 1282 c 0,6,7
 741 1327 741 1327 701.5 1352.5 c 128,-1,8
 662 1378 662 1378 592 1378 c 0,9,10
 523 1378 523 1378 454 1367 c 128,-1,11
 385 1356 385 1356 317 1333 c 1,12,-1
 317 1485 l 1,13,14
 386 1502 386 1502 455.5 1511 c 128,-1,15
 525 1520 525 1520 592 1520 c 0,16,17
 754 1520 754 1520 846 1462 c 128,-1,18
 938 1404 938 1404 938 1303 c 0,19,20
 938 1230 938 1230 885.5 1183 c 128,-1,21
 833 1136 833 1136 735 1120 c 1,22,23
 846 1105 846 1105 904.5 1049 c 128,-1,24
 963 993 963 993 963 901 c 0,25,26
 963 780 963 780 866.5 716.5 c 128,-1,27
 770 653 770 653 586 653 c 0,28,29
 511 653 511 653 436 663.5 c 128,-1,30
 361 674 361 674 287 694 c 1,31,-1
 287 848 l 1,32,33
 354 821 354 821 430 807 c 128,-1,34
 506 793 506 793 586 793 c 0,35,36
 671 793 671 793 718.5 825 c 128,-1,37
 766 857 766 857 766 913 c 0,38,39
 766 974 766 974 717 1008 c 128,-1,40
 668 1042 668 1042 582 1042 c 2,0,-1
EndSplineSet
EndChar
StartChar: acute
Encoding: 180 180 180
Width: 1233
Flags: W
Fore
752 1638 m 1,0,-1
 1034 1638 l 1,1,-1
 666 1262 l 1,2,-1
 469 1262 l 1,3,-1
 752 1638 l 1,0,-1
EndSplineSet
LCarets: 0 65535 '    ' 1 0 
Ligature: 0 0 'liga' space acutecomb
EndChar
StartChar: mu
Encoding: 181 181 181
Width: 1233
Flags: W
Fore
174 -428 m 1,0,-1
 174 1120 l 1,1,-1
 461 1120 l 1,2,-1
 461 440 l 2,3,4
 461 326 461 326 502 268.5 c 128,-1,5
 543 211 543 211 625 211 c 0,6,7
 706 211 706 211 746 268 c 128,-1,8
 786 325 786 325 786 440 c 2,9,-1
 786 1120 l 1,10,-1
 1075 1120 l 1,11,-1
 1075 344 l 2,12,13
 1075 273 1075 273 1088.5 242 c 128,-1,14
 1102 211 1102 211 1133 211 c 0,15,16
 1147 211 1147 211 1160 216.5 c 128,-1,17
 1173 222 1173 222 1188 233 c 1,18,-1
 1188 16 l 1,19,20
 1145 -7 1145 -7 1108 -18 c 128,-1,21
 1071 -29 1071 -29 1036 -29 c 0,22,23
 964 -29 964 -29 918.5 8.5 c 128,-1,24
 873 46 873 46 846 129 c 1,25,26
 809 51 809 51 754 11 c 128,-1,27
 699 -29 699 -29 629 -29 c 0,28,29
 570 -29 570 -29 528.5 -5.5 c 128,-1,30
 487 18 487 18 461 66 c 1,31,-1
 463 -428 l 1,32,-1
 174 -428 l 1,0,-1
EndSplineSet
EndChar
StartChar: paragraph
Encoding: 182 182 182
Width: 1233
Flags: W
Fore
545 1493 m 2,0,-1
 1065 1493 l 1,1,-1
 1065 -197 l 1,2,-1
 874 -197 l 1,3,-1
 874 1346 l 1,4,-1
 684 1346 l 1,5,-1
 684 -197 l 1,6,-1
 496 -197 l 1,7,-1
 496 649 l 1,8,9
 291 674 291 674 180.5 783.5 c 128,-1,10
 70 893 70 893 70 1071 c 0,11,12
 70 1261 70 1261 200 1377 c 128,-1,13
 330 1493 330 1493 545 1493 c 2,0,-1
EndSplineSet
EndChar
StartChar: periodcentered
Encoding: 183 183 183
Width: 1233
Flags: W
Fore
449 895 m 1,0,-1
 782 895 l 1,1,-1
 782 530 l 1,2,-1
 449 530 l 1,3,-1
 449 895 l 1,0,-1
EndSplineSet
EndChar
StartChar: cedilla
Encoding: 184 184 184
Width: 1233
Flags: W
Fore
707 0 m 1,0,1
 764 -62 764 -62 791.5 -115 c 128,-1,2
 819 -168 819 -168 819 -215 c 0,3,4
 819 -310 819 -310 757.5 -355.5 c 128,-1,5
 696 -401 696 -401 569 -401 c 0,6,7
 521 -401 521 -401 470.5 -394.5 c 128,-1,8
 420 -388 420 -388 367 -375 c 1,9,-1
 367 -219 l 1,10,11
 412 -236 412 -236 454 -245 c 128,-1,12
 496 -254 496 -254 532 -254 c 0,13,14
 590 -254 590 -254 622.5 -231 c 128,-1,15
 655 -208 655 -208 655 -168 c 0,16,17
 655 -142 655 -142 634 -101 c 128,-1,18
 613 -60 613 -60 567 0 c 1,19,-1
 707 0 l 1,0,1
EndSplineSet
Ligature: 0 0 'liga' space uni0327
EndChar
StartChar: onesuperior
Encoding: 185 185 185
Width: 1233
Flags: W
Fore
313 813 m 1,0,-1
 539 813 l 1,1,-1
 539 1356 l 1,2,-1
 319 1313 l 1,3,-1
 319 1462 l 1,4,-1
 541 1503 l 1,5,-1
 735 1503 l 1,6,-1
 735 813 l 1,7,-1
 961 813 l 1,8,-1
 961 668 l 1,9,-1
 313 668 l 1,10,-1
 313 813 l 1,0,-1
EndSplineSet
EndChar
StartChar: ordmasculine
Encoding: 186 186 186
Width: 1233
Flags: W
Fore
293 598 m 1,0,-1
 981 598 l 1,1,-1
 981 428 l 1,2,-1
 293 428 l 1,3,-1
 293 598 l 1,0,-1
274 1108 m 0,4,5
 274 1297 274 1297 372.5 1408.5 c 128,-1,6
 471 1520 471 1520 637 1520 c 0,7,8
 803 1520 803 1520 901 1409 c 128,-1,9
 999 1298 999 1298 999 1108 c 0,10,11
 999 919 999 919 901.5 808.5 c 128,-1,12
 804 698 804 698 637 698 c 0,13,14
 471 698 471 698 372.5 808.5 c 128,-1,15
 274 919 274 919 274 1108 c 0,4,5
637 1343 m 0,16,17
 564 1343 564 1343 521.5 1280 c 128,-1,18
 479 1217 479 1217 479 1108 c 0,19,20
 479 999 479 999 521.5 936.5 c 128,-1,21
 564 874 564 874 637 874 c 0,22,23
 710 874 710 874 752.5 936.5 c 128,-1,24
 795 999 795 999 795 1108 c 0,25,26
 795 1217 795 1217 752.5 1280 c 128,-1,27
 710 1343 710 1343 637 1343 c 0,16,17
EndSplineSet
EndChar
StartChar: guillemotright
Encoding: 187 187 187
Width: 1233
Flags: W
Fore
193 1059 m 1,0,-1
 662 666 l 1,1,-1
 662 535 l 1,2,-1
 193 141 l 1,3,-1
 193 379 l 1,4,-1
 469 600 l 1,5,-1
 193 821 l 1,6,-1
 193 1059 l 1,0,-1
647 1059 m 1,7,-1
 1116 666 l 1,8,-1
 1116 535 l 1,9,-1
 647 141 l 1,10,-1
 647 379 l 1,11,-1
 924 600 l 1,12,-1
 647 821 l 1,13,-1
 647 1059 l 1,7,-1
EndSplineSet
EndChar
StartChar: questiondown
Encoding: 191 191 191
Width: 1233
Flags: W
Fore
799 1210 m 1,0,-1
 532 1210 l 1,1,-1
 532 1493 l 1,2,-1
 799 1493 l 1,3,-1
 799 1210 l 1,0,-1
532 1092 m 1,4,-1
 799 1092 l 1,5,-1
 799 938 l 2,6,7
 799 839 799 839 768 768.5 c 128,-1,8
 737 698 737 698 657 621 c 1,9,-1
 567 532 l 2,10,11
 506 473 506 473 483.5 432.5 c 128,-1,12
 461 392 461 392 461 348 c 0,13,14
 461 281 461 281 507 247 c 128,-1,15
 553 213 553 213 645 213 c 0,16,17
 728 213 728 213 818.5 248.5 c 128,-1,18
 909 284 909 284 1006 354 c 1,19,-1
 1006 86 l 1,20,21
 908 30 908 30 807.5 1.5 c 128,-1,22
 707 -27 707 -27 606 -27 c 0,23,24
 405 -27 405 -27 290.5 67 c 128,-1,25
 176 161 176 161 176 326 c 0,26,27
 176 402 176 402 210 467.5 c 128,-1,28
 244 533 244 533 338 625 c 2,29,-1
 426 711 l 2,30,31
 492 775 492 775 511 817 c 128,-1,32
 530 859 530 859 530 922 c 0,33,34
 530 923 530 923 531 928 c 0,35,36
 532 949 532 949 532 969 c 2,37,-1
 532 1092 l 1,4,-1
EndSplineSet
EndChar
StartChar: Aring
Encoding: 197 197 197
Width: 1233
Flags: W
Fore
815 1421 m 1,0,-1
 1200 0 l 1,1,-1
 905 0 l 1,2,-1
 813 369 l 1,3,-1
 418 369 l 1,4,-1
 328 0 l 1,5,-1
 33 0 l 1,6,-1
 418 1421 l 1,7,8
 374 1458 374 1458 353 1506.5 c 128,-1,9
 332 1555 332 1555 332 1616 c 0,10,11
 332 1733 332 1733 415.5 1817 c 128,-1,12
 499 1901 499 1901 616 1901 c 0,13,14
 734 1901 734 1901 817.5 1817 c 128,-1,15
 901 1733 901 1733 901 1616 c 0,16,17
 901 1554 901 1554 880 1506.5 c 128,-1,18
 859 1459 859 1459 815 1421 c 1,0,-1
485 1616 m 0,19,20
 485 1562 485 1562 524 1523.5 c 128,-1,21
 563 1485 563 1485 616 1485 c 0,22,23
 671 1485 671 1485 709.5 1523.5 c 128,-1,24
 748 1562 748 1562 748 1616 c 0,25,26
 748 1670 748 1670 709 1708.5 c 128,-1,27
 670 1747 670 1747 616 1747 c 0,28,29
 563 1747 563 1747 524 1708.5 c 128,-1,30
 485 1670 485 1670 485 1616 c 0,19,20
616 1223 m 1,31,-1
 477 612 l 1,32,-1
 756 612 l 1,33,-1
 616 1223 l 1,31,-1
EndSplineSet
LCarets: 0 65535 '    ' 1 0 
Ligature: 0 1 'liga' A uni030A
EndChar
StartChar: AE
Encoding: 198 198 198
Width: 1233
Flags: W
Fore
1161 1493 m 1,0,-1
 1161 1233 l 1,1,-1
 870 1233 l 1,2,-1
 870 922 l 1,3,-1
 1130 922 l 1,4,-1
 1130 662 l 1,5,-1
 870 662 l 1,6,-1
 870 260 l 1,7,-1
 1180 260 l 1,8,-1
 1180 0 l 1,9,-1
 616 0 l 1,10,-1
 616 362 l 1,11,-1
 334 362 l 1,12,-1
 248 0 l 1,13,-1
 0 0 l 1,14,-1
 358 1493 l 1,15,-1
 1161 1493 l 1,0,-1
537 1233 m 1,16,-1
 389 598 l 1,17,-1
 616 598 l 1,18,-1
 616 1233 l 1,19,-1
 537 1233 l 1,16,-1
EndSplineSet
EndChar
StartChar: Eth
Encoding: 208 208 208
Width: 1233
Flags: W
Fore
432 1227 m 1,0,-1
 432 901 l 1,1,-1
 643 901 l 1,2,-1
 643 664 l 1,3,-1
 432 664 l 1,4,-1
 432 266 l 1,5,-1
 512 266 l 2,6,7
 686 266 686 266 760 375.5 c 128,-1,8
 834 485 834 485 834 748 c 0,9,10
 834 1009 834 1009 760 1118 c 128,-1,11
 686 1227 686 1227 512 1227 c 2,12,-1
 432 1227 l 1,0,-1
137 1493 m 1,13,-1
 453 1493 l 2,14,15
 819 1493 819 1493 980 1318.5 c 128,-1,16
 1141 1144 1141 1144 1141 748 c 0,17,18
 1141 351 1141 351 980 175.5 c 128,-1,19
 819 0 819 0 453 0 c 2,20,-1
 137 0 l 1,21,-1
 137 664 l 1,22,-1
 0 664 l 1,23,-1
 0 901 l 1,24,-1
 137 901 l 1,25,-1
 137 1493 l 1,13,-1
EndSplineSet
EndChar
StartChar: multiply
Encoding: 215 215 215
Width: 1233
Flags: W
Fore
1112 971 m 1,0,-1
 782 643 l 1,1,-1
 1112 313 l 1,2,-1
 944 147 l 1,3,-1
 614 475 l 1,4,-1
 287 147 l 1,5,-1
 119 313 l 1,6,-1
 449 643 l 1,7,-1
 119 971 l 1,8,-1
 287 1139 l 1,9,-1
 614 811 l 1,10,-1
 944 1139 l 1,11,-1
 1112 971 l 1,0,-1
EndSplineSet
EndChar
StartChar: Oslash
Encoding: 216 216 216
Width: 1233
Flags: W
Fore
451 354 m 1,0,1
 475 297 475 297 517.5 266.5 c 128,-1,2
 560 236 560 236 616 236 c 0,3,4
 730 236 730 236 782 356.5 c 128,-1,5
 834 477 834 477 834 745 c 0,6,7
 834 773 834 773 833 804 c 128,-1,8
 832 835 832 835 829 888 c 1,9,-1
 451 354 l 1,0,1
772 1153 m 1,10,11
 746 1204 746 1204 707 1229.5 c 128,-1,12
 668 1255 668 1255 616 1255 c 0,13,14
 504 1255 504 1255 451.5 1135 c 128,-1,15
 399 1015 399 1015 399 756 c 2,16,-1
 399 629 l 1,17,-1
 772 1153 l 1,10,11
162 289 m 1,18,19
 127 377 127 377 109.5 490.5 c 128,-1,20
 92 604 92 604 92 745 c 0,21,22
 92 1128 92 1128 224.5 1324 c 128,-1,23
 357 1520 357 1520 616 1520 c 0,24,25
 719 1520 719 1520 802 1489 c 128,-1,26
 885 1458 885 1458 946 1397 c 1,27,-1
 1059 1559 l 1,28,-1
 1221 1444 l 1,29,-1
 1063 1221 l 1,30,31
 1102 1127 1102 1127 1121.5 1007.5 c 128,-1,32
 1141 888 1141 888 1141 745 c 0,33,34
 1141 363 1141 363 1008.5 167 c 128,-1,35
 876 -29 876 -29 616 -29 c 0,36,37
 510 -29 510 -29 425 4.5 c 128,-1,38
 340 38 340 38 276 104 c 1,39,-1
 156 -63 l 1,40,-1
 -6 51 l 1,41,-1
 162 289 l 1,18,19
EndSplineSet
EndChar
StartChar: Thorn
Encoding: 222 222 222
Width: 1233
Flags: W
Fore
457 1014 m 1,0,-1
 457 575 l 1,1,-1
 578 575 l 2,2,3
 724 575 724 575 782 624 c 128,-1,4
 840 673 840 673 840 793 c 0,5,6
 840 914 840 914 781.5 964 c 128,-1,7
 723 1014 723 1014 578 1014 c 2,8,-1
 457 1014 l 1,0,-1
162 1493 m 1,9,-1
 457 1493 l 1,10,-1
 457 1255 l 1,11,-1
 567 1255 l 2,12,13
 876 1255 876 1255 1011.5 1145.5 c 128,-1,14
 1147 1036 1147 1036 1147 788 c 0,15,16
 1147 549 1147 549 1010 440.5 c 128,-1,17
 873 332 873 332 567 332 c 2,18,-1
 457 332 l 1,19,-1
 457 0 l 1,20,-1
 162 0 l 1,21,-1
 162 1493 l 1,9,-1
EndSplineSet
EndChar
StartChar: germandbls
Encoding: 223 223 223
Width: 1233
Flags: W
Fore
1034 1059 m 1,0,1
 909 1053 909 1053 844.5 1007.5 c 128,-1,2
 780 962 780 962 780 881 c 0,3,4
 780 817 780 817 896 728 c 0,5,6
 909 718 909 718 915 713 c 2,7,-1
 1012 639 l 2,8,9
 1094 577 1094 577 1134 500.5 c 128,-1,10
 1174 424 1174 424 1174 330 c 0,11,12
 1174 163 1174 163 1062 67 c 128,-1,13
 950 -29 950 -29 756 -29 c 0,14,15
 695 -29 695 -29 633 -16.5 c 128,-1,16
 571 -4 571 -4 504 20 c 1,17,-1
 504 270 l 1,18,19
 562 239 562 239 619.5 223 c 128,-1,20
 677 207 677 207 731 207 c 0,21,22
 804 207 804 207 846.5 240.5 c 128,-1,23
 889 274 889 274 889 332 c 0,24,25
 889 404 889 404 774 492 c 0,26,27
 745 514 745 514 729 526 c 2,28,-1
 643 594 l 2,29,30
 584 642 584 642 554 705.5 c 128,-1,31
 524 769 524 769 524 846 c 0,32,33
 524 972 524 972 598 1057.5 c 128,-1,34
 672 1143 672 1143 809 1174 c 1,35,36
 800 1248 800 1248 751 1284.5 c 128,-1,37
 702 1321 702 1321 610 1321 c 0,38,39
 516 1321 516 1321 468 1270.5 c 128,-1,40
 420 1220 420 1220 420 1122 c 2,41,-1
 420 0 l 1,42,-1
 127 0 l 1,43,-1
 127 1126 l 2,44,45
 127 1337 127 1337 247.5 1446.5 c 128,-1,46
 368 1556 368 1556 598 1556 c 0,47,48
 821 1556 821 1556 927.5 1437.5 c 128,-1,49
 1034 1319 1034 1319 1034 1073 c 2,50,-1
 1034 1059 l 1,0,1
EndSplineSet
EndChar
StartChar: ae
Encoding: 230 230 230
Width: 1233
Flags: W
Fore
489 401 m 1,0,-1
 489 483 l 1,1,-1
 416 483 l 2,2,3
 329 483 329 483 284.5 444 c 128,-1,4
 240 405 240 405 240 330 c 0,5,6
 240 259 240 259 272 221.5 c 128,-1,7
 304 184 304 184 365 184 c 0,8,9
 428 184 428 184 458.5 227 c 128,-1,10
 489 270 489 270 489 358 c 2,11,-1
 489 401 l 1,0,-1
963 690 m 1,12,-1
 963 713 l 2,13,14
 963 838 963 838 938 885 c 128,-1,15
 913 932 913 932 850 932 c 0,16,17
 787 932 787 932 762 885 c 128,-1,18
 737 838 737 838 737 713 c 2,19,-1
 737 690 l 1,20,-1
 963 690 l 1,12,-1
1188 479 m 1,21,-1
 737 479 l 1,22,23
 737 335 737 335 787 259.5 c 128,-1,24
 837 184 837 184 932 184 c 0,25,26
 992 184 992 184 1052 213.5 c 128,-1,27
 1112 243 1112 243 1171 301 c 1,28,-1
 1171 57 l 1,29,30
 1121 13 1121 13 1058.5 -8 c 128,-1,31
 996 -29 996 -29 913 -29 c 0,32,33
 810 -29 810 -29 735 13 c 128,-1,34
 660 55 660 55 618 135 c 1,35,36
 577 51 577 51 511.5 11 c 128,-1,37
 446 -29 446 -29 348 -29 c 0,38,39
 188 -29 188 -29 101 63.5 c 128,-1,40
 14 156 14 156 14 326 c 0,41,42
 14 511 14 511 115 602.5 c 128,-1,43
 216 694 216 694 420 694 c 2,44,-1
 496 694 l 1,45,-1
 496 745 l 2,46,47
 496 838 496 838 457 885 c 128,-1,48
 418 932 418 932 342 932 c 0,49,50
 285 932 285 932 217.5 904.5 c 128,-1,51
 150 877 150 877 76 823 c 1,52,-1
 76 1069 l 1,53,54
 150 1108 150 1108 220 1127.5 c 128,-1,55
 290 1147 290 1147 354 1147 c 0,56,57
 452 1147 452 1147 514.5 1116 c 128,-1,58
 577 1085 577 1085 612 1020 c 1,59,60
 641 1081 641 1081 706.5 1114 c 128,-1,61
 772 1147 772 1147 864 1147 c 0,62,63
 1041 1147 1041 1147 1114.5 1028 c 128,-1,64
 1188 909 1188 909 1188 606 c 2,65,-1
 1188 479 l 1,21,-1
EndSplineSet
EndChar
StartChar: eth
Encoding: 240 240 240
Width: 1233
Flags: W
Fore
811 760 m 1,0,1
 762 787 762 787 713 801 c 128,-1,2
 664 815 664 815 616 815 c 0,3,4
 511 815 511 815 450 742.5 c 128,-1,5
 389 670 389 670 389 545 c 0,6,7
 389 387 389 387 448.5 298 c 128,-1,8
 508 209 508 209 612 209 c 0,9,10
 721 209 721 209 778.5 299.5 c 128,-1,11
 836 390 836 390 836 563 c 0,12,13
 836 608 836 608 829.5 657 c 128,-1,14
 823 706 823 706 811 760 c 1,0,1
940 1100 m 2,15,16
 1040 963 1040 963 1083 836.5 c 128,-1,17
 1126 710 1126 710 1126 559 c 0,18,19
 1126 283 1126 283 990 127 c 128,-1,20
 854 -29 854 -29 612 -29 c 0,21,22
 376 -29 376 -29 237 124 c 128,-1,23
 98 277 98 277 98 537 c 0,24,25
 98 773 98 773 228 913 c 128,-1,26
 358 1053 358 1053 575 1053 c 0,27,28
 615 1053 615 1053 646.5 1047 c 128,-1,29
 678 1041 678 1041 705 1028 c 1,30,-1
 545 1247 l 1,31,-1
 233 1128 l 1,32,-1
 178 1245 l 1,33,-1
 461 1354 l 1,34,-1
 303 1556 l 1,35,-1
 596 1556 l 1,36,-1
 688 1440 l 1,37,-1
 985 1567 l 1,38,-1
 1051 1444 l 1,39,-1
 774 1327 l 1,40,-1
 940 1100 l 2,15,16
EndSplineSet
EndChar
StartChar: divide
Encoding: 247 247 247
Width: 1233
Flags: W
Fore
461 1198 m 1,0,-1
 770 1198 l 1,1,-1
 770 889 l 1,2,-1
 461 889 l 1,3,-1
 461 1198 l 1,0,-1
461 395 m 1,4,-1
 770 395 l 1,5,-1
 770 86 l 1,6,-1
 461 86 l 1,7,-1
 461 395 l 1,4,-1
66 762 m 1,8,-1
 1165 762 l 1,9,-1
 1165 524 l 1,10,-1
 66 524 l 1,11,-1
 66 762 l 1,8,-1
EndSplineSet
EndChar
StartChar: oslash
Encoding: 248 248 248
Width: 1233
Flags: W
Fore
831 675 m 1,0,-1
 483 262 l 1,1,2
 514 235 514 235 547 222 c 128,-1,3
 580 209 580 209 618 209 c 0,4,5
 722 209 722 209 782 302.5 c 128,-1,6
 842 396 842 396 842 559 c 0,7,8
 842 588 842 588 839.5 617 c 128,-1,9
 837 646 837 646 831 675 c 1,0,-1
399 449 m 1,10,-1
 745 860 l 1,11,12
 719 885 719 885 688 897 c 128,-1,13
 657 909 657 909 618 909 c 0,14,15
 512 909 512 909 451.5 816.5 c 128,-1,16
 391 724 391 724 391 559 c 0,17,18
 391 525 391 525 393 499 c 128,-1,19
 395 473 395 473 399 449 c 1,10,-1
188 199 m 1,20,21
 143 272 143 272 120.5 361 c 128,-1,22
 98 450 98 450 98 559 c 0,23,24
 98 830 98 830 238.5 988.5 c 128,-1,25
 379 1147 379 1147 616 1147 c 0,26,27
 701 1147 701 1147 774.5 1125.5 c 128,-1,28
 848 1104 848 1104 915 1059 c 1,29,-1
 1063 1235 l 1,30,-1
 1202 1114 l 1,31,-1
 1042 926 l 1,32,33
 1088 850 1088 850 1111.5 758 c 128,-1,34
 1135 666 1135 666 1135 559 c 0,35,36
 1135 288 1135 288 994.5 129.5 c 128,-1,37
 854 -29 854 -29 616 -29 c 0,38,39
 533 -29 533 -29 457.5 -6.5 c 128,-1,40
 382 16 382 16 315 61 c 1,41,-1
 164 -117 l 1,42,-1
 25 2 l 1,43,-1
 188 199 l 1,20,21
EndSplineSet
EndChar
StartChar: thorn
Encoding: 254 254 254
Width: 1233
Flags: W
Fore
442 158 m 1,0,-1
 442 -426 l 1,1,-1
 150 -426 l 1,2,-1
 150 1556 l 1,3,-1
 442 1556 l 1,4,-1
 442 952 l 1,5,6
 488 1049 488 1049 563 1098 c 128,-1,7
 638 1147 638 1147 739 1147 c 0,8,9
 931 1147 931 1147 1037 993 c 128,-1,10
 1143 839 1143 839 1143 559 c 0,11,12
 1143 275 1143 275 1035.5 123 c 128,-1,13
 928 -29 928 -29 729 -29 c 0,14,15
 639 -29 639 -29 567.5 17.5 c 128,-1,16
 496 64 496 64 442 158 c 1,0,-1
850 561 m 0,17,18
 850 723 850 723 796 815 c 128,-1,19
 742 907 742 907 647 907 c 0,20,21
 552 907 552 907 497 815 c 128,-1,22
 442 723 442 723 442 561 c 0,23,24
 442 399 442 399 497 307 c 128,-1,25
 552 215 552 215 647 215 c 0,26,27
 742 215 742 215 796 307 c 128,-1,28
 850 399 850 399 850 561 c 0,17,18
EndSplineSet
EndChar
StartChar: Dcroat
Encoding: 272 272 272
Width: 1233
Flags: W
Fore
432 1227 m 1,0,-1
 432 901 l 1,1,-1
 643 901 l 1,2,-1
 643 664 l 1,3,-1
 432 664 l 1,4,-1
 432 266 l 1,5,-1
 512 266 l 2,6,7
 686 266 686 266 760 375.5 c 128,-1,8
 834 485 834 485 834 748 c 0,9,10
 834 1009 834 1009 760 1118 c 128,-1,11
 686 1227 686 1227 512 1227 c 2,12,-1
 432 1227 l 1,0,-1
137 1493 m 1,13,-1
 453 1493 l 2,14,15
 819 1493 819 1493 980 1318.5 c 128,-1,16
 1141 1144 1141 1144 1141 748 c 0,17,18
 1141 351 1141 351 980 175.5 c 128,-1,19
 819 0 819 0 453 0 c 2,20,-1
 137 0 l 1,21,-1
 137 664 l 1,22,-1
 0 664 l 1,23,-1
 0 901 l 1,24,-1
 137 901 l 1,25,-1
 137 1493 l 1,13,-1
EndSplineSet
EndChar
StartChar: dcroat
Encoding: 273 273 273
Width: 1233
Flags: W
Fore
791 961 m 1,0,-1
 791 1251 l 1,1,-1
 485 1251 l 1,2,-1
 485 1440 l 1,3,-1
 791 1440 l 1,4,-1
 791 1556 l 1,5,-1
 1083 1556 l 1,6,-1
 1083 1440 l 1,7,-1
 1229 1440 l 1,8,-1
 1229 1251 l 1,9,-1
 1083 1251 l 1,10,-1
 1083 0 l 1,11,-1
 791 0 l 1,12,-1
 791 166 l 1,13,14
 744 69 744 69 669.5 20 c 128,-1,15
 595 -29 595 -29 494 -29 c 0,16,17
 302 -29 302 -29 196 125 c 128,-1,18
 90 279 90 279 90 559 c 0,19,20
 90 843 90 843 197.5 995 c 128,-1,21
 305 1147 305 1147 504 1147 c 0,22,23
 594 1147 594 1147 665.5 1100.5 c 128,-1,24
 737 1054 737 1054 791 961 c 1,0,-1
383 557 m 0,25,26
 383 395 383 395 437 303 c 128,-1,27
 491 211 491 211 586 211 c 0,28,29
 681 211 681 211 736 303 c 128,-1,30
 791 395 791 395 791 557 c 0,31,32
 791 719 791 719 736 811 c 128,-1,33
 681 903 681 903 586 903 c 0,34,35
 491 903 491 903 437 811 c 128,-1,36
 383 719 383 719 383 557 c 0,25,26
EndSplineSet
EndChar
StartChar: Hbar
Encoding: 294 294 294
Width: 1233
Flags: W
Fore
137 1493 m 1,0,-1
 432 1493 l 1,1,-1
 432 1269 l 1,2,-1
 801 1269 l 1,3,-1
 801 1493 l 1,4,-1
 1095 1493 l 1,5,-1
 1095 1269 l 1,6,-1
 1230 1269 l 1,7,-1
 1230 1105 l 1,8,-1
 1095 1105 l 1,9,-1
 1095 0 l 1,10,-1
 801 0 l 1,11,-1
 801 664 l 1,12,-1
 432 664 l 1,13,-1
 432 0 l 1,14,-1
 137 0 l 1,15,-1
 137 1105 l 1,16,-1
 3 1105 l 1,17,-1
 3 1269 l 1,18,-1
 137 1269 l 1,19,-1
 137 1493 l 1,0,-1
432 1105 m 1,20,-1
 432 924 l 1,21,-1
 801 924 l 1,22,-1
 801 1105 l 1,23,-1
 432 1105 l 1,20,-1
EndSplineSet
EndChar
StartChar: hbar
Encoding: 295 295 295
Width: 1233
Flags: W
Fore
1071 727 m 2,0,-1
 1071 0 l 1,1,-1
 780 0 l 1,2,-1
 780 682 l 2,3,4
 780 803 780 803 745.5 855 c 128,-1,5
 711 907 711 907 633 907 c 0,6,7
 553 907 553 907 508 836 c 0,8,9
 463 766 463 766 463 641 c 2,10,-1
 463 0 l 1,11,-1
 172 0 l 1,12,-1
 172 1270 l 1,13,-1
 12 1270 l 1,14,-1
 12 1434 l 1,15,-1
 172 1434 l 1,16,-1
 172 1556 l 1,17,-1
 463 1556 l 1,18,-1
 463 1434 l 1,19,20
 602 1434 602 1434 740 1434 c 1,21,-1
 740 1270 l 1,22,-1
 463 1270 l 1,23,-1
 463 952 l 1,24,25
 494 1045 494 1045 569 1096 c 128,-1,26
 644 1147 644 1147 750 1147 c 0,27,28
 909 1147 909 1147 990 1042 c 0,29,30
 1071 936 1071 936 1071 727 c 2,0,-1
EndSplineSet
EndChar
StartChar: dotlessi
Encoding: 305 305 305
Width: 1233
Flags: W
Fore
221 1120 m 1,0,-1
 801 1120 l 1,1,-1
 801 225 l 1,2,-1
 1165 225 l 1,3,-1
 1165 0 l 1,4,-1
 143 0 l 1,5,-1
 143 225 l 1,6,-1
 508 225 l 1,7,-1
 508 895 l 1,8,-1
 221 895 l 1,9,-1
 221 1120 l 1,0,-1
EndSplineSet
EndChar
StartChar: IJ
Encoding: 306 306 306
Width: 1233
Flags: W
Fore
573.98 77 m 1,0,-1
 573.98 419 l 1,1,2
 636.76 331 636.76 331 707.935 285 c 128,-1,3
 779.11 239 779.11 239 851.38 239 c 0,4,5
 936.06 239 936.06 239 975.48 297 c 0,6,7
 1014.9 355 1014.9 355 1014.9 482 c 2,8,-1
 1014.9 1236 l 1,9,-1
 751.37 1236 l 1,10,-1
 751.37 1496 l 1,11,-1
 1230.25 1496 l 1,12,-1
 1230.25 482 l 2,13,14
 1230.25 209 1230.25 209 1146.67 91.5 c 0,15,16
 1063.08 -26 1063.08 -26 871.09 -26 c 0,17,18
 801.74 -26 801.74 -26 726.185 0 c 128,-1,19
 650.63 26 650.63 26 573.98 77 c 1,0,-1
-8.63965 1233 m 1,20,-1
 -8.63965 1493 l 1,21,-1
 560.32 1493 l 1,22,-1
 560.32 1233 l 1,23,-1
 370.24 1233 l 1,24,-1
 370.24 260 l 1,25,-1
 560.32 260 l 1,26,-1
 560.32 0 l 1,27,-1
 -8.63965 0 l 1,28,-1
 -8.63965 260 l 1,29,-1
 181.44 260 l 1,30,-1
 181.44 1233 l 1,31,-1
 -8.63965 1233 l 1,20,-1
EndSplineSet
LCarets: 0 65535 '    ' 1 0 
Ligature: 0 1 'liga' I J
EndChar
StartChar: ij
Encoding: 307 307 307
Width: 1233
Flags: W
Fore
1233 33 m 2,0,1
 1233 -219 1233 -219 1142.5 -326.5 c 128,-1,2
 1052 -434 1052 -434 842 -434 c 2,3,-1
 526 -434 l 1,4,-1
 526 -209 l 1,5,-1
 760 -209 l 2,6,7
 858 -209 858 -209 899 -154 c 128,-1,8
 940 -99 940 -99 940 33 c 2,9,-1
 940 885 l 1,10,-1
 643 885 l 1,11,-1
 643 1110 l 1,12,-1
 1233 1110 l 1,13,-1
 1233 33 l 2,0,1
1233 1313 m 1,14,-1
 940 1313 l 1,15,-1
 940 1655 l 1,16,-1
 1233 1655 l 1,17,-1
 1233 1313 l 1,14,-1
64.2031 1120 m 1,18,-1
 469.334 1120 l 1,19,-1
 469.334 225 l 1,20,-1
 723.587 225 l 1,21,-1
 723.587 0 l 1,22,-1
 9.71973 0 l 1,23,-1
 9.71973 225 l 1,24,-1
 264.673 225 l 1,25,-1
 264.673 895 l 1,26,-1
 64.2031 895 l 1,27,-1
 64.2031 1120 l 1,18,-1
264.673 1665 m 1,28,-1
 469.334 1665 l 1,29,-1
 469.334 1323 l 1,30,-1
 264.673 1323 l 1,31,-1
 264.673 1665 l 1,28,-1
EndSplineSet
LCarets: 0 65535 '    ' 1 0 
Ligature: 0 1 'liga' i j
EndChar
StartChar: kgreenlandic
Encoding: 312 312 312
Width: 1233
Flags: W
Fore
174 1120 m 1,0,-1
 467 1120 l 1,1,-1
 467 739 l 1,2,-1
 819 1120 l 1,3,-1
 1174 1120 l 1,4,-1
 750 702 l 1,5,-1
 1198 0 l 1,6,-1
 874 0 l 1,7,-1
 567 524 l 1,8,-1
 467 428 l 1,9,-1
 467 0 l 1,10,-1
 174 0 l 1,11,-1
 174 1120 l 1,0,-1
EndSplineSet
EndChar
StartChar: Lslash
Encoding: 321 321 321
Width: 1233
Flags: W
Fore
225 0 m 1,0,-1
 225 537 l 1,1,-1
 74 426 l 1,2,-1
 -39 580 l 1,3,-1
 225 768 l 1,4,-1
 225 1493 l 1,5,-1
 520 1493 l 1,6,-1
 520 973 l 1,7,-1
 795 1167 l 1,8,-1
 907 1014 l 1,9,-1
 520 741 l 1,10,-1
 520 260 l 1,11,-1
 1151 260 l 1,12,-1
 1151 0 l 1,13,-1
 225 0 l 1,0,-1
EndSplineSet
EndChar
StartChar: lslash
Encoding: 322 322 322
Width: 1233
Flags: W
Fore
410 467 m 2,0,-1
 410 633 l 1,1,-1
 137 438 l 1,2,-1
 37 600 l 1,3,-1
 410 864 l 1,4,-1
 410 1331 l 1,5,-1
 115 1331 l 1,6,-1
 115 1556 l 1,7,-1
 702 1556 l 1,8,-1
 702 1071 l 1,9,-1
 997 1280 l 1,10,-1
 1100 1120 l 1,11,-1
 702 840 l 1,12,-1
 702 467 l 2,13,14
 702 335 702 335 743.5 280 c 128,-1,15
 785 225 785 225 883 225 c 2,16,-1
 1116 225 l 1,17,-1
 1116 0 l 1,18,-1
 801 0 l 2,19,20
 592 0 592 0 501 108 c 128,-1,21
 410 216 410 216 410 467 c 2,0,-1
EndSplineSet
EndChar
StartChar: Eng
Encoding: 330 330 330
Width: 1233
Flags: W
Fore
108 1493 m 1,0,-1
 379 1493 l 1,1,-1
 852 458 l 1,2,-1
 852 1493 l 1,3,-1
 1124 1493 l 1,4,-1
 1124 60 l 1,5,6
 1124 -206.5 1124 -206.5 1032 -316 c 0,7,8
 940 -424 940 -424 732 -424 c 2,9,-1
 611 -424 l 1,10,-1
 611 -199 l 1,11,-1
 650 -199 l 2,12,13
 750 -199 750 -199 791 -144 c 128,-1,14
 832 -89 832 -89 832 43.5 c 1,15,-1
 379 1035 l 1,16,-1
 379 0 l 1,17,-1
 108 0 l 1,18,-1
 108 1493 l 1,0,-1
EndSplineSet
EndChar
StartChar: eng
Encoding: 331 331 331
Width: 1233
Flags: W
Fore
1071 727 m 2,0,-1
 1071 43 l 2,1,2
 1071 -209 1071 -209 980 -316 c 0,3,4
 890 -424 890 -424 680 -424 c 2,5,-1
 559 -424 l 1,6,-1
 559 -199 l 1,7,-1
 598 -199 l 2,8,9
 698 -199 698 -199 739 -144 c 128,-1,10
 780 -89 780 -89 780 43 c 2,11,-1
 780 682 l 2,12,13
 780 804 780 804 746 856 c 0,14,15
 711 909 711 909 633 909 c 0,16,17
 554 909 554 909 508 838 c 0,18,19
 463 767 463 767 463 641 c 2,20,-1
 463 0 l 1,21,-1
 172 0 l 1,22,-1
 172 1120 l 1,23,-1
 463 1120 l 1,24,-1
 463 952 l 1,25,26
 494 1045 494 1045 569 1096 c 128,-1,27
 644 1147 644 1147 750 1147 c 0,28,29
 909 1147 909 1147 990 1042 c 0,30,31
 1071 936 1071 936 1071 727 c 2,0,-1
EndSplineSet
EndChar
StartChar: OE
Encoding: 338 338 338
Width: 1233
Flags: W
Fore
1217 260 m 1,0,-1
 1217 0 l 1,1,-1
 633 0 l 2,2,3
 309 0 309 0 188.5 155.5 c 128,-1,4
 68 311 68 311 68 745 c 0,5,6
 68 1181 68 1181 189 1337 c 128,-1,7
 310 1493 310 1493 633 1493 c 2,8,-1
 1206 1493 l 1,9,-1
 1206 1233 l 1,10,-1
 874 1233 l 1,11,-1
 874 922 l 1,12,-1
 1176 922 l 1,13,-1
 1176 662 l 1,14,-1
 874 662 l 1,15,-1
 874 260 l 1,16,-1
 1217 260 l 1,0,-1
569 1233 m 2,17,18
 446 1233 446 1233 400 1144 c 128,-1,19
 354 1055 354 1055 354 745 c 0,20,21
 354 434 354 434 399.5 347 c 128,-1,22
 445 260 445 260 569 260 c 2,23,-1
 621 260 l 1,24,-1
 621 1233 l 1,25,-1
 569 1233 l 2,17,18
EndSplineSet
EndChar
StartChar: oe
Encoding: 339 339 339
Width: 1233
Flags: W
Fore
1210 479 m 1,0,-1
 760 479 l 1,1,2
 760 335 760 335 809.5 259.5 c 128,-1,3
 859 184 859 184 954 184 c 0,4,5
 1014 184 1014 184 1074 213.5 c 128,-1,6
 1134 243 1134 243 1194 301 c 1,7,-1
 1194 57 l 1,8,9
 1145 13 1145 13 1083 -8 c 128,-1,10
 1021 -29 1021 -29 936 -29 c 0,11,12
 838 -29 838 -29 767 8 c 128,-1,13
 696 45 696 45 649 119 c 1,14,15
 606 42 606 42 539.5 6.5 c 128,-1,16
 473 -29 473 -29 373 -29 c 0,17,18
 183 -29 183 -29 98.5 109 c 128,-1,19
 14 247 14 247 14 559 c 0,20,21
 14 874 14 874 98.5 1010.5 c 128,-1,22
 183 1147 183 1147 373 1147 c 0,23,24
 472 1147 472 1147 534 1117.5 c 128,-1,25
 596 1088 596 1088 637 1022 c 1,26,27
 665 1082 665 1082 730 1114.5 c 128,-1,28
 795 1147 795 1147 887 1147 c 0,29,30
 1064 1147 1064 1147 1137 1028 c 128,-1,31
 1210 909 1210 909 1210 606 c 2,32,-1
 1210 479 l 1,0,-1
985 690 m 1,33,-1
 985 725 l 2,34,35
 985 841 985 841 959.5 887.5 c 128,-1,36
 934 934 934 934 872 934 c 0,37,38
 810 934 810 934 785 886.5 c 128,-1,39
 760 839 760 839 760 713 c 2,40,-1
 760 690 l 1,41,-1
 985 690 l 1,33,-1
520 559 m 0,42,43
 520 801 520 801 491 867.5 c 128,-1,44
 462 934 462 934 385 934 c 0,45,46
 307 934 307 934 277.5 867.5 c 128,-1,47
 248 801 248 801 248 559 c 0,48,49
 248 317 248 317 277.5 250.5 c 128,-1,50
 307 184 307 184 385 184 c 0,51,52
 462 184 462 184 491 251 c 128,-1,53
 520 318 520 318 520 559 c 0,42,43
EndSplineSet
EndChar
StartChar: Tbar
Encoding: 358 358 358
Width: 1233
Flags: W
TeX: 0 0 0 0
Fore
764 0 m 1,0,-1
 469 0 l 1,1,-1
 469 538 l 1,2,-1
 222 538 l 1,3,-1
 222 730 l 1,4,-1
 469 730 l 1,5,-1
 469 1235 l 1,6,-1
 90 1235 l 1,7,-1
 90 1493 l 1,8,-1
 1143 1493 l 1,9,-1
 1143 1235 l 1,10,-1
 764 1235 l 1,11,-1
 764 730 l 1,12,-1
 1011 730 l 1,13,-1
 1011 538 l 1,14,-1
 764 538 l 1,15,-1
 764 0 l 1,0,-1
EndSplineSet
EndChar
StartChar: tbar
Encoding: 359 359 359
Width: 1233
Flags: W
TeX: 0 0 0 0
Fore
690 1438 m 1,0,-1
 690 1120 l 1,1,-1
 1073 1120 l 1,2,-1
 1073 895 l 1,3,-1
 690 895 l 1,4,-1
 690 753 l 1,5,-1
 874 753 l 1,6,-1
 874 561 l 1,7,-1
 690 561 l 1,8,-1
 690 365 l 2,9,10
 690 290 690 290 726 258 c 0,11,12
 763 225 763 225 848 225 c 2,13,-1
 1073 225 l 1,14,-1
 1073 0 l 1,15,-1
 827 0 l 2,16,17
 575 0 575 0 486 80 c 0,18,19
 397 161 397 161 397 379 c 2,20,-1
 397 561 l 1,21,-1
 219 561 l 1,22,-1
 219 753 l 1,23,-1
 397 753 l 1,24,-1
 397 895 l 1,25,-1
 111 895 l 1,26,-1
 111 1120 l 1,27,-1
 397 1120 l 1,28,-1
 397 1438 l 1,29,-1
 690 1438 l 1,0,-1
EndSplineSet
EndChar
StartChar: longs
Encoding: 383 383 383
Width: 1233
Flags: W
TeX: 0 0 0 0
Fore
739 0 m 1,0,-1
 446 0 l 1,1,-1
 446 895 l 1,2,-1
 174 895 l 1,3,-1
 174 1120 l 1,4,-1
 446 1120 l 1,5,-1
 446 1198 l 2,6,7
 446 1400 446 1400 530 1478 c 128,-1,8
 614 1556 614 1556 842 1556 c 2,9,-1
 1083 1556 l 1,10,-1
 1083 1331 l 1,11,-1
 854 1331 l 2,12,13
 788 1331 788 1331 764.5 1307 c 128,-1,14
 741 1283 741 1283 739 1218 c 1,15,-1
 739 0 l 1,0,-1
EndSplineSet
EndChar
StartChar: uni0186
Encoding: 390 390 390
Width: 1233
Flags: W
TeX: 117 0 0 0
Fore
152 43 m 1,0,1
 152 371 l 1,25,-1
 228 301 228 301 299.5 268.5 c 128,-1,24
 371 236 371 236 447 236 c 0,22,23
 609 236 609 236 691.5 364.5 c 128,-1,21
 774 493 774 493 774 745 c 0,19,20
 774 998 774 998 691.5 1126.5 c 128,-1,18
 609 1255 609 1255 447 1255 c 0,16,17
 371 1255 371 1255 299.5 1222.5 c 128,-1,15
 228 1190 228 1190 152 1120 c 1,13,14
 152 1448 l 1,12,-1
 220 1484 220 1484 298 1502 c 128,-1,11
 376 1520 376 1520 461 1520 c 0,9,10
 763 1520 763 1520 922 1321 c 128,-1,8
 1081 1122 1081 1122 1081 745 c 0,6,7
 1081 369 1081 369 922 170 c 128,-1,5
 763 -29 763 -29 461 -29 c 0,3,4
 376 -29 376 -29 299 -11 c 128,-1,2
 222 7 222 7 152 43 c 1,0,1
EndSplineSet
EndChar
StartChar: uni0190
Encoding: 400 400 400
Width: 1233
Flags: W
TeX: 117 0 0 0
Fore
676 668 m 2,0,-1
 548 668 548 668 478 605.5 c 128,-1,40
 408 543 408 543 408 428 c 0,38,39
 408 334 408 334 478 278.5 c 128,-1,37
 548 223 548 223 668 223 c 0,35,36
 788 223 788 223 897 247.5 c 128,-1,34
 1006 272 1006 272 1100 319 c 1,32,33
 1100 45 l 1,31,-1
 1000 9 1000 9 890.5 -10 c 128,-1,30
 781 -29 781 -29 668 -29 c 0,28,29
 403 -29 403 -29 264 85 c 128,-1,27
 125 199 125 199 125 416 c 0,25,26
 125 578 125 578 209 677.5 c 128,-1,24
 293 777 293 777 453 805 c 1,22,23
 312 831 312 831 236 915.5 c 128,-1,21
 160 1000 160 1000 160 1133 c 0,19,20
 160 1314 160 1314 292 1417 c 128,-1,18
 424 1520 424 1520 660 1520 c 0,16,17
 752 1520 752 1520 852 1503.5 c 128,-1,15
 952 1487 952 1487 1055 1456 c 1,13,14
 1055 1188 l 1,12,-1
 952 1228 952 1228 856 1249 c 128,-1,11
 760 1270 760 1270 676 1270 c 0,9,10
 566 1270 566 1270 505.5 1223.5 c 128,-1,8
 445 1177 445 1177 445 1094 c 0,6,7
 445 1015 445 1015 505.5 971.5 c 128,-1,5
 566 928 566 928 676 928 c 2,3,4
 834 928 l 1,2,-1
 834 668 l 1,1,-1
 676 668 l 2,0,-1
EndSplineSet
EndChar
StartChar: florin
Encoding: 402 402 402
Width: 1233
Flags: W
Fore
1153 1505 m 1,0,-1
 1153 1274 l 1,1,2
 1112 1299 1112 1299 1071 1312 c 128,-1,3
 1030 1325 1030 1325 993 1325 c 0,4,5
 899 1325 899 1325 847.5 1265 c 128,-1,6
 796 1205 796 1205 778 1075 c 1,7,-1
 754 885 l 1,8,-1
 1014 885 l 1,9,-1
 1014 666 l 1,10,-1
 725 666 l 1,11,-1
 631 -47 l 1,12,13
 606 -228 606 -228 505 -327 c 128,-1,14
 404 -426 404 -426 244 -426 c 0,15,16
 182 -426 182 -426 124.5 -413.5 c 128,-1,17
 67 -401 67 -401 12 -375 c 1,18,-1
 12 -141 l 1,19,20
 55 -168 55 -168 95 -181.5 c 128,-1,21
 135 -195 135 -195 174 -195 c 0,22,23
 269 -195 269 -195 321.5 -134.5 c 128,-1,24
 374 -74 374 -74 391 55 c 2,25,-1
 471 666 l 1,26,-1
 219 666 l 1,27,-1
 219 885 l 1,28,-1
 500 885 l 1,29,-1
 539 1178 l 2,30,31
 563 1358 563 1358 664.5 1457 c 128,-1,32
 766 1556 766 1556 926 1556 c 0,33,34
 986 1556 986 1556 1042 1543.5 c 128,-1,35
 1098 1531 1098 1531 1153 1505 c 1,0,-1
EndSplineSet
EndChar
StartChar: uni0194
Encoding: 404 404 404
Width: 1233
Flags: W
TeX: 0 0 0 0
Fore
616 510 m 1,3,-1
431.3 762 m 1,0,0
 32.9004 1493 l 1,7,-1
 354.5 1493 l 1,8,-1
 616.1 1012 l 1,9,-1
 876.9 1493 l 1,10,-1
 1200.1 1493 l 1,11,-1
 801.7 762 l 1,5,-1
 1009.92 380.296 1009.92 380.296 1012.1 -14 c 0,0,0
 1013.72 -285.237 1013.72 -285.237 609.7 -290 c 0,0,0
 205.745 -294.857 205.745 -294.857 204.1 -14 c 0,0,0
 201.838 335.34 201.838 335.34 431.3 762 c 1,0,0
616.1 510 m 1,0,0
 472.393 242.567 472.393 242.567 473.7 125.6 c 0,0,0
 475.104 -0.0126953 475.104 -0.0126953 611.3 0 c 16,0,0
 749.7 0.0146484 749.7 0.0146484 749.7 130 c 0,0,0
 749.7 278.899 749.7 278.899 616.1 510 c 1,0,0
EndSplineSet
EndChar
StartChar: dotlessj
Encoding: 567 567 567
Width: 1233
Flags: W
Fore
850 43 m 2,0,1
 850 -209 850 -209 759.5 -316.5 c 128,-1,2
 669 -424 669 -424 459 -424 c 2,3,-1
 143 -424 l 1,4,-1
 143 -199 l 1,5,-1
 377 -199 l 2,6,7
 475 -199 475 -199 516 -144 c 128,-1,8
 557 -89 557 -89 557 43 c 2,9,-1
 557 895 l 1,10,-1
 260 895 l 1,11,-1
 260 1120 l 1,12,-1
 850 1120 l 1,13,-1
 850 43 l 2,0,1
EndSplineSet
EndChar
StartChar: uni0250
Encoding: 592 592 592
Width: 1233
Flags: W
Fore
518 592 m 2,0,1
 682 592 682 592 746 634 c 128,-1,2
 812 676 812 676 812 778 c 0,3,4
 812 854 812 854 766 899 c 128,-1,5
 722 944 722 944 644 944 c 0,6,7
 528 944 528 944 464 856 c 128,-1,8
 400 769 400 769 400 612 c 2,9,-1
 400 592 l 1,10,-1
 518 592 l 2,0,1
110 479 m 2,11,-1
 110 1118 l 1,12,-1
 400 1118 l 1,13,-1
 400 993 l 1,14,15
 454 1067 454 1067 536 1107 c 128,-1,16
 620 1147 620 1147 720 1147 c 0,17,18
 910 1147 910 1147 1017 1046 c 128,-1,19
 1124 945 1124 945 1124 764 c 0,20,21
 1124 568 1124 568 996 474 c 128,-1,22
 870 381 870 381 604 381 c 2,23,-1
 400 381 l 1,24,-1
 400 332 l 2,25,26
 400 261 400 261 452 224 c 128,-1,27
 504 188 504 188 604 188 c 0,28,29
 708 188 708 188 807 214 c 128,-1,30
 906 241 906 241 1012 299 c 1,31,-1
 1012 49 l 1,32,33
 916 9 916 9 816 -10 c 128,-1,34
 716 -29 716 -29 604 -29 c 0,35,36
 330 -29 330 -29 220 82 c 128,-1,37
 110 193 110 193 110 479 c 2,11,-1
EndSplineSet
EndChar
StartChar: uni0251
Encoding: 593 593 593
Width: 1233
Flags: W
TeX: 0 0 0 0
Fore
821 961 m 1,0,-1
 821 1119 l 1,1,-1
 1113 1119 l 1,2,-1
 1113 0 l 1,3,-1
 821 0 l 1,4,-1
 821 166 l 1,5,6
 774 69 774 69 700 20 c 128,-1,7
 625 -29 625 -29 524 -29 c 0,8,9
 332 -29 332 -29 226 125 c 128,-1,10
 120 279 120 279 120 559 c 0,11,12
 120 843 120 843 228 995 c 128,-1,13
 335 1147 335 1147 534 1147 c 0,14,15
 624 1147 624 1147 696 1100 c 128,-1,16
 767 1054 767 1054 821 961 c 1,0,-1
413 557 m 0,17,18
 413 395 413 395 467 303 c 128,-1,19
 521 211 521 211 616 211 c 0,20,21
 711 211 711 211 766 303 c 128,-1,22
 821 395 821 395 821 557 c 0,23,24
 821 719 821 719 766 811 c 128,-1,25
 711 903 711 903 616 903 c 0,26,27
 521 903 521 903 467 811 c 128,-1,28
 413 719 413 719 413 557 c 0,17,18
EndSplineSet
EndChar
StartChar: uni0252
Encoding: 594 594 594
Width: 1233
Flags: W
TeX: 0 0 0 0
Fore
412 157 m 1,0,-1
 412 -1 l 1,1,-1
 120 -1 l 1,2,-1
 120 1118 l 1,3,-1
 412 1118 l 1,4,-1
 412 952 l 1,5,6
 459 1049 459 1049 534 1098 c 128,-1,7
 608 1147 608 1147 709 1147 c 0,8,9
 901 1147 901 1147 1007 993 c 128,-1,10
 1113 839 1113 839 1113 559 c 0,11,12
 1113 275 1113 275 1006 123 c 128,-1,13
 898 -29 898 -29 699 -29 c 0,14,15
 609 -29 609 -29 538 18 c 128,-1,16
 466 64 466 64 412 157 c 1,0,-1
820 561 m 0,17,18
 820 723 820 723 766 815 c 128,-1,19
 712 907 712 907 617 907 c 0,20,21
 522 907 522 907 467 815 c 128,-1,22
 412 723 412 723 412 561 c 0,23,24
 412 399 412 399 467 307 c 128,-1,25
 522 215 522 215 617 215 c 0,26,27
 712 215 712 215 766 307 c 128,-1,28
 820 399 820 399 820 561 c 0,17,18
EndSplineSet
EndChar
StartChar: uni0253
Encoding: 595 595 595
Width: 1233
Flags: W
TeX: 0 0 0 0
Fore
412 961 m 1,0,1
 466 1054 466 1054 538 1100 c 0,2,3
 609 1147 609 1147 699 1147 c 0,4,5
 898 1147 898 1147 1006 995 c 0,6,7
 1113 843 1113 843 1113 559 c 0,8,9
 1113 279 1113 279 1007 125 c 0,10,11
 901 -29 901 -29 709 -29 c 0,12,13
 608 -29 608 -29 533 20 c 0,14,15
 458 69 458 69 412 166 c 1,16,-1
 412 0 l 1,17,-1
 120 0 l 1,18,-1
 120 1088 l 2,19,20
 120 1340 120 1340 211 1447 c 0,21,22
 301 1555 301 1555 511 1555 c 2,23,-1
 632 1555 l 1,24,-1
 632 1330 l 1,25,-1
 593 1330 l 2,26,27
 493 1330 493 1330 452 1275 c 0,28,29
 411 1220 411 1220 411 1088 c 1,30,-1
 412 1088 l 1,31,-1
 412 961 l 1,0,1
820 557 m 0,32,33
 820 719 820 719 766 811 c 0,34,35
 712 903 712 903 617 903 c 0,36,37
 522 903 522 903 467 811 c 0,38,39
 412 719 412 719 412 557 c 0,40,41
 412 395 412 395 467 303 c 0,42,43
 522 211 522 211 617 211 c 0,44,45
 712 211 712 211 766 303 c 0,46,47
 820 395 820 395 820 557 c 0,32,33
EndSplineSet
EndChar
StartChar: uni0254
Encoding: 596 596 596
Width: 1233
Flags: W
Fore
170 57 m 1,0,1
 170 326 l 1,25,-1
 236 268 236 268 310 240 c 128,-1,24
 384 211 384 211 469 211 c 0,22,23
 612 211 612 211 689 301 c 128,-1,21
 766 391 766 391 766 559 c 0,19,20
 766 727 766 727 689 818 c 128,-1,18
 612 909 612 909 469 909 c 0,16,17
 387 909 387 909 310 880 c 128,-1,15
 234 850 234 850 170 795 c 1,13,14
 170 1063 l 1,12,-1
 253 1107 253 1107 336 1128 c 128,-1,11
 420 1149 420 1149 510 1149 c 0,9,10
 769 1149 769 1149 916 992 c 128,-1,8
 1063 836 1063 836 1063 559 c 0,6,7
 1063 283 1063 283 917 127 c 128,-1,5
 771 -29 771 -29 512 -29 c 0,3,4
 414 -29 414 -29 329 -8 c 128,-1,2
 244 14 244 14 170 57 c 1,0,1
EndSplineSet
EndChar
StartChar: uni0255
Encoding: 597 597 597
Width: 1233
Flags: W
TeX: 0 0 0 0
Fore
662 232 m 1,0,1
 719 208 719 208 773 207 c 2,2,-1
 778 207 l 2,3,4
 924.88 207 924.88 207 924 264 c 0,5,6
 922.842 339 922.842 339 792 339 c 0,7,8
 709 339 709 339 662 232 c 1,0,1
506.807 333.653 m 1,9,-1
 510 351 l 1,10,11
 613 532 613 532 782 532 c 0,12,13
 1067.89 526.639 1067.89 526.639 1071 294 c 0,14,15
 1076 -29 1076 -29 761 -29 c 0,16,17
 658.576 -29 658.576 -29 655.017 -28.3349 c 0,18,19
 652.336 -27.834 652.336 -27.834 649 -27 c 1,20,-1
 649 -141 l 1,21,-1
 449 -140 l 1,22,23
 449 -46.8229 449 -46.8229 449.983 23.7551 c 1,24,25
 369.097 61.7182 369.097 61.7182 308 127 c 0,26,27
 162 283 162 283 162 559 c 0,28,29
 162 835.501 162 835.501 309 992 c 0,30,31
 456.47 1149 456.47 1149 715 1149 c 0,32,33
 804.503 1149 804.503 1149 888 1128 c 0,34,35
 972.454 1106.76 972.454 1106.76 1055 1063 c 1,36,-1
 1055 795 l 1,37,38
 991 850 991 850 914 880 c 0,39,40
 838 909 838 909 756 909 c 0,41,42
 613 909 613 909 536 818 c 0,43,44
 459 727 459 727 459 559 c 0,45,46
 459 405.349 459 405.349 506.807 333.653 c 1,9,-1
EndSplineSet
EndChar
StartChar: uni0256
Encoding: 598 598 598
Width: 1233
Flags: W
TeX: 0 0 0 0
Fore
366 557 m 0,0,1
 366 395 366 395 409 303 c 0,2,3
 452 211 452 211 528 211 c 0,4,5
 604 211 604 211 648 303 c 0,6,7
 692 395 692 395 692 557 c 0,8,9
 692 719 692 719 648 811 c 0,10,11
 604 903 604 903 528 903 c 0,12,13
 452 903 452 903 409 811 c 0,14,15
 366 719 366 719 366 557 c 0,0,1
692 961 m 1,16,-1
 692 1556 l 1,17,-1
 924 1556 l 1,18,-1
 924 136 l 2,19,20
 924 4 924 4 957 -51 c 0,21,22
 990 -106 990 -106 1070 -106 c 2,23,-1
 1101 -106 l 1,24,-1
 1101 -331 l 1,25,-1
 1004 -331 l 2,26,27
 836.336 -331 836.336 -331 764 -223 c 0,28,29
 692 -115.502 692 -115.502 692 136 c 2,30,-1
 692 166 l 1,31,32
 655 69 655 69 595 20 c 0,33,34
 536 -29 536 -29 455 -29 c 0,35,36
 301 -29 301 -29 216 125 c 0,37,38
 132 279 132 279 132 559 c 0,39,40
 132 843 132 843 218 995 c 0,41,42
 304 1147 304 1147 463 1147 c 0,43,44
 535 1147 535 1147 592 1100 c 0,45,46
 649 1054 649 1054 692 961 c 1,16,-1
EndSplineSet
EndChar
StartChar: uni0257
Encoding: 599 599 599
Width: 1233
Flags: W
TeX: 0 0 0 0
Fore
365 557 m 0,0,1
 365 395 365 395 408 303 c 0,2,3
 451 211 451 211 527 211 c 0,4,5
 603 211 603 211 647 303 c 0,6,7
 691 395 691 395 691 557 c 0,8,9
 691 719 691 719 647 811 c 0,10,11
 603 903 603 903 527 903 c 0,12,13
 451 903 451 903 408 811 c 0,14,15
 365 719 365 719 365 557 c 0,0,1
927 1088 m 2,16,-1
 927 0 l 1,17,-1
 691 0 l 1,18,-1
 691 166 l 1,19,20
 654 69 654 69 594 20 c 0,21,22
 534 -29 534 -29 454 -29 c 0,23,24
 300 -29 300 -29 215 125 c 0,25,26
 130 279 130 279 130 559 c 0,27,28
 130 843 130 843 216 995 c 0,29,30
 302 1147 302 1147 462 1147 c 0,31,32
 534 1147 534 1147 591 1100 c 0,33,34
 648 1054 648 1054 691 961 c 1,35,-1
 693 1088 l 2,36,37
 693 1340 693 1340 766 1447 c 0,38,39
 838 1555 838 1555 1006 1555 c 2,40,-1
 1103 1555 l 1,41,-1
 1103 1330 l 1,42,-1
 1071 1330 l 2,43,44
 991 1330 991 1330 959 1275 c 0,45,46
 927.003 1221.67 927.003 1221.67 927 1088 c 2,16,-1
EndSplineSet
EndChar
StartChar: uni0258
Encoding: 600 600 600
Width: 1233
Flags: W
Fore
135 55 m 1,0,1
 135 324 l 1,20,-1
 242 261 242 261 340 232 c 128,-1,19
 438 203 438 203 539 203 c 0,17,18
 692 203 692 203 769 268 c 128,-1,16
 846 333 846 333 847 465 c 1,14,15
 88 465 l 1,13,-1
 88 584 l 2,12,-1
 88 852 88 852 226 1000 c 128,-1,11
 363 1147 363 1147 612 1147 c 0,9,10
 859 1147 859 1147 1002 988 c 128,-1,8
 1145 829 1145 829 1145 555 c 0,6,7
 1145 272 1145 272 996 122 c 128,-1,5
 848 -29 848 -29 567 -29 c 0,3,4
 449 -29 449 -29 343 -8 c 128,-1,2
 237 13 237 13 135 55 c 1,0,1
383 685 m 1,21,22
 844 684 l 1,27,-1
 833 797 833 797 773 858 c 128,-1,26
 713 920 713 920 612 920 c 0,24,25
 500 920 500 920 442 860 c 128,-1,23
 385 801 385 801 383 685 c 1,21,22
EndSplineSet
EndChar
StartChar: uni0259
Encoding: 601 601 601
Width: 1233
Flags: W
Fore
135 1063 m 1,0,1
 237 1105 237 1105 343 1126 c 128,-1,2
 449 1147 449 1147 567 1147 c 0,3,4
 848 1147 848 1147 996 996 c 128,-1,5
 1145 846 1145 846 1145 563 c 0,6,7
 1145 289 1145 289 1002 130 c 128,-1,8
 859 -29 859 -29 612 -29 c 0,9,10
 363 -29 363 -29 226 118 c 128,-1,11
 88 266 88 266 88 534 c 2,12,-1
 88 653 l 1,13,-1
 847 653 l 1,14,15
 846 785 846 785 769 850 c 128,-1,16
 692 915 692 915 539 915 c 0,17,18
 438 915 438 915 340 886 c 128,-1,19
 242 857 242 857 135 794 c 1,20,-1
 135 1063 l 1,0,1
383 433 m 1,21,22
 385 317 385 317 442 258 c 128,-1,23
 500 198 500 198 612 198 c 0,24,25
 713 198 713 198 773 260 c 128,-1,26
 833 321 833 321 844 434 c 1,27,-1
 383 433 l 1,21,22
EndSplineSet
EndChar
StartChar: uni025A
Encoding: 602 602 602
Width: 1233
Flags: W
TeX: 0 0 0 0
Fore
607 540 m 1,0,-1
 289 295 l 1,1,2
 295 283 295 283 303 272 c 0,3,4
 348 209 348 209 420 209 c 0,5,6
 498 209 498 209 547 268 c 0,7,8
 595 326 595 326 607 436 c 2,9,-1
 607 540 l 1,0,-1
869 736 m 1,10,11
 884 655 884 655 884 559 c 0,12,13
 884 285 884 285 760 128 c 0,14,15
 636 -29 636 -29 418 -29 c 0,16,17
 220 -29 220 -29 101 130 c 0,18,19
 37 216 37 216 7 334 c 1,20,-1
 584 777 l 1,21,22
 568 818 568 818 542 846 c 0,23,24
 483 909 483 909 379 909 c 0,25,26
 294 909 294 909 205 876 c 0,27,28
 116 842 116 842 22 774 c 1,29,-1
 22 1050 l 1,30,31
 118 1098 118 1098 213 1122 c 0,32,33
 308 1147 308 1147 403 1147 c 0,34,35
 631 1147 631 1147 758 992 c 0,36,37
 777 969 777 969 793 942 c 1,38,-1
 958 1072 l 1,39,-1
 1108 1074 l 1,40,-1
 1108 903 l 2,41,42
 1108 678 1108 678 1111 671 c 0,43,44
 1140 616 1140 616 1193 616 c 2,45,-1
 1226 616 l 1,46,-1
 1226 436 l 1,47,-1
 1154 436 l 2,48,49
 1041 436 1041 436 982 547 c 0,50,51
 958 638 958 638 958 804 c 1,52,-1
 869 736 l 1,10,11
EndSplineSet
EndChar
StartChar: uni025B
Encoding: 603 603 603
Width: 1233
Flags: W
TeX: 0 0 0 0
Fore
424 573 m 1,0,1
 284 599 284 599 212 663 c 128,-1,40
 139 729 139 729 139 816 c 0,38,39
 139 989 139 989 279 1068 c 128,-1,37
 419 1147 419 1147 660 1147 c 0,35,36
 753 1147 753 1147 857 1135 c 128,-1,34
 963 1123 963 1123 1084 1099 c 1,32,33
 1084 863 l 1,31,-1
 948 894 948 894 864 903 c 128,-1,30
 756 915 756 915 752 915 c 0,28,29
 630 915 630 915 580 891 c 128,-1,27
 495 853 495 853 495 804 c 0,25,26
 495 735 495 735 578 705 c 128,-1,24
 640 681 640 681 744 681 c 2,22,23
 861 681 l 1,21,-1
 861 462 l 1,20,-1
 678 462 l 2,19,-1
 628 462 628 462 564 441 c 128,-1,18
 468 409 468 409 468 330 c 0,16,17
 468 241 468 241 571 216 c 128,-1,15
 606 201 606 201 719 201 c 0,13,14
 833 201 833 201 938 219 c 128,-1,12
 1043 236 1043 236 1131 270 c 1,10,11
 1131 34 l 1,9,-1
 1020 6 1020 6 916 -8 c 128,-1,8
 811 -22 811 -22 713 -22 c 0,6,7
 418 -22 418 -22 261 69 c 128,-1,5
 102 161 102 161 102 273 c 0,3,4
 102 402 102 402 187 476 c 128,-1,2
 272 550 272 550 424 573 c 1,0,1
EndSplineSet
EndChar
StartChar: uni025C
Encoding: 604 604 604
Width: 1233
Flags: W
TeX: 0 0 0 0
Fore
809 573 m 1,0,1
 961 550 961 550 1046 476 c 128,-1,2
 1131 402 1131 402 1131 273 c 0,3,4
 1131 161 1131 161 972 69 c 128,-1,5
 815 -22 815 -22 520 -22 c 0,6,7
 422 -22 422 -22 317 -8 c 128,-1,8
 213 6 213 6 102 34 c 1,9,-1
 102 270 l 1,10,11
 190 236 190 236 295 219 c 128,-1,12
 400 201 400 201 514 201 c 0,13,14
 627 201 627 201 662 216 c 128,-1,15
 765 241 765 241 765 330 c 0,16,17
 765 409 765 409 669 441 c 128,-1,18
 605 462 605 462 555 462 c 2,19,-1
 372 462 l 1,20,-1
 372 681 l 1,21,-1
 489 681 l 2,22,23
 593 681 593 681 655 705 c 128,-1,24
 738 735 738 735 738 804 c 0,25,26
 738 853 738 853 653 891 c 128,-1,27
 603 915 603 915 481 915 c 0,28,29
 477 915 477 915 369 903 c 128,-1,30
 285 894 285 894 149 863 c 1,31,-1
 149 1099 l 1,32,33
 270 1123 270 1123 376 1135 c 128,-1,34
 480 1147 480 1147 573 1147 c 0,35,36
 814 1147 814 1147 954 1068 c 128,-1,37
 1094 989 1094 989 1094 816 c 0,38,39
 1094 729 1094 729 1021 663 c 128,-1,40
 949 599 949 599 809 573 c 1,0,1
EndSplineSet
EndChar
StartChar: uni025D
Encoding: 605 605 605
Width: 1233
Flags: W
TeX: 0 0 0 0
Fore
579 573 m 1,0,1
 693 550 693 550 756 476 c 0,2,3
 820 402 820 402 820 273 c 0,4,5
 820 161 820 161 701 69 c 0,6,7
 584 -22 584 -22 362 -22 c 0,8,9
 288 -22 288 -22 210 -8 c 0,10,11
 132 6 132 6 48 34 c 1,12,-1
 48 270 l 1,13,14
 115 236 115 236 193 219 c 0,15,16
 272 201 272 201 357 201 c 0,17,18
 429 201 429 201 468 216 c 0,19,20
 546 246 546 246 546 330 c 0,21,22
 546 409 546 409 473 441 c 0,23,24
 426 462 426 462 388 462 c 2,25,-1
 251 462 l 1,26,-1
 251 681 l 1,27,-1
 339 681 l 2,28,29
 414 681 414 681 463 705 c 0,30,31
 526 735 526 735 526 804 c 0,32,33
 526 850 526 850 462 891 c 0,34,35
 424 915 424 915 333 915 c 0,36,37
 330 915 330 915 248 903 c 0,38,39
 186 894 186 894 84 863 c 1,40,-1
 84 1099 l 1,41,42
 174 1123 174 1123 254 1135 c 0,43,44
 333 1147 333 1147 402 1147 c 0,45,46
 582 1147 582 1147 687 1068 c 0,47,48
 749 1022 749 1022 774 944 c 1,49,-1
 933 1072 l 1,50,-1
 1083 1074 l 1,51,-1
 1083 903 l 2,52,53
 1083 690 1083 690 1092 671 c 0,54,55
 1120 616 1120 616 1152 616 c 2,56,-1
 1185 616 l 1,57,-1
 1185 436 l 1,58,-1
 1113 436 l 2,59,60
 1023 436 1023 436 963 547 c 0,61,62
 933 638 933 638 933 804 c 1,63,-1
 699 623 l 1,64,-1
 698 626 l 1,65,66
 650 590 650 590 579 573 c 1,0,1
EndSplineSet
EndChar
StartChar: uni025E
Encoding: 606 606 606
Width: 1233
Flags: W
TeX: 0 0 0 0
Fore
649 915 m 0,28,29
 384 915 384 915 383 552 c 1,0,0
 383 188 383 188 681 188 c 0,28,29
 751 188 751 188 791 216 c 128,-1,27
 844 253 844 253 844 316 c 0,25,26
 844 388 844 388 786 420 c 128,-1,24
 748 442 748 442 674 442 c 2,22,23
 542 442 l 9,0,0
 542 661 l 1,21,-1
 675 661 l 2,22,23
 739 661 739 661 781 684 c 128,-1,24
 844 718 844 718 844 792 c 0,25,26
 844 847 844 847 785 882 c 128,-1,27
 728 916 728 916 649 915 c 0,28,29
409 1099 m 0,32,33
 498 1144 498 1144 696 1145 c 0,35,36
 904 1145 904 1145 1015 1059 c 128,-1,37
 1125 972 1125 972 1125 824 c 0,38,39
 1125 726 1125 726 1067 650 c 128,-1,40
 1011 578 1011 578 876 552 c 1,0,1
 1007 526 1007 526 1067 453 c 128,-1,40
 1125 382 1125 382 1125 279 c 0,38,39
 1125 131 1125 131 1015 45 c 128,-1,37
 906 -41 906 -41 696 -42 c 0,35,36
 498 -43 498 -43 409 18 c 0,0,0
 108 220 108 220 108 552 c 0,0,0
 108 948 108 948 409 1099 c 0,32,33
EndSplineSet
EndChar
StartChar: uni025F
Encoding: 607 607 607
Width: 1233
Flags: W
Fore
468 1120 m 1,0,-1
 826 1120 l 1,1,-1
 826 256 l 1,2,-1
 1004 256 l 1,3,-1
 1004 0 l 1,4,-1
 826 0 l 1,5,6
 822 -210 822 -210 718 -324 c 0,7,8
 610 -442 610 -442 406 -442 c 2,9,-1
 228 -442 l 1,10,-1
 228 -207 l 1,11,-1
 290 -207 l 2,12,13
 392 -207 392 -207 430 -161 c 0,14,15
 466 -118 466 -118 468 -0 c 1,16,-1
 256 0 l 1,17,-1
 256 256 l 1,18,-1
 468 256 l 1,19,-1
 468 1120 l 1,0,-1
EndSplineSet
EndChar
StartChar: uni0260
Encoding: 608 608 608
Width: 1233
Flags: W
TeX: 0 0 0 0
Fore
502 887 m 2,0,1
 413 887 413 887 364 805 c 0,2,3
 314 723 314 723 314 573 c 0,4,5
 314 419 314 419 362 340 c 0,6,7
 410 260 410 260 502 260 c 0,8,9
 592 260 592 260 641 342 c 0,10,11
 691 424 691 424 691 573 c 2,12,-1
 691 887 l 1,13,-1
 502 887 l 2,0,1
691 190 m 1,14,15
 632 92 632 92 560 46 c 0,16,17
 489 0 489 0 396 0 c 0,18,19
 232 0 232 0 124 162 c 0,20,21
 17 323 17 323 17 573 c 0,22,23
 17 799 17 799 124 960 c 0,24,25
 232 1120 232 1120 396 1120 c 2,26,-1
 691 1120 l 1,27,-1
 693 1120 l 1,28,29
 698 1324 698 1324 780 1438 c 0,30,31
 867 1556 867 1556 991 1556 c 2,32,-1
 1216 1556 l 1,33,-1
 1216 1321 l 1,34,-1
 1083 1321 l 2,35,36
 1041 1321 1041 1321 1011 1275 c 0,37,38
 980 1229 980 1229 980 1094 c 2,39,-1
 980 874 l 1,40,-1
 979 874 l 1,41,-1
 979 113 l 2,42,43
 979 -141 979 -141 842 -284 c 0,44,45
 706 -426 706 -426 447 -426 c 0,46,47
 363 -426 363 -426 284 -410 c 0,48,49
 206 -394 206 -394 127 -361 c 1,50,-1
 127 -98 l 1,51,52
 202 -152 202 -152 274 -178 c 0,53,54
 346 -205 346 -205 419 -205 c 0,55,56
 560 -205 560 -205 625 -128 c 0,57,58
 691 -51 691 -51 691 113 c 2,59,-1
 691 190 l 1,14,15
EndSplineSet
EndChar
StartChar: uni0261
Encoding: 609 609 609
Width: 1233
Flags: W
TeX: 0 0 0 0
Fore
814 190 m 1,0,1
 753 92 753 92 680 46 c 128,-1,2
 607 0 607 0 512 0 c 0,3,4
 343 0 343 0 234 162 c 128,-1,5
 124 323 124 323 124 573 c 0,6,7
 124 799 124 799 234 960 c 128,-1,8
 343 1120 343 1120 512 1120 c 2,9,10
 814 1120 l 1,13,-1
 1109 1120 l 1,14,-1
 1109 113 l 2,15,16
 1109 -141 1109 -141 970 -284 c 128,-1,17
 830 -426 830 -426 564 -426 c 0,18,19
 478 -426 478 -426 398 -410 c 128,-1,20
 317 -394 317 -394 236 -361 c 1,21,-1
 236 -98 l 1,22,23
 313 -152 313 -152 387 -178 c 128,-1,24
 461 -205 461 -205 535 -205 c 0,25,26
 680 -205 680 -205 747 -128 c 128,-1,27
 814 -51 814 -51 814 113 c 2,28,-1
 814 190 l 1,0,1
621 887 m 1,29,30
 530 887 530 887 479 805 c 128,-1,31
 428 723 428 723 428 573 c 0,32,33
 428 419 428 419 477 340 c 128,-1,34
 526 260 526 260 621 260 c 0,35,36
 712 260 712 260 763 342 c 128,-1,37
 814 424 814 424 814 573 c 1,38,39
 814 887 l 129,-1,40
 621 887 l 1,29,30
EndSplineSet
EndChar
StartChar: uni0262
Encoding: 610 610 610
Width: 1233
Flags: W
TeX: 0 0 0 0
Fore
1079 101 m 1,0,1
 986 51 986 51 885 25 c 128,-1,2
 785 0 785 0 678 0 c 0,3,4
 436 0 436 0 295 151 c 128,-1,5
 154 301 154 301 154 559 c 0,6,7
 154 820 154 820 298 970 c 128,-1,8
 442 1119 442 1119 692 1119 c 0,9,10
 788 1119 788 1119 877 1099 c 128,-1,11
 965 1079 965 1079 1044 1039 c 1,12,-1
 1044 803 l 1,13,14
 963 852 963 852 883 876 c 128,-1,15
 802 900 802 900 722 900 c 0,16,17
 573 900 573 900 492 811 c 128,-1,18
 412 723 412 723 412 559 c 0,19,20
 412 397 412 397 489 308 c 128,-1,21
 567 219 567 219 710 219 c 0,22,23
 749 219 749 219 783 225 c 128,-1,24
 816 230 816 230 843 241 c 1,25,-1
 841 409 l 1,26,-1
 593 409 l 1,27,-1
 593 630 l 1,28,-1
 1079 630 l 1,29,-1
 1079 101 l 1,0,1
EndSplineSet
EndChar
StartChar: uni0263
Encoding: 611 611 611
Width: 1233
Flags: W
TeX: 0 0 0 0
Fore
791 590 m 1,5,-1
 1034 208 1034 208 1036 -179 c 0,0,0
 1037 -411 1037 -411 628 -415 c 0,0,0
 178 -420 178 -420 177 -179 c 0,0,0
 176 163 176 163 442 588 c 1,0,0
 98 1135 l 1,0,-1
 421 1135 l 1,1,-1
 615 803 l 1,2,-1
 812 1135 l 1,3,-1
 1135 1135 l 1,4,-1
 791 590 l 1,5,-1
615 369 m 1,0,0
 424 59 424 59 427 -67 c 0,0,0
 429 -191 429 -191 610 -191 c 16,0,0
 784 -191 784 -191 784 -67 c 0,0,0
 784 95 784 95 615 369 c 1,0,0
EndSplineSet
EndChar
StartChar: uni0264
Encoding: 612 612 612
Width: 1233
Flags: W
TeX: 0 0 0 0
Fore
614 136 m 0,0,0
 659 136 659 136 659 223 c 0,0,0
 659 282 659 282 615 354 c 1,0,0
 571 280 571 280 571 223 c 0,0,0
 571 140 571 140 614 136 c 0,0,0
437 586 m 1,0,0
 98 1120 l 1,8,-1
 421 1120 l 1,9,-1
 615 788 l 1,10,-1
 812 1120 l 1,11,-1
 1135 1120 l 1,0,-1
 790 575 l 1,0,0
 941 336 941 336 942 132 c 0,0,0
 945 -120 945 -120 617 -120 c 0,0,0
 280 -120 280 -120 280 132 c 0,0,0
 280 344 280 344 437 586 c 1,0,0
EndSplineSet
EndChar
StartChar: uni0265
Encoding: 613 613 613
Width: 1233
Flags: W
Fore
167 391 m 2,0,-1
 167 1118 l 1,1,-1
 458 1118 l 1,2,-1
 458 436 l 2,3,4
 458 315 458 315 492 263 c 128,-1,5
 527 211 527 211 605 211 c 0,6,7
 685 211 685 211 730 282 c 128,-1,8
 775 352 775 352 775 477 c 2,9,-1
 775 1118 l 1,10,-1
 1066 1118 l 1,11,-1
 1066 -438 l 1,12,-1
 775 -438 l 1,13,-1
 775 166 l 1,14,15
 744 73 744 73 669 22 c 128,-1,16
 594 -29 594 -29 488 -29 c 0,17,18
 329 -29 329 -29 248 76 c 128,-1,19
 167 182 167 182 167 391 c 2,0,-1
EndSplineSet
EndChar
StartChar: uni0266
Encoding: 614 614 614
Width: 1233
Flags: W
Fore
1066 727 m 2,0,-1
 1066 0 l 1,1,-1
 775 0 l 1,2,-1
 775 682 l 2,3,4
 775 803 775 803 740 855 c 0,5,6
 706 907 706 907 628 907 c 0,7,8
 548 907 548 907 503 836 c 0,9,10
 458 766 458 766 458 641 c 2,11,-1
 458 0 l 1,12,-1
 167 0 l 1,13,-1
 167 1088 l 2,14,15
 167 1340 167 1340 258 1447 c 0,16,17
 348 1555 348 1555 558 1555 c 2,18,-1
 679 1555 l 1,19,-1
 679 1330 l 1,20,-1
 640 1330 l 2,21,22
 540 1330 540 1330 499 1275 c 0,23,24
 458 1220 458 1220 458 1088 c 2,25,-1
 458 952 l 1,26,27
 489 1045 489 1045 564 1096 c 0,28,29
 639 1147 639 1147 745 1147 c 0,30,31
 904 1147 904 1147 985 1042 c 0,32,33
 1066 936 1066 936 1066 727 c 2,0,-1
EndSplineSet
EndChar
StartChar: uni0267
Encoding: 615 615 615
Width: 1233
Flags: W
Fore
775 41 m 2,0,-1
 775 682 l 2,1,2
 775 803 775 803 740 855 c 0,3,4
 706 907 706 907 628 907 c 0,5,6
 548 907 548 907 503 836 c 0,7,8
 458 766 458 766 458 641 c 2,9,-1
 458 0 l 1,10,-1
 167 0 l 1,11,-1
 167 1088 l 2,12,13
 167 1340 167 1340 258 1447 c 0,14,15
 348 1555 348 1555 558 1555 c 2,16,-1
 679 1555 l 1,17,-1
 679 1330 l 1,18,-1
 640 1330 l 2,19,20
 540 1330 540 1330 499 1275 c 0,21,22
 458 1220 458 1220 458 1088 c 2,23,-1
 458 952 l 1,24,25
 489 1045 489 1045 564 1096 c 0,26,27
 639 1147 639 1147 745 1147 c 0,28,29
 904 1147 904 1147 985 1042 c 0,30,31
 1066 936 1066 936 1066 727 c 2,32,-1
 1065.37 8.693e-09 l 2,33,34
 1058.42 -219.918 1058.42 -219.918 975 -318 c 0,35,36
 885 -426 885 -426 675 -426 c 2,37,-1
 554 -426 l 1,38,-1
 554 -201 l 1,39,-1
 593 -201 l 2,40,41
 693 -201 693 -201 734 -146 c 0,42,43
 775 -91 775 -91 775 41 c 2,0,-1
EndSplineSet
EndChar
StartChar: uni0268
Encoding: 616 616 616
Width: 1233
Flags: W
Fore
406 1556 m 1,0,-1
 764 1556 l 1,1,-1
 764 1264 l 1,2,-1
 406 1264 l 1,3,-1
 406 1556 l 1,0,-1
184 1120 m 1,4,-1
 764 1120 l 1,5,-1
 764 632 l 1,6,-1
 966 632 l 1,7,-1
 966 438 l 1,8,-1
 764 438 l 1,9,-1
 764 225 l 1,10,-1
 1128 225 l 1,11,-1
 1128 0 l 1,12,-1
 106 0 l 1,13,-1
 106 225 l 1,14,-1
 470 225 l 1,15,-1
 470 438 l 1,16,-1
 406 438 l 1,17,-1
 192 438 l 1,18,-1
 192 632 l 1,19,-1
 470 632 l 1,20,-1
 470 895 l 1,21,-1
 184 895 l 1,22,-1
 184 1120 l 1,4,-1
EndSplineSet
EndChar
StartChar: uni0269
Encoding: 617 617 617
Width: 1233
Flags: W
TeX: 0 0 0 0
Fore
430 895 m 1,0,-1
 144 895 l 1,1,-1
 144 1120 l 1,2,-1
 724 1120 l 1,3,-1
 724 460 l 2,4,5
 724 318 724 318 762 272 c 0,6,7
 800 227 800 227 902 226 c 2,8,-1
 1088 225 l 1,9,-1
 1088 -3 l 1,10,-1
 854 -3 l 2,11,12
 649 -3 649 -3 540 115 c 0,13,14
 430 235 430 235 430 459 c 2,15,-1
 430 895 l 1,0,-1
EndSplineSet
EndChar
StartChar: uni026A
Encoding: 618 618 618
Width: 1233
Flags: W
TeX: 0 0 0 0
Fore
764 895 m 1,0,-1
 764 225 l 1,1,-1
 1128 225 l 1,2,-1
 1128 0 l 1,3,-1
 106 0 l 1,4,-1
 106 225 l 1,5,-1
 470 225 l 1,6,-1
 470 895 l 1,7,-1
 106 895 l 1,8,-1
 106 1120 l 1,9,-1
 1128 1120 l 1,10,-1
 1128 895 l 1,11,-1
 764 895 l 1,0,-1
EndSplineSet
EndChar
StartChar: uni026B
Encoding: 619 619 619
Width: 1233
Flags: W
Fore
1144 811 m 1,0,-1
 1144 578 l 1,1,2
 1070 518 1070 518 998 490 c 0,3,4
 926 463 926 463 848 463 c 0,5,6
 794.276 463 794.276 463 732 481.173 c 1,7,-1
 732 465 l 2,8,9
 732 333 732 333 772 278 c 0,10,11
 814 223 814 223 912 223 c 2,12,-1
 1146 223 l 1,13,-1
 1146 -2 l 1,14,-1
 830 -2 l 2,15,16
 620 -2 620 -2 530 106 c 0,17,18
 438 214 438 214 438 465 c 2,19,-1
 438 582.227 l 1,20,21
 409.157 586 409.157 586 380 586 c 0,22,23
 302 586 302 586 232 557 c 0,24,25
 162 528 162 528 88 465 c 1,26,-1
 88 694 l 1,27,28
 166 755 166 755 238 782 c 0,29,30
 312 809 312 809 394 809 c 0,31,32
 416.342 809 416.342 809 438 807.117 c 1,33,-1
 438 1329 l 1,34,-1
 142 1329 l 1,35,-1
 142 1554 l 1,36,-1
 732 1554 l 1,37,-1
 732 709.404 l 1,38,39
 802.681 686 802.681 686 864 686 c 0,40,41
 934 686 934 686 1002 716 c 0,42,43
 1072 747 1072 747 1144 811 c 1,0,-1
EndSplineSet
EndChar
StartChar: uni026C
Encoding: 620 620 620
Width: 1233
Flags: W
TeX: 0 0 0 0
Fore
386 816 m 0,0,1
 358 842 358 842 327 842 c 0,2,3
 268.054 842 268.054 842 269 792 c 0,4,5
 270.06 736 270.06 736 320 736 c 2,6,-1
 416 736 l 1,7,8
 404 799 404 799 386 816 c 0,0,1
711 579.043 m 1,9,-1
 711 467 l 2,10,11
 711 335 711 335 752 280 c 0,12,13
 793 225 793 225 891 225 c 2,14,-1
 1125 225 l 1,15,-1
 1125 0 l 1,16,-1
 809 0 l 2,17,18
 600 0 600 0 509 108 c 0,19,20
 418 216 418 216 418 467 c 2,21,-1
 418 578 l 1,22,-1
 295 578 l 2,23,24
 111 579 111 579 108 786 c 0,25,26
 106 1020 106 1020 315 1019 c 0,27,28
 379 1018 379 1018 418 977 c 1,29,-1
 418 1331 l 1,30,-1
 121 1331 l 1,31,-1
 121 1556 l 1,32,-1
 711 1556 l 1,33,-1
 711 736 l 1,34,-1
 980 736 l 1,35,-1
 980 580 l 1,36,-1
 711 579.043 l 1,9,-1
EndSplineSet
EndChar
StartChar: uni026D
Encoding: 621 621 621
Width: 1233
Flags: W
Fore
412 23 m 2,0,-1
 412 1331 l 1,1,-1
 114 1331 l 1,2,-1
 114 1556 l 1,3,-1
 704 1556 l 1,4,-1
 704 23 l 2,5,6
 704 -109 704 -109 746 -164 c 128,-1,7
 786 -219 786 -219 884 -219 c 2,8,-1
 1118 -219 l 1,9,-1
 1118 -444 l 1,10,-1
 802 -444 l 2,11,12
 594 -444 594 -444 502 -336 c 128,-1,13
 412 -228 412 -228 412 23 c 2,0,-1
EndSplineSet
EndChar
StartChar: uni026E
Encoding: 622 622 622
Width: 1233
Flags: W
TeX: 0 0 0 0
Fore
597.75 452 m 1,0,-1
 890.25 901 l 1,1,-1
 468.75 901 l 1,2,-1
 468.75 467 l 2,3,4
 468.75 335 468.75 335 499.5 280 c 0,5,6
 530.25 225 530.25 225 603.75 225 c 2,7,-1
 779.25 225 l 1,8,-1
 779.25 0 l 1,9,-1
 542.25 0 l 2,10,11
 385.5 0 385.5 0 317.25 108 c 0,12,13
 249 216 249 216 249 467 c 2,14,-1
 249 1331 l 1,15,-1
 26.25 1331 l 1,16,-1
 26.25 1556 l 1,17,-1
 468.75 1556 l 1,18,-1
 468.75 1120 l 1,19,-1
 1137 1120 l 1,20,-1
 1137 891 l 1,21,-1
 843.75 436 l 1,22,23
 952.142 427.029 952.142 427.029 1011 404 c 0,24,25
 1094.29 371.41 1094.29 371.41 1153.5 258 c 0,26,27
 1206.75 156 1206.75 156 1206.75 13 c 0,28,29
 1206.75 -208.501 1206.75 -208.501 1092 -324 c 0,30,31
 976.752 -440 976.752 -440 756.75 -440 c 0,32,33
 679.5 -440 679.5 -440 601.5 -422 c 0,34,35
 523.5 -403 523.5 -403 447 -366 c 1,36,-1
 447 -69 l 1,37,38
 518.364 -121.972 518.364 -121.972 591.75 -150 c 0,39,40
 665.061 -178 665.061 -178 733.5 -178 c 0,41,42
 837 -178 837 -178 891.75 -125 c 0,43,44
 946.5 -72 946.5 -72 946.5 27 c 0,45,46
 946.5 129 946.5 129 890.25 182 c 0,47,48
 834 234 834 234 723.75 234 c 2,49,-1
 597.75 234 l 1,50,-1
 597.75 452 l 1,0,-1
EndSplineSet
EndChar
StartChar: uni026F
Encoding: 623 623 623
Width: 1233
Flags: W
Fore
545 112 m 1,0,1
 512 41 512 41 461 7 c 128,-1,2
 410 -27 410 -27 336 -27 c 0,3,4
 191 -27 191 -27 136 73 c 128,-1,5
 80 173 80 173 80 489 c 2,6,-1
 80 1120 l 1,7,-1
 320 1120 l 1,8,-1
 320 401 l 2,9,10
 320 276 320 276 339 234 c 128,-1,11
 358 192 358 192 408 192 c 0,12,13
 458 192 458 192 478 235 c 128,-1,14
 498 278 498 278 498 401 c 2,15,-1
 498 1120 l 1,16,-1
 735 1120 l 1,17,-1
 735 401 l 2,18,19
 735 278 735 278 755 235 c 128,-1,20
 775 192 775 192 825 192 c 0,21,22
 875 192 875 192 894 234 c 128,-1,23
 913 276 913 276 913 401 c 2,24,-1
 913 1120 l 1,25,-1
 1153 1120 l 1,26,-1
 1153 0 l 1,27,-1
 940 0 l 1,28,-1
 940 116 l 1,29,30
 915 50 915 50 860 12 c 128,-1,31
 805 -27 805 -27 737 -27 c 0,32,33
 669 -27 669 -27 613 14 c 128,-1,34
 557 54 557 54 545 112 c 1,0,1
EndSplineSet
EndChar
StartChar: uni0270
Encoding: 624 624 624
Width: 1233
Flags: W
Fore
545 112 m 1,0,1
 512 41 512 41 461 7 c 128,-1,2
 410 -27 410 -27 336 -27 c 0,3,4
 191 -27 191 -27 136 73 c 128,-1,5
 80 173 80 173 80 489 c 2,6,-1
 80 1120 l 1,7,-1
 320 1120 l 1,8,-1
 320 401 l 2,9,10
 320 276 320 276 339 234 c 128,-1,11
 358 192 358 192 408 192 c 0,12,13
 458 192 458 192 478 235 c 128,-1,14
 498 278 498 278 498 401 c 2,15,-1
 498 1120 l 1,16,-1
 735 1120 l 1,17,-1
 735 401 l 2,18,19
 735 278 735 278 755 235 c 128,-1,20
 775 192 775 192 825 192 c 0,21,22
 875 192 875 192 894 234 c 128,-1,23
 913 276 913 276 913 401 c 2,24,-1
 913 1120 l 1,25,-1
 1153 1120 l 1,26,-1
 1153 -426 l 1,27,-1
 940 -426 l 1,28,-1
 940 116 l 1,29,30
 915 50 915 50 860 12 c 128,-1,31
 805 -27 805 -27 737 -27 c 0,32,33
 669 -27 669 -27 613 14 c 128,-1,34
 557 54 557 54 545 112 c 1,0,1
EndSplineSet
EndChar
StartChar: uni0271
Encoding: 625 625 625
Width: 1233
Flags: W
Fore
688 1008 m 1,0,1
 721 1078.5 721 1078.5 772 1113 c 0,2,3
 822.261 1147 822.261 1147 897 1147 c 0,4,5
 1042.78 1147 1042.78 1147 1098 1047 c 0,6,7
 1153 947.405 1153 947.405 1153 631 c 2,8,-1
 1153 0 l 2,9,10
 1148.54 -218.317 1148.54 -218.317 1078 -318 c 0,11,12
 1004.5 -426 1004.5 -426 830 -426 c 2,13,-1
 731 -426 l 1,14,-1
 731 -201 l 1,15,-1
 763 -201 l 2,16,17
 844.811 -201 844.811 -201 879 -146 c 0,18,19
 913 -91.3043 913 -91.3043 913 41 c 2,20,-1
 913 719 l 2,21,22
 913 845.077 913 845.077 894 886 c 0,23,24
 874.5 928 874.5 928 825 928 c 0,25,26
 774.276 928 774.276 928 755 885 c 0,27,28
 735 840.385 735 840.385 735 719 c 2,29,-1
 735 0 l 1,30,-1
 498 0 l 1,31,-1
 498 719 l 2,32,33
 498 840.385 498 840.385 478 885 c 0,34,35
 458.724 928 458.724 928 408 928 c 0,36,37
 358.5 928 358.5 928 339 886 c 0,38,39
 320 845.077 320 845.077 320 719 c 2,40,-1
 320 0 l 1,41,-1
 80 0 l 1,42,-1
 80 1120 l 1,43,-1
 293 1120 l 1,44,-1
 293 1004 l 1,45,46
 319.115 1071.59 319.115 1071.59 373 1108 c 0,47,48
 428.5 1147 428.5 1147 496 1147 c 0,49,50
 563.815 1147 563.815 1147 620 1106 c 0,51,52
 676.329 1064.89 676.329 1064.89 688 1008 c 1,0,1
EndSplineSet
EndChar
StartChar: uni0272
Encoding: 626 626 626
Width: 1233
Flags: W
Fore
1169 682 m 2,0,-1
 1169 0 l 1,1,-1
 872 0 l 1,2,-1
 872 111 l 1,3,-1
 872 522 l 2,4,5
 872 667 872 667 867 722 c 0,6,7
 861 777 861 777 848 803 c 0,8,9
 831 838 831 838 801 858 c 0,10,11
 771 877 771 877 733 877 c 0,12,13
 641 877 641 877 588 790 c 0,14,15
 535 704 535 704 535 551 c 2,16,-1
 535 240 l 1,17,-1
 535 20 l 1,18,-1
 535 0 l 2,19,20
 535 -203 535 -203 445 -324 c 0,21,22
 356 -442 356 -442 186 -442 c 2,23,-1
 64 -442 l 1,24,-1
 64 -207 l 1,25,-1
 92 -207 l 2,26,27
 174 -207 174 -207 207 -161 c 0,28,29
 240 -115 240 -115 240 20 c 2,30,-1
 240 240 l 1,31,-1
 240 1120 l 1,32,-1
 535 1120 l 1,33,-1
 535 956 l 1,34,35
 602 1054 602 1054 677 1100 c 0,36,37
 752 1147 752 1147 843 1147 c 0,38,39
 1003 1147 1003 1147 1086 1028 c 0,40,41
 1169 909 1169 909 1169 682 c 2,0,-1
EndSplineSet
EndChar
StartChar: uni0273
Encoding: 627 627 627
Width: 1233
Flags: W
Fore
695 722 m 2,0,1
 695 767 695 767 676 803 c 0,2,3
 657 839 657 839 629 858 c 0,4,5
 600 877 600 877 561 877 c 0,6,7
 476 877 476 877 416 790 c 0,8,9
 363 715 363 715 363 551 c 2,10,-1
 363 0 l 1,11,-1
 68 0 l 1,12,-1
 68 1120 l 1,13,-1
 363 1120 l 1,14,-1
 363 956 l 1,15,16
 430 1054 430 1054 505 1100 c 0,17,18
 581 1147 581 1147 671 1147 c 0,19,20
 832 1147 832 1147 914 1028 c 0,21,22
 997 908 997 908 997 682 c 2,23,-1
 997 20 l 2,24,25
 997 -114 997 -114 1028 -161 c 0,26,27
 1058 -207 1058 -207 1143 -207 c 2,28,-1
 1165 -207 l 1,29,-1
 1165 -442 l 1,30,-1
 1048 -442 l 2,31,32
 879 -442 879 -442 790 -324 c 0,33,34
 695 -196 695 -196 695 0 c 2,35,-1
 695 722 l 2,0,1
EndSplineSet
EndChar
StartChar: uni0274
Encoding: 628 628 628
Width: 1233
Flags: W
TeX: 0 0 0 0
Fore
120 1120 m 1,0,-1
 507 1120 l 1,1,-1
 784 469 l 1,2,-1
 784 1120 l 1,3,-1
 1113 1120 l 1,4,-1
 1113 0 l 1,5,-1
 726 0 l 1,6,-1
 449 651 l 1,7,-1
 449 0 l 1,8,-1
 120 0 l 1,9,-1
 120 1120 l 1,0,-1
EndSplineSet
EndChar
StartChar: uni0275
Encoding: 629 629 629
Width: 1233
Flags: W
Fore
98 559 m 0,0,1
 98 830 98 830 238 988 c 0,2,3
 379 1147 379 1147 616 1147 c 0,4,5
 854 1147 854 1147 994 988 c 0,6,7
 1135 830 1135 830 1135 559 c 0,8,9
 1135 288 1135 288 994 130 c 0,10,11
 854 -29 854 -29 616 -29 c 0,12,13
 379 -29 379 -29 238 130 c 0,14,15
 98 288 98 288 98 559 c 0,0,1
616 909 m 0,16,17
 511.326 909 511.326 909 451 816 c 0,18,19
 405.044 745.153 405.044 745.153 394.284 632 c 1,20,-1
 802 632 l 1,21,-1
 838.716 632 l 1,22,23
 827.956 745.153 827.956 745.153 782 816 c 0,24,25
 721.674 909 721.674 909 616 909 c 0,16,17
832.23 438 m 1,26,-1
 444 438 l 1,27,-1
 400.77 438 l 1,28,29
 415.218 357.163 415.218 357.163 451 302 c 0,30,31
 511.326 209 511.326 209 616 209 c 0,32,33
 721.674 209 721.674 209 782 302 c 0,34,35
 817.782 357.163 817.782 357.163 832.23 438 c 1,26,-1
EndSplineSet
EndChar
StartChar: uni0276
Encoding: 630 630 630
Width: 1233
Flags: W
TeX: 0 0 0 0
Fore
622 902 m 1,0,-1
 547 902 l 2,1,2
 430 902 430 902 372 817 c 128,-1,3
 314 732 314 732 314 561 c 0,4,5
 314 389 314 389 372 304 c 128,-1,6
 430 218 430 218 547 218 c 2,7,-1
 622 218 l 1,8,-1
 622 902 l 1,0,-1
575 1120 m 2,9,-1
 1146 1120 l 1,10,-1
 1146 902 l 1,11,-1
 865 902 l 1,12,-1
 865 693 l 1,13,-1
 1127 693 l 1,14,-1
 1127 475 l 1,15,-1
 865 475 l 1,16,-1
 865 218 l 1,17,-1
 1158 218 l 1,18,-1
 1158 0 l 1,19,-1
 575 0 l 2,20,21
 569 0 569 0 557 -1 c 128,-1,22
 545 -2 545 -2 539 -2 c 0,23,24
 315 -2 315 -2 195 144 c 128,-1,25
 75 290 75 290 75 561 c 0,26,27
 75 831 75 831 195 976 c 128,-1,28
 315 1121 315 1121 539 1121 c 0,29,30
 544 1121 544 1121 557 1120 c 128,-1,31
 569 1120 569 1120 575 1120 c 2,9,-1
EndSplineSet
EndChar
StartChar: uni0277
Encoding: 631 631 631
Width: 1233
Flags: W
TeX: 0 0 0 0
Fore
813 566 m 0,28,29
 813 919 813 919 617 920 c 1,0,0
 420 920 420 920 420 564 c 0,28,29
 420 404 420 404 435 334 c 128,-1,27
 450 264 450 264 470 264 c 0,25,26
 501 264 501 264 511 342 c 128,-1,24
 518 399 518 399 518 490 c 2,22,23
 518 596 l 9,0,0
 715 596 l 1,21,-1
 715 488 l 2,22,23
 715 392 715 392 722 347 c 128,-1,24
 735 264 735 264 759 264 c 0,25,26
 783 263 783 263 795 343 c 128,-1,27
 813 461 813 461 813 566 c 0,28,29
1109 828 m 0,32,33
 1150 725 1150 725 1151 496 c 0,35,36
 1151 255 1151 255 1073 128 c 128,-1,37
 995 0 995 0 862 0 c 0,38,39
 773 0 773 0 705 68 c 128,-1,40
 641 132 641 132 617 288 c 1,0,1
 593 137 593 137 528 68 c 128,-1,40
 464 0 464 0 371 0 c 0,38,39
 238 0 238 0 161 128 c 128,-1,37
 83 254 83 254 82 496 c 0,35,36
 81 709 81 709 125 828 c 0,0,0
 251 1176 251 1176 617 1176 c 0,0,0
 973 1176 973 1176 1109 828 c 0,32,33
EndSplineSet
EndChar
StartChar: uni0278
Encoding: 632 632 632
Width: 1233
Flags: W
TeX: 0 0 0 0
Fore
20 559 m 0,0,1
 20 830 20 830 182 988 c 0,2,3
 297.286 1101.85 297.286 1101.85 470 1134.18 c 1,4,-1
 470 1335 l 1,5,-1
 173 1335 l 1,6,-1
 173 1560 l 1,7,-1
 470 1560 l 1,8,-1
 763 1560 l 1,9,-1
 1060 1560 l 1,10,-1
 1060 1335 l 1,11,-1
 763 1335 l 1,12,-1
 763 1134.09 l 1,13,14
 935.885 1101.69 935.885 1101.69 1051 988 c 0,15,16
 1213 830 1213 830 1213 559 c 0,17,18
 1213 288 1213 288 1051 130 c 0,19,20
 935.885 16.3145 935.885 16.3145 763 -16.0855 c 1,21,-1
 763 -201 l 1,22,-1
 1060 -201 l 1,23,-1
 1060 -426 l 1,24,-1
 763 -426 l 1,25,-1
 470 -426 l 1,26,-1
 173 -426 l 1,27,-1
 173 -201 l 1,28,-1
 470 -201 l 1,29,-1
 470 -16.1814 l 1,30,31
 297.286 16.1459 297.286 16.1459 182 130 c 0,32,33
 20 288 20 288 20 559 c 0,0,1
470 246.486 m 1,34,-1
 470 871.514 l 1,35,36
 434.662 849.956 434.662 849.956 406.95 816 c 0,37,38
 331.05 724 331.05 724 331.05 559 c 0,39,40
 331.05 394 331.05 394 406.95 302 c 0,41,42
 434.662 268.044 434.662 268.044 470 246.486 c 1,34,-1
763 871.425 m 1,43,-1
 763 246.575 l 1,44,45
 798.395 268.114 798.395 268.114 826.05 302 c 0,46,47
 901.95 394 901.95 394 901.95 559 c 0,48,49
 901.95 724 901.95 724 826.05 816 c 0,50,51
 798.395 849.886 798.395 849.886 763 871.425 c 1,43,-1
EndSplineSet
EndChar
StartChar: uni0279
Encoding: 633 633 633
Width: 1233
Flags: W
Fore
186 309 m 1,0,1
 234 265 234 265 299 243 c 128,-1,2
 364 221 364 221 440 221 c 0,3,4
 534 221 534 221 603 254 c 128,-1,5
 672 286 672 286 710 348 c 0,6,7
 734 386 734 386 744 440 c 128,-1,8
 754 494 754 494 754 604 c 2,9,-1
 754 1120 l 1,10,-1
 1046 1120 l 1,11,-1
 1046 0 l 1,12,-1
 754 0 l 1,13,-1
 754 174 l 1,14,15
 710 78 710 78 622 26 c 128,-1,16
 532 -27 532 -27 414 -27 c 0,17,18
 354 -27 354 -27 296 -12 c 128,-1,19
 238 2 238 2 186 30 c 1,20,-1
 186 309 l 1,0,1
EndSplineSet
EndChar
StartChar: uni027A
Encoding: 634 634 634
Width: 1233
Flags: W
Fore
186 309 m 1,0,1
 234 265 234 265 299 243 c 128,-1,2
 364 221 364 221 440 221 c 0,3,4
 534 221 534 221 603 254 c 128,-1,5
 672 286 672 286 710 348 c 0,6,7
 733 383 733 383 744 440 c 128,-1,8
 754 487 754 487 754 604 c 2,9,-1
 754 1554 l 1,10,-1
 1046 1554 l 1,11,-1
 1046 0 l 1,12,-1
 754 0 l 1,13,-1
 754 174 l 1,14,15
 710 78 710 78 622 26 c 128,-1,16
 532 -27 532 -27 414 -27 c 0,17,18
 354 -27 354 -27 296 -12 c 128,-1,19
 238 2 238 2 186 30 c 1,20,-1
 186 309 l 1,0,1
EndSplineSet
EndChar
StartChar: uni027B
Encoding: 635 635 635
Width: 1233
Flags: W
Fore
77 309 m 1,0,1
 124.702 265.274 124.702 265.274 190 243 c 0,2,3
 254.497 221 254.497 221 331 221 c 0,4,5
 424 221 424 221 494 254 c 0,6,7
 563 286 563 286 601 348 c 0,8,9
 625 386 625 386 634 440 c 0,10,11
 644 494 644 494 644 604 c 2,12,-1
 644 1120 l 1,13,-1
 937 1120 l 1,14,-1
 936.09 -1.28079e-08 l 2,15,16
 936.015 -92.3621 936.015 -92.3621 976 -146 c 0,17,18
 1017 -201 1017 -201 1117 -201 c 2,19,-1
 1156 -201 l 1,20,-1
 1156 -426 l 1,21,-1
 1035 -426 l 2,22,23
 825 -426 825 -426 735 -318 c 0,24,25
 651.585 -219.918 651.585 -219.918 644.632 6.79007e-07 c 1,26,-1
 644 0 l 1,27,-1
 644 41 l 1,28,-1
 644 174 l 1,29,30
 601 78 601 78 512 26 c 0,31,32
 423 -27 423 -27 304 -27 c 0,33,34
 244 -27 244 -27 186 -12 c 0,35,36
 129 2 129 2 77 30 c 1,37,-1
 77 309 l 1,0,1
EndSplineSet
EndChar
StartChar: uni027C
Encoding: 636 636 636
Width: 1233
Flags: W
Fore
1046 811 m 1,0,1
 998 855 998 855 934 877 c 128,-1,2
 870 899 870 899 792 899 c 0,3,4
 700 899 700 899 630 866 c 128,-1,5
 560 834 560 834 522 772 c 0,6,7
 498 734 498 734 489 680 c 128,-1,8
 480 626 480 626 480 516 c 2,9,-1
 480 -426 l 1,10,-1
 186 -426 l 1,11,-1
 186 1120 l 1,12,-1
 480 1120 l 1,13,-1
 480 946 l 1,14,15
 522 1042 522 1042 612 1094 c 128,-1,16
 700 1147 700 1147 820 1147 c 0,17,18
 880 1147 880 1147 937 1132 c 128,-1,19
 994 1118 994 1118 1046 1090 c 1,20,-1
 1046 811 l 1,0,1
EndSplineSet
EndChar
StartChar: uni027D
Encoding: 637 637 637
Width: 1233
Flags: W
Fore
1046 811 m 1,0,1
 998 855 998 855 934 877 c 0,2,3
 870 899 870 899 792 899 c 0,4,5
 700 899 700 899 630 866 c 0,6,7
 560 834 560 834 522 772 c 0,8,9
 498 734 498 734 489 680 c 0,10,11
 480 626 480 626 480 516 c 2,12,-1
 480 41 l 2,13,14
 480 -91.1852 480 -91.1852 520 -146 c 0,15,16
 561.622 -201 561.622 -201 664 -201 c 2,17,-1
 702 -201 l 1,18,-1
 702 -426 l 1,19,-1
 582 -426 l 2,20,21
 372 -426 372 -426 282 -318 c 0,22,23
 186 -206.262 186 -206.262 186 41 c 2,24,-1
 186 1120 l 1,25,-1
 480 1120 l 1,26,-1
 480 946 l 1,27,28
 522 1042 522 1042 612 1094 c 0,29,30
 700 1147 700 1147 820 1147 c 0,31,32
 880 1147 880 1147 937 1132 c 0,33,34
 994 1118 994 1118 1046 1090 c 1,35,-1
 1046 811 l 1,0,1
EndSplineSet
EndChar
StartChar: uni027E
Encoding: 638 638 638
Width: 1233
Flags: W
Fore
136 0 m 1,17,-1
 136 225 l 1,16,-1
 422 225 l 1,15,-1
 422 741 l 2,14,-1
 422 959 422 959 510 1040 c 128,-1,13
 600 1120 600 1120 852 1120 c 2,11,12
 1098 1120 l 1,10,-1
 1098 895 l 1,9,-1
 872 895 l 2,8,-1
 788 895 788 895 751 862 c 128,-1,7
 714 830 714 830 714 755 c 2,5,6
 714 225 l 1,4,-1
 1098 225 l 1,3,-1
 1098 0 l 1,2,-1
 136 0 l 1,17,-1
EndSplineSet
EndChar
StartChar: uni027F
Encoding: 639 639 639
Width: 1233
Flags: W
Fore
136 0 m 1,2,-1
 136 225 l 1,3,-1
 518 225 l 1,4,-1
 518 755 l 2,5,6
 518 830 518 830 482 862 c 128,-1,7
 446 895 446 895 360 895 c 2,8,-1
 136 895 l 1,9,-1
 136 1120 l 1,10,-1
 382 1120 l 2,11,12
 634 1120 634 1120 722 1040 c 128,-1,13
 812 959 812 959 812 741 c 2,14,-1
 812 225 l 1,15,-1
 1098 225 l 1,16,-1
 1098 0 l 1,17,-1
 136 0 l 1,2,-1
EndSplineSet
EndChar
StartChar: uni0280
Encoding: 640 640 640
Width: 1233
Flags: W
Fore
704 529 m 1,0,1
 746 521 746 521 776 498 c 0,2,3
 833 453 833 453 854 427 c 0,4,5
 864 415 864 415 872 403 c 2,6,-1
 1128 0 l 1,7,-1
 776 0 l 1,8,-1
 606 283 l 1,9,10
 598 295 598 295 586 316 c 0,11,12
 534 403 534 403 495 426 c 0,13,14
 468 442 468 442 432 442 c 2,15,-1
 414 442 l 1,16,-1
 414 0 l 1,17,-1
 104 0 l 1,18,-1
 104 1120 l 1,19,-1
 468 1120 l 2,20,21
 741 1120 741 1120 860 1043 c 0,22,23
 980 967 980 967 980 794 c 0,24,25
 980 678 980 678 908 610 c 0,26,27
 838 543 838 543 704 529 c 1,0,1
414 894 m 1,21,-1
 414 648 l 1,22,-1
 476 648 l 2,23,24
 563 648 563 648 604 676 c 2,25,26
 616 684 l 1,27,28
 665 724 665 724 666 782 c 0,29,30
 666 819 666 819 635 844 c 0,31,32
 628 850 628 850 616 858 c 0,33,34
 573 890 573 890 507 893 c 0,35,36
 493 894 493 894 476 894 c 2,37,-1
 414 894 l 1,21,-1
EndSplineSet
EndChar
StartChar: uni0281
Encoding: 641 641 641
Width: 1233
Flags: W
Fore
502 490 m 2,0,-1
 423 490 l 1,1,-1
 423 219 l 1,2,-1
 502 219 l 2,3,4
 593 219 593 219 632 249 c 0,5,6
 672 281 672 281 672 353 c 0,7,8
 672 426 672 426 632 458 c 0,9,10
 593 490 593 490 502 490 c 2,0,-1
423 711 m 1,11,-1
 460 711 l 2,12,13
 535 711 535 711 580 742 c 0,14,15
 623 771 623 771 660 842 c 2,16,-1
 805 1120 l 1,17,-1
 1168 1120 l 1,18,-1
 1001 802 l 2,19,20
 950 705 950 705 900 658 c 0,21,22
 850 610 850 610 787 596 c 1,23,24
 902 563 902 563 959 492 c 0,25,26
 1016 420 1016 420 1016 309 c 0,27,28
 1016 149 1016 149 906 74 c 0,29,30
 796 0 796 0 560 0 c 2,31,-1
 65 0 l 1,32,-1
 65 1120 l 1,33,-1
 423 1120 l 1,34,-1
 423 711 l 1,11,-1
EndSplineSet
EndChar
StartChar: uni0282
Encoding: 642 642 642
Width: 1233
Flags: W
TeX: 0 0 0 0
Fore
988 1085 m 1,0,-1
 988 829 l 1,1,2
 907 881 907 881 820 908 c 0,3,4
 732 934 732 934 644 934 c 0,5,6
 546 934 546 934 496 906 c 0,7,8
 446 877 446 877 446 821 c 0,9,10
 446 741 446 741 660 691 c 2,11,-1
 671 688 l 1,12,-1
 755 668 l 2,13,14
 915.108 629.879 915.108 629.879 990 546 c 0,15,16
 1064 461 1064 461 1064 317 c 0,17,18
 1064 144 1064 144 950 58 c 0,19,20
 837 -29 837 -29 609 -29 c 0,21,22
 545.859 -29 545.859 -29 480.764 -22.356 c 1,23,24
 488.646 -105.281 488.646 -105.281 519 -146 c 0,25,26
 560 -201 560 -201 660 -201 c 2,27,-1
 699 -201 l 1,28,-1
 699 -426 l 1,29,-1
 578 -426 l 2,30,31
 368 -426 368 -426 278 -318 c 0,32,33
 187 -211 187 -211 187 41 c 2,34,-1
 187 297 l 1,35,36
 284 242 284 242 384 213 c 0,37,38
 485 184 485 184 579 184 c 0,39,40
 682 184 682 184 735 214 c 0,41,42
 788 244 788 244 788 301 c 0,43,44
 788 357 788 357 750 387 c 0,45,46
 713 417 713 417 572 451 c 2,47,-1
 491 469 l 2,48,49
 323 507 323 507 246 588 c 0,50,51
 169 669 169 669 169 805 c 0,52,53
 169 967 169 967 286 1057 c 0,54,55
 403 1147 403 1147 615 1147 c 0,56,57
 710 1147 710 1147 804 1132 c 0,58,59
 899 1116 899 1116 988 1085 c 1,0,-1
EndSplineSet
EndChar
StartChar: uni0283
Encoding: 643 643 643
Width: 1233
Flags: W
Fore
798 0 m 2,0,1
 792.064 -216.651 792.064 -216.651 708 -316 c 0,2,3
 616.5 -424 616.5 -424 407 -424 c 2,4,-1
 91 -424 l 1,5,-1
 91 -199 l 1,6,-1
 325 -199 l 2,7,8
 423.865 -199 423.865 -199 464 -144 c 0,9,10
 505 -87.8148 505 -87.8148 505 43 c 2,11,-1
 505 1198 l 2,12,13
 505 1400 505 1400 589 1478 c 0,14,15
 673 1556 673 1556 901 1556 c 2,16,-1
 1142 1556 l 1,17,-1
 1142 1331 l 1,18,-1
 913 1331 l 2,19,20
 846.5 1331 846.5 1331 824 1307 c 0,21,22
 799.5 1282.5 799.5 1282.5 798 1218 c 2,23,-1
 798 0 l 2,0,1
EndSplineSet
EndChar
StartChar: uni0284
Encoding: 644 644 644
Width: 1233
Flags: W
Fore
798 895 m 1,0,-1
 798 -0 l 2,1,2
 790.518 -218.479 790.518 -218.479 708 -316 c 0,3,4
 616.5 -424 616.5 -424 407 -424 c 2,5,-1
 91 -424 l 1,6,-1
 91 -199 l 1,7,-1
 325 -199 l 2,8,9
 423.865 -199 423.865 -199 464 -144 c 0,10,11
 505 -87.8148 505 -87.8148 505 43 c 2,12,-1
 505 895 l 1,13,-1
 233 895 l 1,14,-1
 233 1120 l 1,15,-1
 505 1120 l 1,16,-1
 505 1198 l 2,17,18
 505 1400 505 1400 589 1478 c 0,19,20
 673 1556 673 1556 901 1556 c 2,21,-1
 1142 1556 l 1,22,-1
 1142 1331 l 1,23,-1
 913 1331 l 2,24,25
 846.5 1331 846.5 1331 824 1307 c 0,26,27
 799.5 1282.5 799.5 1282.5 798 1218 c 2,28,-1
 798 1120 l 1,29,-1
 1142 1120 l 1,30,-1
 1142 895 l 1,31,-1
 798 895 l 1,0,-1
EndSplineSet
EndChar
StartChar: uni0285
Encoding: 645 645 645
Width: 1233
Flags: W
Fore
435 0 m 2,0,-1
 435 1218 l 2,1,2
 433.5 1282.5 433.5 1282.5 409 1307 c 0,3,4
 386.5 1331 386.5 1331 320 1331 c 2,5,-1
 91 1331 l 1,6,-1
 91 1556 l 1,7,-1
 332 1556 l 2,8,9
 560 1556 560 1556 644 1478 c 0,10,11
 728 1400 728 1400 728 1198 c 2,12,-1
 728 43 l 2,13,14
 728 -87.8145 728 -87.8145 769 -144 c 0,15,16
 809.135 -199 809.135 -199 908 -199 c 2,17,-1
 1142 -199 l 1,18,-1
 1142 -424 l 1,19,-1
 826 -424 l 2,20,21
 616.5 -424 616.5 -424 525 -316 c 0,22,23
 440.936 -216.651 440.936 -216.651 435 0 c 2,0,-1
EndSplineSet
EndChar
StartChar: uni0286
Encoding: 646 646 646
Width: 1233
Flags: W
TeX: 0 0 0 0
Fore
798 145 m 1,0,-1
 937 145 l 1,1,-1
 1105 145 l 1,2,-1
 1105 -65 l 1,3,4
 1049 -66 1049 -66 933 -66 c 2,5,-1
 795.578 -66 l 1,6,7
 783.236 -227.085 783.236 -227.085 708 -316 c 0,8,9
 616.5 -424 616.5 -424 407 -424 c 2,10,-1
 357 -424 l 1,11,-1
 357 -422.938 l 1,12,13
 55.4734 -413.082 55.4734 -413.082 59 -131 c 0,14,15
 62.4505 145 62.4505 145 370 145 c 2,16,-1
 505 145 l 1,17,-1
 505 1198 l 2,18,19
 505 1400 505 1400 589 1478 c 0,20,21
 673 1556 673 1556 901 1556 c 2,22,-1
 1142 1556 l 1,23,-1
 1142 1331 l 1,24,-1
 913 1331 l 2,25,26
 849.469 1331 849.469 1331 824 1307 c 0,27,28
 798 1282.5 798 1282.5 798 1218 c 2,29,-1
 798 145 l 1,0,-1
495.616 -65.0859 m 1,30,31
 443.101 -65 443.101 -65 371 -65 c 0,32,33
 266.094 -65 266.094 -65 265 -141 c 0,34,35
 264.238 -193.976 264.238 -193.976 327.745 -198.989 c 0,36,37
 424.424 -198.233 424.424 -198.233 464 -144 c 0,38,39
 485.385 -114.695 485.385 -114.695 495.616 -65.0859 c 1,30,31
327.88 -199 m 2,40,41
 357 -199 l 1,42,-1
 327.88 -199 l 2,40,41
EndSplineSet
EndChar
StartChar: uni0287
Encoding: 647 647 647
Width: 1233
Flags: W
Fore
518 -318 m 1,0,-1
 518 0 l 1,1,-1
 136 0 l 1,2,-1
 136 225 l 1,3,-1
 518 225 l 1,4,-1
 518 755 l 2,5,6
 518 830 518 830 482 862 c 128,-1,7
 446 895 446 895 360 895 c 2,8,-1
 136 895 l 1,9,-1
 136 1120 l 1,10,-1
 382 1120 l 2,11,12
 634 1120 634 1120 722 1040 c 128,-1,13
 812 959 812 959 812 741 c 2,14,-1
 812 225 l 1,15,-1
 1098 225 l 1,16,-1
 1098 0 l 1,17,-1
 812 0 l 1,18,-1
 812 -318 l 1,19,-1
 518 -318 l 1,0,-1
EndSplineSet
EndChar
StartChar: uni0288
Encoding: 648 648 648
Width: 1233
Flags: W
Fore
714 1438 m 1,0,-1
 714 1120 l 1,1,-1
 1098 1120 l 1,2,-1
 1098 895 l 1,3,-1
 714 895 l 1,4,-1
 714 -61 l 2,5,6
 714 -136 714 -136 751 -168 c 128,-1,7
 788 -201 788 -201 872 -201 c 2,8,-1
 1098 -201 l 1,9,-1
 1098 -426 l 1,10,-1
 852 -426 l 2,11,12
 600 -426 600 -426 510 -346 c 128,-1,13
 422 -265 422 -265 422 -47 c 2,14,-1
 422 895 l 1,15,-1
 136 895 l 1,16,-1
 136 1120 l 1,17,-1
 422 1120 l 1,18,-1
 422 1438 l 1,19,-1
 714 1438 l 1,0,-1
EndSplineSet
EndChar
StartChar: uni0289
Encoding: 649 649 649
Width: 1233
Flags: W
Fore
1072 438 m 1,0,-1
 1072 0 l 1,1,-1
 778 0 l 1,2,-1
 778 166 l 1,3,4
 748 73 748 73 673 22 c 0,5,6
 598 -29 598 -29 494 -29 c 0,7,8
 334 -29 334 -29 252 77 c 0,9,10
 170 183 170 183 170 391 c 2,11,-1
 170 438 l 1,12,-1
 88 438 l 1,13,-1
 88 632 l 1,14,-1
 170 632 l 1,15,-1
 170 1120 l 1,16,-1
 464 1120 l 1,17,-1
 464 632 l 1,18,-1
 778 632 l 1,19,-1
 778 1120 l 1,20,-1
 1072 1120 l 1,21,-1
 1072 632 l 1,22,-1
 1144 632 l 1,23,-1
 1144 438 l 1,24,-1
 1072 438 l 1,0,-1
776.867 438 m 1,25,-1
 464 438 l 1,26,-1
 464 436 l 2,27,28
 464 315 464 315 498 263 c 0,29,30
 532 211 532 211 610 211 c 0,31,32
 690 211 690 211 734 281 c 0,33,34
 770.939 339.766 770.939 339.766 776.867 438 c 1,25,-1
EndSplineSet
EndChar
StartChar: uni028A
Encoding: 650 650 650
Width: 1233
Flags: W
TeX: 0 0 0 0
Fore
550 837 m 1,3,4
 486 761 486 761 456 680 c 128,-1,14
 413 565 413 565 413 458 c 0,12,13
 413 316 413 316 470 228 c 128,-1,11
 527 141 527 141 621 141 c 24,9,10
 716 141 716 141 772 228 c 128,-1,11
 829 316 829 316 829 458 c 0,12,13
 829 565 829 565 786 680 c 128,-1,14
 755 764 755 764 691 836 c 1,15,-1
 691 1120 l 1,16,-1
 1148 1120 l 1,17,-1
 1148 923 l 1,18,-1
 942 923 l 1,19,20
 1018 864 1018 864 1087 731 c 128,-1,21
 1143 623 1143 623 1143 465 c 0,22,23
 1143 211 1143 211 997 54 c 128,-1,24
 851 -104 851 -104 619 -104 c 0,25,26
 388 -104 388 -104 242 53 c 128,-1,27
 96 210 96 210 96 457 c 0,28,29
 96 619 96 619 150 731 c 128,-1,30
 212 858 212 858 291 923 c 1,31,-1
 85 923 l 1,0,-1
 85 1120 l 1,1,-1
 550 1120 l 1,2,-1
 550 837 l 1,3,4
EndSplineSet
EndChar
StartChar: uni028B
Encoding: 651 651 651
Width: 1233
Flags: W
TeX: 0 0 0 0
Fore
977 1027 m 0,0,1
 1042.12 967.596 1042.12 967.596 1101 835 c 0,2,3
 1149 726.898 1149 726.898 1149 569 c 0,4,5
 1149 315.499 1149 315.499 1024 158 c 0,6,7
 898.602 0 898.602 0 701 0 c 2,8,-1
 590 -2 l 2,9,10
 425.967 -4.95556 425.967 -4.95556 335 116 c 0,11,12
 245 236 245 236 245 460 c 2,13,-1
 245 774 l 1,14,-1
 245 895 l 1,15,-1
 84 895 l 1,16,-1
 84 1120 l 1,17,-1
 245 1120 l 1,18,-1
 538 1120 l 1,19,-1
 538 774 l 1,20,-1
 538 460 l 2,21,22
 538 291 538 291 546 279 c 0,23,24
 580 227 580 227 617 231 c 2,25,-1
 634 233 l 2,26,27
 730 233 730 233 798 330 c 0,28,29
 859 418 859 418 859 560 c 0,30,31
 859 667 859 667 812 782 c 0,32,33
 779 866 779 866 711 938 c 1,34,-1
 709 1120 l 1,35,36
 880.511 1115.01 880.511 1115.01 977 1027 c 0,0,1
EndSplineSet
EndChar
StartChar: uni028C
Encoding: 652 652 652
Width: 1233
Flags: W
Fore
80 0 m 1,0,-1
 436 1120 l 1,1,-1
 797 1120 l 1,2,-1
 1153 0 l 1,3,-1
 856 0 l 1,4,-1
 617 874 l 1,5,-1
 377 0 l 1,6,-1
 80 0 l 1,0,-1
EndSplineSet
EndChar
StartChar: uni028D
Encoding: 653 653 653
Width: 1233
Flags: W
Fore
1233 0 m 1,0,-1
 988 0 l 1,1,-1
 855 772 l 1,2,-1
 722 0 l 1,3,-1
 511 0 l 1,4,-1
 379 764 l 1,5,-1
 245 0 l 1,6,-1
 -0 0 l 1,7,-1
 208 1120 l 1,8,-1
 484 1120 l 1,9,-1
 617 350 l 1,10,-1
 749 1120 l 1,11,-1
 1025 1120 l 1,12,-1
 1233 0 l 1,0,-1
EndSplineSet
EndChar
StartChar: uni028E
Encoding: 654 654 654
Width: 1233
Flags: W
Fore
523 1241 m 2,0,1
 582 1399 582 1399 664 1472 c 128,-1,2
 747 1544 747 1544 865 1544 c 2,3,-1
 1107 1544 l 1,4,-1
 1107 1321 l 1,5,-1
 988 1321 l 2,6,7
 898 1321 898 1321 856 1290 c 128,-1,8
 814 1260 814 1260 771 1149 c 1,9,-1
 749 1089 l 1,10,-1
 1175 0 l 1,11,-1
 867 0 l 1,12,-1
 611 727 l 1,13,-1
 366 0 l 1,14,-1
 58 0 l 1,15,-1
 523 1241 l 2,0,1
EndSplineSet
EndChar
StartChar: uni028F
Encoding: 655 655 655
Width: 1233
Flags: W
TeX: 0 0 0 0
Fore
68 1120 m 1,0,-1
 403 1120 l 1,1,-1
 616 775 l 1,2,-1
 828 1120 l 1,3,-1
 1165 1120 l 1,4,-1
 755 472 l 1,5,-1
 755 0 l 1,6,-1
 478 0 l 1,7,-1
 478 472 l 1,8,-1
 68 1120 l 1,0,-1
EndSplineSet
EndChar
StartChar: uni0290
Encoding: 656 656 656
Width: 1233
Flags: W
TeX: 0 0 0 0
Fore
70 1120 m 1,0,-1
 966 1120 l 1,1,-1
 966 891 l 1,2,-1
 376 219 l 1,3,-1
 966 219 l 1,4,-1
 966 41 l 2,5,6
 966 -91 966 -91 1006 -146 c 0,7,8
 1048 -201 1048 -201 1148 -201 c 2,9,-1
 1186 -201 l 1,10,-1
 1186 -426 l 1,11,-1
 1066 -426 l 2,12,13
 856 -426 856 -426 766 -318 c 0,14,15
 681.668 -219.918 681.668 -219.918 674.639 -6.61621e-07 c 1,16,-1
 46 0 l 1,17,-1
 46 229 l 1,18,-1
 636 901 l 1,19,-1
 70 901 l 1,20,-1
 70 1120 l 1,0,-1
EndSplineSet
EndChar
StartChar: uni0291
Encoding: 657 657 657
Width: 1233
Flags: W
TeX: 0 0 0 0
Fore
850 220 m 1,0,-1
 889 220 l 2,1,2
 927 220 927 220 930 277 c 0,3,4
 934.997 347.958 934.997 347.958 903 352 c 0,5,6
 855.997 357.938 855.997 357.938 850 220 c 1,0,-1
142 1120 m 1,7,-1
 1037 1120 l 1,8,-1
 1037 891 l 1,9,-1
 448 219 l 1,10,-1
 665.68 219 l 1,11,12
 688.238 336.816 688.238 336.816 738 428 c 0,13,14
 831.321 599 831.321 599 909 599 c 0,15,16
 1111 599 1111 599 1115 323 c 0,17,18
 1119 0 1119 0 876 0 c 2,19,-1
 844 0 l 1,20,21
 844 -48 844 -48 847 -112 c 1,22,-1
 644 -111 l 1,23,24
 644 -56 644 -56 647 0 c 1,25,-1
 118 0 l 1,26,-1
 118 229 l 1,27,-1
 708 901 l 1,28,-1
 142 901 l 1,29,-1
 142 1120 l 1,7,-1
EndSplineSet
EndChar
StartChar: uni0292
Encoding: 658 658 658
Width: 1233
Flags: W
TeX: 0 0 0 0
Fore
311 452 m 1,21,-1
 701 901 l 1,8,-1
 135 901 l 1,9,-1
 135 1120 l 1,0,-1
 1030 1120 l 1,1,-1
 1030 891 l 1,2,-1
 639 436 l 1,0,0
 784 427 784 427 862 404 c 0,0,1
 975 371 975 371 1052 258 c 128,-1,2
 1123 156 1123 156 1123 13 c 0,3,4
 1123 -209 1123 -209 970 -324 c 128,-1,5
 817 -440 817 -440 523 -440 c 0,6,7
 420 -440 420 -440 316 -422 c 128,-1,8
 212 -403 212 -403 110 -366 c 1,9,-1
 110 -69 l 1,10,11
 207 -123 207 -123 303 -150 c 128,-1,12
 399 -178 399 -178 492 -178 c 0,13,14
 630 -178 630 -178 703 -125 c 128,-1,15
 776 -72 776 -72 776 27 c 0,16,17
 776 129 776 129 701 182 c 128,-1,18
 626 234 626 234 479 234 c 2,19,-1
 311 234 l 1,20,-1
 311 452 l 1,21,-1
EndSplineSet
EndChar
StartChar: uni0293
Encoding: 659 659 659
Width: 1233
Flags: W
TeX: 0 0 0 0
Fore
708 -125 m 1,0,1
 665 -60 665 -60 477 -51 c 0,2,3
 328 -45 328 -45 327 -130 c 0,4,5
 326.084 -182.235 326.084 -182.235 465.884 -183.208 c 0,6,7
 477.915 -183.292 477.915 -183.292 491 -183 c 0,8,9
 589.559 -180.8 589.559 -180.8 642 -162 c 0,10,11
 681 -148 681 -148 708 -125 c 1,0,1
321 452 m 1,12,-1
 711 901 l 1,13,-1
 145 901 l 1,14,-1
 145 1120 l 1,15,-1
 1040 1120 l 1,16,-1
 1040 891 l 1,17,-1
 648 436 l 1,18,19
 794 427 794 427 871 404 c 0,20,21
 984 371 984 371 1062 258 c 0,22,23
 1132 156 1132 156 1132 13 c 0,24,25
 1132 -209 1132 -209 979 -324 c 1,26,27
 997 -370 997 -370 997 -410 c 1,28,-1
 827 -416 l 1,29,-1
 827 -404 l 1,30,-1
 820 -405 l 2,31,32
 672 -440 672 -440 509 -440 c 1,33,-1
 511 -438 l 1,34,-1
 509 -438 l 2,35,36
 98 -417 98 -417 101 -116 c 0,37,38
 104 159 104 159 476 159 c 0,39,40
 655.882 159 655.882 159 782.552 68.4877 c 1,41,42
 769.919 140.364 769.919 140.364 711 182 c 0,43,44
 636 234 636 234 489 234 c 2,45,-1
 321 234 l 1,46,-1
 321 452 l 1,12,-1
EndSplineSet
EndChar
StartChar: uni0294
Encoding: 660 660 660
Width: 1233
Flags: W
Fore
344 736 m 9,0,0
 428 736 l 1,10,11
 623 736 623 736 701 850 c 128,-1,9
 752 926 752 926 752 997 c 0,7,8
 751 1093 751 1093 700 1159 c 128,-1,6
 611 1273 611 1273 450 1273 c 0,4,5
 378 1273 378 1273 306 1251 c 128,-1,3
 236 1230 236 1230 166 1187 c 1,1,2
 166 1485 l 1,0,-1
 234 1520 234 1520 307 1537 c 128,-1,25
 380 1555 380 1555 543 1555 c 0,23,24
 759 1556 759 1556 948 1345 c 128,-1,22
 1067 1212 1067 1212 1067 997 c 0,20,21
 1067 766 1067 766 927 621 c 128,-1,19
 836 527 836 527 666 496 c 1,0,0
 666 0 l 1,0,-1
 344 0 l 1,1,-1
 344 736 l 9,0,0
EndSplineSet
EndChar
StartChar: uni0295
Encoding: 661 661 661
Width: 1233
Flags: W
Fore
889 736 m 17,0,0
 889 0 l 1,1,-1
 567 0 l 1,0,-1
 567 496 l 1,0,0
 397 527 397 527 306 621 c 128,-1,19
 166 766 166 766 166 997 c 0,20,21
 166 1212 166 1212 285 1345 c 128,-1,22
 474 1556 474 1556 690 1555 c 0,23,24
 853 1555 853 1555 926 1537 c 128,-1,25
 999 1520 999 1520 1067 1485 c 1,0,-1
 1067 1187 l 1,1,2
 997 1230 997 1230 927 1251 c 128,-1,3
 855 1273 855 1273 783 1273 c 0,4,5
 622 1273 622 1273 533 1159 c 128,-1,6
 482 1093 482 1093 481 997 c 0,7,8
 481 926 481 926 532 850 c 128,-1,9
 610 736 610 736 805 736 c 1,10,11
 889 736 l 17,0,0
EndSplineSet
EndChar
StartChar: uni0296
Encoding: 662 662 662
Width: 1233
Flags: W
Fore
344 819 m 17,0,0
 344 1555 l 1,1,-1
 666 1555 l 1,0,-1
 666 1059 l 1,0,0
 836 1028 836 1028 927 934 c 128,-1,19
 1067 789 1067 789 1067 558 c 0,20,21
 1067 343 1067 343 948 210 c 128,-1,22
 759 -1 759 -1 543 0 c 0,23,24
 380 0 380 0 307 18 c 128,-1,25
 234 35 234 35 166 70 c 1,0,-1
 166 368 l 1,1,2
 236 325 236 325 306 304 c 128,-1,3
 378 282 378 282 450 282 c 0,4,5
 611 282 611 282 700 396 c 128,-1,6
 751 462 751 462 752 558 c 0,7,8
 752 629 752 629 701 705 c 128,-1,9
 623 819 623 819 428 819 c 1,10,11
 344 819 l 17,0,0
EndSplineSet
EndChar
StartChar: uni0297
Encoding: 663 663 663
Width: 1233
Flags: W
TeX: 0 0 0 0
Fore
481 132 m 18,0,0
 482 36 482 36 533 -30 c 128,-1,6
 622 -144 622 -144 783 -144 c 0,4,5
 855 -144 855 -144 927 -122 c 128,-1,3
 997 -101 997 -101 1067 -58 c 1,1,2
 1067 -356 l 1,0,-1
 999 -391 999 -391 926 -408 c 128,-1,25
 853 -426 853 -426 690 -426 c 0,23,24
 474 -427 474 -427 285 -216 c 128,-1,22
 166 -83 166 -83 166 132 c 10,0,0
 166 997 l 2,20,21
 166 1212 166 1212 285 1345 c 128,-1,22
 474 1556 474 1556 690 1555 c 0,23,24
 853 1555 853 1555 926 1537 c 128,-1,25
 999 1520 999 1520 1067 1485 c 1,0,-1
 1067 1187 l 1,1,2
 997 1230 997 1230 927 1251 c 128,-1,3
 855 1273 855 1273 783 1273 c 0,4,5
 622 1273 622 1273 533 1159 c 128,-1,6
 481 1092 481 1092 481 997 c 2,7,8
 481 132 l 18,0,0
EndSplineSet
EndChar
StartChar: uni0298
Encoding: 664 664 664
Width: 1233
Flags: W
Fore
325 566 m 0,0,1
 325 432 325 432 412 338 c 128,-1,11
 497 244 497 244 618 244 c 0,9,10
 738 244 738 244 823 338 c 128,-1,8
 908 432 908 432 908 566 c 0,6,7
 908 697 908 697 822 794 c 128,-1,5
 736 891 736 891 618 891 c 0,3,4
 497 891 497 891 412 794 c 128,-1,2
 325 697 325 697 325 566 c 0,0,1
55 565 m 0,0,1
 55 818 55 818 221 1005 c 128,-1,2
 386 1192 386 1192 619 1192 c 0,3,4
 847 1192 847 1192 1013 1005 c 128,-1,5
 1178 818 1178 818 1178 565 c 0,6,7
 1178 306 1178 306 1015 125 c 128,-1,8
 852 -57 852 -57 619 -57 c 0,9,10
 386 -57 386 -57 221 125 c 128,-1,11
 55 306 55 306 55 565 c 0,0,1
499 567 m 0,0,1
 499 620 499 620 534 659 c 128,-1,2
 568 698 568 698 617 698 c 0,3,4
 677 698 677 698 700 659 c 128,-1,5
 734 612 734 612 734 567 c 0,6,7
 734 513 734 513 700 475 c 128,-1,8
 666 437 666 437 617 437 c 0,9,10
 568 437 568 437 534 475 c 128,-1,11
 499 513 499 513 499 567 c 0,0,1
EndSplineSet
EndChar
StartChar: uni0299
Encoding: 665 665 665
Width: 1233
Flags: W
Fore
603 698 m 2,0,1
 675 698 675 698 715 722 c 128,-1,2
 753 746 753 746 753 796 c 0,3,4
 753 844 753 844 715 870 c 128,-1,5
 677 895 677 895 603 895 c 2,6,-1
 447 895 l 1,7,-1
 447 698 l 1,8,-1
 603 698 l 2,0,1
614 262 m 2,9,10
 708 262 708 262 755 287 c 128,-1,11
 802 313 802 313 802 364 c 0,12,13
 802 415 802 415 755 440 c 128,-1,14
 708 465 708 465 614 465 c 2,15,-1
 447 465 l 1,16,-1
 447 262 l 1,17,-1
 614 262 l 2,9,10
904 599 m 1,18,19
 1004 572 1004 572 1059 500 c 128,-1,20
 1114 427 1114 427 1114 321 c 0,21,22
 1114 159 1114 159 996 80 c 128,-1,23
 878 0 878 0 636 0 c 2,24,-1
 119 0 l 1,25,-1
 119 1120 l 1,26,-1
 587 1120 l 2,27,28
 839 1120 839 1120 952 1049 c 128,-1,29
 1065 979 1065 979 1065 824 c 0,30,31
 1065 742 1065 742 1024 684 c 128,-1,32
 982 627 982 627 904 599 c 1,18,19
EndSplineSet
EndChar
StartChar: uni029A
Encoding: 666 666 666
Width: 1233
Flags: W
TeX: 0 0 0 0
Fore
584 188 m 0,28,29
 849 188 849 188 850 551 c 1,0,0
 850 915 850 915 552 915 c 0,28,29
 482 915 482 915 442 887 c 128,-1,27
 389 850 389 850 389 787 c 0,25,26
 389 715 389 715 447 683 c 128,-1,24
 485 661 485 661 559 661 c 2,22,23
 691 661 l 9,0,0
 691 442 l 1,21,-1
 558 442 l 2,22,23
 494 442 494 442 452 419 c 128,-1,24
 389 385 389 385 389 311 c 0,25,26
 389 256 389 256 448 221 c 128,-1,27
 505 187 505 187 584 188 c 0,28,29
824 4 m 0,32,33
 735 -41 735 -41 537 -42 c 0,35,36
 329 -42 329 -42 218 44 c 128,-1,37
 108 131 108 131 108 279 c 0,38,39
 108 377 108 377 166 453 c 128,-1,40
 222 525 222 525 357 551 c 1,0,1
 226 577 226 577 166 650 c 128,-1,40
 108 721 108 721 108 824 c 0,38,39
 108 972 108 972 218 1058 c 128,-1,37
 327 1144 327 1144 537 1145 c 0,35,36
 735 1146 735 1146 824 1085 c 0,0,0
 1125 883 1125 883 1125 551 c 0,0,0
 1125 155 1125 155 824 4 c 0,32,33
EndSplineSet
EndChar
StartChar: uni029B
Encoding: 667 667 667
Width: 1233
Flags: W
TeX: 0 0 0 0
Fore
987 101 m 1,0,1
 893 51 893 51 793 25 c 0,2,3
 693 0 693 0 586 0 c 0,4,5
 344 0 344 0 203 151 c 0,6,7
 61 301 61 301 61 559 c 0,8,9
 61 820 61 820 205 970 c 0,10,11
 349 1119 349 1119 599 1119 c 0,12,13
 630.068 1119 630.068 1119 660.31 1116.93 c 1,14,15
 665.312 1346.25 665.312 1346.25 751 1447 c 0,16,17
 841 1555 841 1555 1051 1555 c 2,18,-1
 1172 1555 l 1,19,-1
 1172 1330 l 1,20,-1
 1133 1330 l 2,21,22
 1033 1330 1033 1330 992 1275 c 0,23,24
 951 1220 951 1220 951 1088 c 2,25,-1
 951 803 l 1,26,27
 870 852 870 852 790 876 c 0,28,29
 710 900 710 900 630 900 c 0,30,31
 481 900 481 900 400 811 c 0,32,33
 319 723 319 723 319 559 c 0,34,35
 319 397 319 397 397 308 c 0,36,37
 475 219 475 219 618 219 c 0,38,39
 657 219 657 219 690 225 c 0,40,41
 724 230 724 230 750 241 c 1,42,-1
 749 409 l 1,43,-1
 501 409 l 1,44,-1
 501 630 l 1,45,-1
 987 630 l 1,46,-1
 987 101 l 1,0,1
EndSplineSet
EndChar
StartChar: uni029C
Encoding: 668 668 668
Width: 1233
Flags: W
Fore
120 1120 m 1,0,-1
 446 1120 l 1,1,-1
 446 715 l 1,2,-1
 787 715 l 1,3,-1
 787 1120 l 1,4,-1
 1113 1120 l 1,5,-1
 1113 0 l 1,6,-1
 787 0 l 1,7,-1
 787 463 l 1,8,-1
 446 463 l 1,9,-1
 446 0 l 1,10,-1
 120 0 l 1,11,-1
 120 1120 l 1,0,-1
EndSplineSet
EndChar
StartChar: uni029D
Encoding: 669 669 669
Width: 1233
Flags: W
TeX: 0 0 0 0
Fore
972 1323 m 1,0,-1
 679 1323 l 1,1,-1
 679 1665 l 1,2,-1
 972 1665 l 1,3,-1
 972 1323 l 1,0,-1
972 144 m 1,4,-1
 1140 144 l 1,5,-1
 1140 -66 l 1,6,7
 1084 -67 1084 -67 968 -67 c 2,8,-1
 966.946 -67 l 1,9,10
 950.555 -232.687 950.555 -232.687 881 -316 c 0,11,12
 791.094 -422.888 791.094 -422.888 581 -424 c 2,13,-1
 392 -425 l 1,14,-1
 392 -423.938 l 1,15,16
 90.4734 -414.082 90.4734 -414.082 94 -132 c 0,17,18
 97.4505 144 97.4505 144 405 144 c 2,19,-1
 678 144 l 1,20,-1
 679 144 l 1,21,-1
 679 895 l 1,22,-1
 382 895 l 1,23,-1
 382 1120 l 1,24,-1
 972 1120 l 1,25,-1
 972 144 l 1,4,-1
669.347 -66.9674 m 1,26,27
 647.961 -66 647.961 -66 406 -66 c 0,28,29
 301.094 -66 301.094 -66 300 -142 c 0,30,31
 299.079 -205.995 299.079 -205.995 392 -200 c 2,32,-1
 499 -199 l 2,33,34
 597 -198 597 -198 638 -144 c 0,35,36
 659.106 -115.687 659.106 -115.687 669.347 -66.9674 c 1,26,27
EndSplineSet
EndChar
StartChar: uni029E
Encoding: 670 670 670
Width: 1233
Flags: W
Fore
1128 -426 m 1,0,-1
 836 -426 l 1,1,-1
 836 381 l 1,2,-1
 484 0 l 1,3,-1
 128 0 l 1,4,-1
 552 418 l 1,5,-1
 104 1120 l 1,6,-1
 428 1120 l 1,7,-1
 736 596 l 1,8,-1
 836 692 l 1,9,-1
 836 1120 l 1,10,-1
 1128 1120 l 1,11,-1
 1128 -426 l 1,0,-1
EndSplineSet
EndChar
StartChar: uni029F
Encoding: 671 671 671
Width: 1233
Flags: W
Fore
236 1120 m 1,0,-1
 560 1120 l 1,1,-1
 559 291 l 1,2,-1
 998 291 l 1,3,-1
 998 0 l 1,4,-1
 235 0 l 1,5,-1
 236 1120 l 1,0,-1
EndSplineSet
EndChar
StartChar: uni02A0
Encoding: 672 672 672
Width: 1233
Flags: W
TeX: 0 0 0 0
Fore
693 158 m 1,0,1
 650 64 650 64 592 18 c 0,2,3
 535 -29 535 -29 463 -29 c 0,4,5
 304 -29 304 -29 218 123 c 0,6,7
 132 275 132 275 132 559 c 0,8,9
 132 839 132 839 217 993 c 0,10,11
 302 1147 302 1147 455 1147 c 0,12,13
 536 1147 536 1147 596 1098 c 0,14,15
 655 1049 655 1049 693 952 c 1,16,-1
 693 1088 l 1,17,-1
 691 1088 l 1,18,19
 691 1340 691 1340 764 1447 c 0,20,21
 836 1555 836 1555 1004 1555 c 2,22,-1
 1101 1555 l 1,23,-1
 1101 1330 l 1,24,-1
 1070 1330 l 2,25,26
 990 1330 990 1330 957 1275 c 0,27,28
 924.557 1220.93 924.557 1220.93 924.523 1120 c 2,29,-1
 924 -426 l 1,30,-1
 693 -426 l 1,31,-1
 693 158 l 1,0,1
366 561 m 0,32,33
 366 399 366 399 410 307 c 0,34,35
 453 215 453 215 529 215 c 0,36,37
 605 215 605 215 649 307 c 0,38,39
 693 399 693 399 693 561 c 0,40,41
 693 723 693 723 649 815 c 0,42,43
 605 907 605 907 529 907 c 0,44,45
 453 907 453 907 410 815 c 0,46,47
 366 723 366 723 366 561 c 0,32,33
EndSplineSet
EndChar
StartChar: uni02A1
Encoding: 673 673 673
Width: 1233
Flags: W
Fore
364 736 m 1,0,-1
 448 736 l 2,1,2
 643 736 643 736 721 850 c 0,3,4
 772 926 772 926 772 997 c 0,5,6
 772 1092.7 772 1092.7 720 1159 c 0,7,8
 630.592 1273 630.592 1273 470 1273 c 0,9,10
 398 1273 398 1273 326 1251 c 0,11,12
 256 1230 256 1230 186 1187 c 1,13,-1
 186 1485 l 1,14,15
 254 1520 254 1520 327 1537 c 0,16,17
 400 1555 400 1555 563 1555 c 0,18,19
 779.896 1555 779.896 1555 968 1345 c 0,20,21
 1087 1212 1087 1212 1087 997 c 0,22,23
 1087 766 1087 766 947 621 c 0,24,25
 856 527 856 527 686 496 c 1,26,-1
 686 384 l 1,27,-1
 718 384 l 1,28,-1
 919 384 l 1,29,-1
 919 190 l 1,30,-1
 686 190 l 1,31,-1
 686 0 l 1,32,-1
 364 0 l 1,33,-1
 364 190 l 1,34,-1
 360 190 l 1,35,-1
 146 190 l 1,36,-1
 146 384 l 1,37,-1
 364 384 l 1,38,-1
 364 736 l 1,0,-1
EndSplineSet
EndChar
StartChar: uni02A2
Encoding: 674 674 674
Width: 1233
Flags: W
Fore
547 384 m 1,0,-1
 547 496 l 1,1,2
 377 527 377 527 286 621 c 0,3,4
 146 766 146 766 146 997 c 0,5,6
 146 1212 146 1212 265 1345 c 0,7,8
 453.104 1555 453.104 1555 670 1555 c 0,9,10
 833 1555 833 1555 906 1537 c 0,11,12
 979 1520 979 1520 1047 1485 c 1,13,-1
 1047 1187 l 1,14,15
 977 1230 977 1230 907 1251 c 0,16,17
 835 1273 835 1273 763 1273 c 0,18,19
 602.408 1273 602.408 1273 513 1159 c 0,20,21
 461 1092.7 461 1092.7 461 997 c 0,22,23
 461 926 461 926 512 850 c 0,24,25
 590 736 590 736 785 736 c 2,26,-1
 869 736 l 1,27,-1
 869 384 l 1,28,-1
 1087 384 l 1,29,-1
 1087 190 l 1,30,-1
 873 190 l 1,31,-1
 869 190 l 1,32,-1
 869 0 l 1,33,-1
 547 0 l 1,34,-1
 547 190 l 1,35,-1
 314 190 l 1,36,-1
 314 384 l 1,37,-1
 515 384 l 1,38,-1
 547 384 l 1,0,-1
EndSplineSet
EndChar
StartChar: uni02A3
Encoding: 675 675 675
Width: 1233
Flags: W
TeX: 0 0 0 0
Fore
227 557 m 0,0,1
 227 395 227 395 259 303 c 0,2,3
 292 211 292 211 349 211 c 0,4,5
 406 211 406 211 439 303 c 0,6,7
 472 395 472 395 472 557 c 0,8,9
 472 719 472 719 439 811 c 0,10,11
 406 903 406 903 349 903 c 0,12,13
 292 903 292 903 259 811 c 0,14,15
 227 719 227 719 227 557 c 0,0,1
472 961 m 1,16,-1
 472 1556 l 1,17,-1
 647 1556 l 1,18,-1
 647 1120 l 1,19,-1
 1182 1120 l 1,20,-1
 1182 891 l 1,21,-1
 829 219 l 1,22,-1
 1182 219 l 1,23,-1
 1182 0 l 1,24,-1
 647 0 l 1,25,-1
 631 0 l 1,26,-1
 472 0 l 1,27,-1
 472 166 l 1,28,29
 443 69 443 69 399 20 c 0,30,31
 354 -29 354 -29 293 -29 c 0,32,33
 178 -29 178 -29 115 125 c 0,34,35
 51 279 51 279 51 559 c 0,36,37
 51 843 51 843 116 995 c 0,38,39
 180 1147 180 1147 299 1147 c 0,40,41
 353 1147 353 1147 396 1100 c 0,42,43
 439 1054 439 1054 472 961 c 1,16,-1
647 901 m 1,44,-1
 647 259.373 l 1,45,-1
 985 901 l 1,46,-1
 647 901 l 1,44,-1
EndSplineSet
EndChar
StartChar: uni02A4
Encoding: 676 676 676
Width: 1233
Flags: W
TeX: 0 0 0 0
Fore
723 444 m 1,0,-1
 957 893 l 1,1,-1
 619 893 l 1,2,-1
 619 -8 l 1,3,-1
 444 -8 l 1,4,-1
 444 158 l 1,5,6
 416 61 416 61 371 12 c 0,7,8
 326 -37 326 -37 266 -37 c 0,9,10
 151 -37 151 -37 87 117 c 0,11,12
 23 271 23 271 23 551 c 0,13,14
 23 835 23 835 88 987 c 0,15,16
 152 1139 152 1139 272 1139 c 0,17,18
 326 1139 326 1139 369 1092 c 0,19,20
 412 1046 412 1046 444 953 c 1,21,-1
 444 1548 l 1,22,-1
 619 1548 l 1,23,-1
 619 1112 l 1,24,-1
 1154 1112 l 1,25,-1
 1154 883 l 1,26,-1
 919 428 l 1,27,28
 1007 419 1007 419 1053 396 c 0,29,30
 1121 363 1121 363 1167 250 c 0,31,32
 1210 148 1210 148 1210 5 c 0,33,34
 1210 -216.501 1210 -216.501 1118 -332 c 0,35,36
 1025.6 -448 1025.6 -448 850 -448 c 0,37,38
 788 -448 788 -448 726 -430 c 0,39,40
 663 -411 663 -411 602 -374 c 1,41,-1
 602 -77 l 1,42,43
 661 -131 661 -131 718 -158 c 0,44,45
 776 -186 776 -186 831 -186 c 0,46,47
 914 -186 914 -186 958 -133 c 0,48,49
 1002 -80 1002 -80 1002 19 c 0,50,51
 1002 121 1002 121 957 174 c 0,52,53
 912 226 912 226 824 226 c 2,54,-1
 723 226 l 1,55,-1
 723 444 l 1,0,-1
199 549 m 0,56,57
 199 387 199 387 232 295 c 0,58,59
 264 203 264 203 321 203 c 0,60,61
 378 203 378 203 411 295 c 0,62,63
 444 387 444 387 444 549 c 0,64,65
 444 711 444 711 411 803 c 0,66,67
 378 895 378 895 321 895 c 0,68,69
 264 895 264 895 232 803 c 0,70,71
 199 711 199 711 199 549 c 0,56,57
EndSplineSet
EndChar
StartChar: uni02A5
Encoding: 677 677 677
Width: 1233
Flags: W
TeX: 0 0 0 0
Fore
1047 220 m 1,0,-1
 1070 220 l 2,1,2
 1092 220 1092 220 1095 277 c 0,3,4
 1098 348 1098 348 1078 352 c 0,5,6
 1050 358 1050 358 1047 220 c 1,0,-1
203 557 m 0,7,8
 203 395 203 395 236 303 c 0,9,10
 268 211 268 211 325 211 c 0,11,12
 382 211 382 211 415 303 c 0,13,14
 448 395 448 395 448 557 c 0,15,16
 448 719 448 719 415 811 c 0,17,18
 382 903 382 903 325 903 c 0,19,20
 268 903 268 903 236 811 c 0,21,22
 203 719 203 719 203 557 c 0,7,8
448 961 m 1,23,-1
 448 1556 l 1,24,-1
 623 1556 l 1,25,-1
 623 1120 l 1,26,-1
 1159 1120 l 1,27,-1
 1159 891 l 1,28,-1
 805 219 l 1,29,-1
 935.846 219 l 1,30,31
 949.207 336.997 949.207 336.997 979 428 c 0,32,33
 1035 599 1035 599 1082 599 c 0,34,35
 1202.72 599 1202.72 599 1205 323 c 0,36,37
 1207.67 0 1207.67 0 1062 0 c 2,38,-1
 1043 0 l 1,39,40
 1043 -48 1043 -48 1045 -112 c 1,41,-1
 923 -111 l 1,42,43
 923 -56 923 -56 925 0 c 1,44,-1
 623 0 l 1,45,-1
 607 0 l 1,46,-1
 448 0 l 1,47,-1
 448 166 l 1,48,49
 420 69 420 69 375 20 c 0,50,51
 331 -29 331 -29 270 -29 c 0,52,53
 155 -29 155 -29 91 125 c 0,54,55
 28 279 28 279 28 559 c 0,56,57
 28 843 28 843 92 995 c 0,58,59
 157 1147 157 1147 276 1147 c 0,60,61
 330 1147 330 1147 373 1100 c 0,62,63
 416 1054 416 1054 448 961 c 1,23,-1
623 901 m 1,64,-1
 623 259.373 l 1,65,-1
 961 901 l 1,66,-1
 623 901 l 1,64,-1
EndSplineSet
EndChar
StartChar: uni02A6
Encoding: 678 678 678
Width: 1233
Flags: W
TeX: 0 0 0 0
Fore
1122 1085 m 1,0,-1
 1122 829 l 1,1,2
 1073 881 1073 881 1021 908 c 0,3,4
 968 934 968 934 915 934 c 0,5,6
 856 934 856 934 826 906 c 0,7,8
 796 877 796 877 796 821 c 0,9,10
 796 749 796 749 925 691 c 2,11,-1
 932 688 l 1,12,-1
 982 668 l 2,13,14
 1078.27 629.491 1078.27 629.491 1123 546 c 0,15,16
 1167 461 1167 461 1167 317 c 0,17,18
 1167 144 1167 144 1099 58 c 0,19,20
 1031 -29 1031 -29 894 -29 c 0,21,22
 834 -29 834 -29 770 -12 c 0,23,24
 706.985 5.72304 706.985 5.72304 643 39.927 c 1,25,-1
 643 0 l 1,26,-1
 495 0 l 2,27,28
 344.167 0 344.167 0 291 80 c 0,29,30
 237 161.254 237 161.254 237 379 c 2,31,-1
 237 895 l 1,32,-1
 66 895 l 1,33,-1
 66 1120 l 1,34,-1
 237 1120 l 1,35,-1
 237 1438 l 1,36,-1
 413 1438 l 1,37,-1
 413 1120 l 1,38,-1
 643 1120 l 1,39,-1
 643 931.255 l 1,40,41
 660.166 1005.79 660.166 1005.79 700 1057 c 0,42,43
 771 1147 771 1147 898 1147 c 0,44,45
 955 1147 955 1147 1012 1132 c 0,46,47
 1068 1116 1068 1116 1122 1085 c 1,0,-1
641 225 m 1,48,-1
 641 297 l 1,49,50
 699 242 699 242 760 213 c 0,51,52
 820 184 820 184 876 184 c 0,53,54
 938 184 938 184 970 214 c 0,55,56
 1002 244 1002 244 1002 301 c 0,57,58
 1002 357 1002 357 979 387 c 0,59,60
 954 421 954 421 872 451 c 2,61,-1
 824 469 l 2,62,63
 723 506 723 506 676 588 c 0,64,65
 630 669 630 669 630 805 c 0,66,67
 630 853.185 630 853.185 636.193 895 c 1,68,-1
 413 895 l 1,69,-1
 413 365 l 2,70,71
 413 290 413 290 435 258 c 0,72,73
 457 225 457 225 508 225 c 2,74,-1
 641 225 l 1,48,-1
EndSplineSet
EndChar
StartChar: uni02A7
Encoding: 679 679 679
Width: 1233
Flags: W
TeX: 0 0 0 0
Fore
484 1438 m 1,0,-1
 484 1120 l 1,1,-1
 714 1120 l 1,2,-1
 714 1198 l 2,3,4
 714 1400 714 1400 764 1478 c 0,5,6
 815 1556 815 1556 952 1556 c 2,7,-1
 1096 1556 l 1,8,-1
 1096 1331 l 1,9,-1
 959 1331 l 2,10,11
 919 1331 919 1331 905 1307 c 0,12,13
 891 1283 891 1283 890 1218 c 2,14,-1
 890 1120 l 1,15,-1
 890 895 l 1,16,-1
 890 43 l 1,17,-1
 890 0 l 2,18,19
 885.274 -218.365 885.274 -218.365 836 -316 c 0,20,21
 781 -424 781 -424 655 -424 c 2,22,-1
 466 -424 l 1,23,-1
 466 -199 l 1,24,-1
 606 -199 l 2,25,26
 665 -199 665 -199 689 -144 c 0,27,28
 709.714 -98.4299 709.714 -98.4299 713.265 2.80656e-07 c 1,29,-1
 566 0 l 2,30,31
 415.167 0 415.167 0 362 80 c 0,32,33
 308 161.254 308 161.254 308 379 c 2,34,-1
 308 895 l 1,35,-1
 137 895 l 1,36,-1
 137 1120 l 1,37,-1
 308 1120 l 1,38,-1
 308 1438 l 1,39,-1
 484 1438 l 1,0,-1
714 225 m 1,40,-1
 714 895 l 1,41,-1
 484 895 l 1,42,-1
 484 365 l 2,43,44
 484 290 484 290 506 258 c 0,45,46
 528 225 528 225 579 225 c 2,47,-1
 714 225 l 1,40,-1
EndSplineSet
EndChar
StartChar: uni02A8
Encoding: 680 680 680
Width: 1233
Flags: W
TeX: 0 0 0 0
Fore
429 1438 m 1,0,-1
 429 1120 l 1,1,-1
 659 1120 l 1,2,-1
 659 915.567 l 1,3,4
 674.371 956.816 674.371 956.816 694.2 992 c 0,5,6
 782.683 1149 782.683 1149 937.8 1149 c 0,7,8
 991.502 1149 991.502 1149 1041.6 1128 c 0,9,10
 1092.27 1106.76 1092.27 1106.76 1141.8 1063 c 1,11,-1
 1141.8 795 l 1,12,13
 1103.4 850 1103.4 850 1057.2 880 c 0,14,15
 1011.6 909 1011.6 909 962.399 909 c 0,16,17
 876.6 909 876.6 909 830.399 818 c 0,18,19
 784.2 727 784.2 727 784.2 559 c 0,20,21
 784.2 405.349 784.2 405.349 812.885 333.652 c 1,22,-1
 814.8 351 l 2,23,24
 876.6 532 876.6 532 978 532 c 0,25,26
 1149.39 526.643 1149.39 526.643 1151.4 294 c 0,27,28
 1154.19 -29 1154.19 -29 965.399 -29 c 0,29,30
 903.945 -29 903.945 -29 901.81 -28.335 c 0,31,32
 900.201 -27.834 900.201 -27.834 898.2 -27 c 1,33,-1
 898.2 -141 l 1,34,-1
 778.2 -140 l 1,35,36
 778.2 -46.8232 778.2 -46.8232 778.789 23.7549 c 1,37,38
 730.258 61.7178 730.258 61.7178 693.6 127 c 0,39,40
 674.138 161.658 674.138 161.658 659 202.239 c 1,41,-1
 659 0 l 1,42,-1
 511 0 l 2,43,44
 360 0 360 0 306 80 c 0,45,46
 253 161 253 161 253 379 c 2,47,-1
 253 895 l 1,48,-1
 81 895 l 1,49,-1
 81 1120 l 1,50,-1
 253 1120 l 1,51,-1
 253 1438 l 1,52,-1
 429 1438 l 1,0,-1
906 232 m 1,53,54
 940.2 208 940.2 208 972.6 207 c 2,55,-1
 975.6 207 l 2,56,57
 1063.73 207 1063.73 207 1063.2 264 c 0,58,59
 1062.5 339 1062.5 339 984 339 c 0,60,61
 934.2 339 934.2 339 906 232 c 1,53,54
651.739 895 m 1,62,-1
 429 895 l 1,63,-1
 429 365 l 2,64,65
 429 290 429 290 451 258 c 0,66,67
 473 225 473 225 524 225 c 2,68,-1
 651.003 225 l 1,69,70
 606 361.176 606 361.176 606 559 c 0,71,72
 606 758.115 606 758.115 651.739 895 c 1,62,-1
EndSplineSet
EndChar
StartChar: uni02A9
Encoding: 681 681 681
Width: 1233
Flags: W
TeX: 0 0 0 0
Fore
413 1218 m 2,0,-1
 413 1120 l 1,1,-1
 620 1120 l 1,2,-1
 794 1120 l 1,3,-1
 794 952 l 1,4,5
 813 1045 813 1045 858 1096 c 0,6,7
 903 1147 903 1147 966 1147 c 0,8,9
 1061.73 1147 1061.73 1147 1110 1042 c 0,10,11
 1159 935.409 1159 935.409 1159 727 c 2,12,-1
 1159 43 l 2,13,14
 1159 -209 1159 -209 1104 -316 c 0,15,16
 1050 -424 1050 -424 924 -424 c 2,17,-1
 852 -424 l 1,18,-1
 852 -199 l 1,19,-1
 875 -199 l 2,20,21
 935 -199 935 -199 960 -144 c 0,22,23
 984 -89 984 -89 984 43 c 2,24,-1
 984 682 l 2,25,26
 984 804 984 804 964 856 c 0,27,28
 943 909 943 909 896 909 c 0,29,30
 849 909 849 909 821 838 c 0,31,32
 794 767 794 767 794 641 c 2,33,-1
 794 0 l 1,34,-1
 620 0 l 1,35,-1
 620 895 l 1,36,-1
 413 895 l 1,37,-1
 413 0 l 1,38,-1
 237 0 l 1,39,-1
 237 895 l 1,40,-1
 74 895 l 1,41,-1
 74 1120 l 1,42,-1
 237 1120 l 1,43,-1
 237 1198 l 2,44,45
 237 1400 237 1400 288 1478 c 0,46,47
 338 1556 338 1556 475 1556 c 2,48,-1
 620 1556 l 1,49,-1
 620 1331 l 1,50,-1
 482 1331 l 2,51,52
 442 1331 442 1331 428 1307 c 0,53,54
 414 1283 414 1283 413 1218 c 2,0,-1
EndSplineSet
EndChar
StartChar: uni02AA
Encoding: 682 682 682
Width: 1233
Flags: W
TeX: 0 0 0 0
Fore
1135 1085 m 1,0,-1
 1135 829 l 1,1,2
 1087 881 1087 881 1034 908 c 0,3,4
 982 934 982 934 929 934 c 0,5,6
 870 934 870 934 840 906 c 0,7,8
 810 877 810 877 810 821 c 0,9,10
 810 749 810 749 938 691 c 2,11,-1
 945 688 l 1,12,-1
 995 668 l 2,13,14
 1091.27 629.491 1091.27 629.491 1136 546 c 0,15,16
 1181 461 1181 461 1181 317 c 0,17,18
 1181 144 1181 144 1113 58 c 0,19,20
 1045 -29 1045 -29 908 -29 c 0,21,22
 847 -29 847 -29 784 -12 c 0,23,24
 720 6 720 6 655 41 c 1,25,-1
 655 0 l 1,26,-1
 465 0 l 2,27,28
 340 0 340 0 285 108 c 0,29,30
 230 216 230 216 230 467 c 2,31,-1
 230 1331 l 1,32,-1
 52 1331 l 1,33,-1
 52 1556 l 1,34,-1
 406 1556 l 1,35,-1
 406 467 l 2,36,37
 406 335 406 335 431 280 c 0,38,39
 455 225 455 225 514 225 c 2,40,-1
 655 225 l 1,41,-1
 655 297 l 1,42,43
 713 242 713 242 773 213 c 0,44,45
 833 184 833 184 890 184 c 0,46,47
 952 184 952 184 983 214 c 0,48,49
 1015 244 1015 244 1015 301 c 0,50,51
 1015 357 1015 357 993 387 c 0,52,53
 967 421 967 421 886 451 c 2,54,-1
 837 469 l 2,55,56
 737 506 737 506 690 588 c 0,57,58
 644 669 644 669 644 805 c 0,59,60
 644 967 644 967 714 1057 c 0,61,62
 784 1147 784 1147 911 1147 c 0,63,64
 968 1147 968 1147 1025 1132 c 0,65,66
 1082 1116 1082 1116 1135 1085 c 1,0,-1
EndSplineSet
EndChar
StartChar: uni02AB
Encoding: 683 683 683
Width: 1233
Flags: W
TeX: 0 0 0 0
Fore
224.5 467 m 2,0,-1
 224.5 1331 l 1,1,-1
 46.5 1331 l 1,2,-1
 46.5 1556 l 1,3,-1
 400.5 1556 l 1,4,-1
 400.5 467 l 2,5,6
 400.5 335 400.5 335 425.5 280 c 0,7,8
 449.5 225 449.5 225 508.5 225 c 2,9,-1
 635.626 225 l 1,10,-1
 989.1 896 l 1,11,-1
 649.5 896 l 1,12,-1
 649.5 1115 l 1,13,-1
 1186.5 1115 l 1,14,-1
 1186.5 886 l 1,15,-1
 833.1 214 l 1,16,-1
 1186.5 214 l 1,17,-1
 1186.5 -5 l 1,18,-1
 635.1 -5 l 1,19,-1
 635.1 -0 l 1,20,-1
 459.5 0 l 2,21,22
 334.5 0 334.5 0 279.5 108 c 0,23,24
 224.5 216 224.5 216 224.5 467 c 2,0,-1
EndSplineSet
EndChar
StartChar: uni02AC
Encoding: 684 684 684
Width: 1233
VWidth: 1831
Flags: W
TeX: 0 0 0 0
Fore
57 627 m 1,0,-1
 280 627 l 1,1,-1
 400 195 l 1,2,-1
 521 627 l 1,3,-1
 712 627 l 1,4,-1
 833 199 l 1,5,-1
 954 627 l 1,6,-1
 1176 627 l 1,7,-1
 988 0 l 1,8,-1
 737 0 l 1,9,-1
 616 431 l 1,10,-1
 496 0 l 1,11,-1
 246 0 l 1,12,-1
 57 627 l 1,0,-1
57 1312 m 1,0,-1
 280 1312 l 1,1,-1
 400 880 l 1,2,-1
 521 1312 l 1,3,-1
 712 1312 l 1,4,-1
 833 884 l 1,5,-1
 954 1312 l 1,6,-1
 1176 1312 l 1,7,-1
 988 685 l 1,8,-1
 737 685 l 1,9,-1
 616 1116 l 1,10,-1
 496 685 l 1,11,-1
 246 685 l 1,12,-1
 57 1312 l 1,0,-1
EndSplineSet
EndChar
StartChar: uni02AD
Encoding: 685 685 685
Width: 1233
Flags: W
TeX: 0 0 0 0
Fore
429 177 m 1,0,-1
 286 177 l 1,1,-1
 286 627 l 1,2,-1
 947 627 l 1,3,-1
 947 177 l 1,4,-1
 804 177 l 1,5,-1
 804 474 l 1,6,-1
 429 474 l 1,7,-1
 429 177 l 1,0,-1
429 862 m 1,8,-1
 286 862 l 1,9,-1
 286 1312 l 1,10,-1
 947 1312 l 1,11,-1
 947 862 l 1,12,-1
 804 862 l 1,13,-1
 804 1159 l 1,14,-1
 429 1159 l 1,15,-1
 429 862 l 1,8,-1
EndSplineSet
EndChar
StartChar: uni02AE
Encoding: 686 686 686
Width: 1233
Flags: W
TeX: 0 0 0 0
Fore
568 1118 m 1,0,-1
 570 1118 l 1,1,-1
 570 436 l 2,2,3
 570 314.739 570 314.739 604 263 c 0,4,5
 638.171 211 638.171 211 716 211 c 0,6,7
 795.17 211 795.17 211 842 282 c 0,8,9
 886 353.31 886 353.31 886 477 c 2,10,-1
 886 1118 l 1,11,-1
 1178 1118 l 1,12,-1
 1178 -438 l 1,13,-1
 886 -438 l 1,14,-1
 886 166 l 1,15,16
 855.863 72.5753 855.863 72.5753 780 22 c 0,17,18
 706.5 -29 706.5 -29 600 -29 c 0,19,20
 439.5 -29 439.5 -29 360 76 c 0,21,22
 278 181.855 278 181.855 278 391 c 2,23,-1
 278 1088 l 2,24,25
 278 1217.44 278 1217.44 236 1275 c 0,26,27
 194.378 1330 194.378 1330 94 1330 c 2,28,-1
 56 1330 l 1,29,-1
 56 1555 l 1,30,-1
 176 1555 l 2,31,32
 386 1555 386 1555 476 1447 c 0,33,34
 561.955 1347.71 561.955 1347.71 568 1118 c 1,0,-1
EndSplineSet
EndChar
StartChar: uni02AF
Encoding: 687 687 687
Width: 1233
Flags: W
TeX: 0 0 0 0
Fore
490.732 1118 m 1,0,-1
 492 1118 l 1,1,-1
 492 436 l 2,2,3
 492 315 492 315 520 263 c 0,4,5
 548 211 548 211 610 211 c 0,6,7
 674 211 674 211 710 282 c 0,8,9
 746 352 746 352 746 477 c 2,10,-1
 746 1118 l 1,11,-1
 975 1118 l 1,12,-1
 975 41 l 2,13,14
 975 -91 975 -91 1008 -146 c 0,15,16
 1041 -201 1041 -201 1121 -201 c 2,17,-1
 1152 -201 l 1,18,-1
 1152 -426 l 1,19,-1
 1055 -426 l 2,20,21
 892 -426 892 -426 818 -318 c 0,22,23
 746 -211 746 -211 746 41 c 2,24,-1
 746 166 l 1,25,26
 721 73 721 73 661 22 c 0,27,28
 601 -29 601 -29 516 -29 c 0,29,30
 389 -29 389 -29 324 76 c 0,31,32
 260 182 260 182 260 391 c 2,33,-1
 260 1088 l 2,34,35
 260 1216.67 260 1216.67 225 1275 c 0,36,37
 192 1330 192 1330 112 1330 c 2,38,-1
 81 1330 l 1,39,-1
 81 1555 l 1,40,-1
 178 1555 l 2,41,42
 346 1555 346 1555 418 1447 c 0,43,44
 486.578 1346.48 486.578 1346.48 490.732 1118 c 1,0,-1
EndSplineSet
EndChar
StartChar: uni02B0
Encoding: 688 688 688
Width: 1233
VWidth: 2095
Flags: W
TeX: 0 0 0 0
Fore
904 1355 m 2,0,-1
 904 948 l 1,1,-1
 718 948 l 1,2,-1
 718 1330 l 2,3,4
 718 1398 718 1398 696 1427 c 128,-1,5
 674 1456 674 1456 624 1456 c 0,6,7
 573 1456 573 1456 544 1417 c 128,-1,8
 515 1377 515 1377 515 1307 c 2,9,-1
 515 948 l 1,10,-1
 329 948 l 1,11,-1
 329 1820 l 1,12,-1
 515 1820 l 1,13,-1
 515 1481 l 1,14,15
 535 1534 535 1534 583 1562 c 128,-1,16
 631 1591 631 1591 699 1591 c 0,17,18
 800 1591 800 1591 852 1532 c 128,-1,19
 904 1472 904 1472 904 1355 c 2,0,-1
EndSplineSet
EndChar
StartChar: uni02B1
Encoding: 689 689 689
Width: 1233
VWidth: 2094
Flags: W
TeX: 0 0 0 0
Fore
904 1355 m 2,0,-1
 904 948 l 1,1,-1
 718 948 l 1,2,-1
 718 1330 l 2,3,4
 718 1398 718 1398 696 1427 c 0,5,6
 674 1456 674 1456 624 1456 c 0,7,8
 573 1456 573 1456 544 1417 c 0,9,10
 515 1377 515 1377 515 1307 c 2,11,-1
 515 948 l 1,12,-1
 329 948 l 1,13,-1
 329 1557 l 2,14,15
 329 1698 329 1698 388 1758 c 0,16,17
 445 1819 445 1819 580 1819 c 2,18,-1
 657 1819 l 1,19,-1
 657 1693 l 1,20,-1
 632 1693 l 2,21,22
 568 1693 568 1693 542 1662 c 0,23,24
 516 1631 516 1631 516 1557 c 2,25,-1
 515 1481 l 1,26,27
 535 1533 535 1533 583 1562 c 0,28,29
 631 1590 631 1590 699 1590 c 0,30,31
 800 1590 800 1590 852 1531 c 0,32,33
 904 1472 904 1472 904 1355 c 2,0,-1
EndSplineSet
EndChar
StartChar: uni02B2
Encoding: 690 690 690
Width: 1233
VWidth: 2025
Flags: W
TeX: 0 0 0 0
Fore
842.74 903.1 m 2,0,1
 842.74 761.98 842.74 761.98 784.82 701.78 c 128,-1,2
 726.9 641.58 726.9 641.58 592.5 641.58 c 2,3,-1
 390.26 641.58 l 1,4,-1
 390.26 767.58 l 1,5,-1
 540.02 767.58 l 2,6,7
 602.74 767.58 602.74 767.58 628.98 798.38 c 128,-1,8
 655.22 829.18 655.22 829.18 655.22 903.1 c 2,9,-1
 655.22 1380.22 l 1,10,-1
 465.14 1380.22 l 1,11,-1
 465.14 1506.22 l 1,12,-1
 842.74 1506.22 l 1,13,-1
 842.74 903.1 l 2,0,1
842.74 1619.9 m 1,14,-1
 655.22 1619.9 l 1,15,-1
 655.22 1811.42 l 1,16,-1
 842.74 1811.42 l 1,17,-1
 842.74 1619.9 l 1,14,-1
EndSplineSet
EndChar
StartChar: uni02B3
Encoding: 691 691 691
Width: 1233
VWidth: 2005
Flags: W
TeX: 0 0 0 0
Fore
892 1402 m 1,0,1
 861 1427 861 1427 820 1439 c 128,-1,2
 778 1452 778 1452 729 1452 c 0,3,4
 666.685 1452 666.685 1452 625 1434 c 128,-1,5
 578.423 1413.89 578.423 1413.89 556 1381 c 0,6,7
 541 1359 541 1359 535 1329 c 128,-1,8
 529 1299 529 1299 529 1237 c 2,9,-1
 529 948 l 1,10,-1
 341 948 l 1,11,-1
 341 1576 l 1,12,-1
 529 1576 l 1,13,-1
 529 1478 l 1,14,15
 556 1532 556 1532 613 1561 c 128,-1,16
 670 1591 670 1591 746 1591 c 0,17,18
 790 1591 790 1591 822 1583 c 128,-1,19
 858 1574 858 1574 892 1559 c 1,20,-1
 892 1402 l 1,0,1
EndSplineSet
EndChar
StartChar: uni02B4
Encoding: 692 692 692
Width: 1233
VWidth: 1993
Flags: W
TeX: 0 0 0 0
Fore
341 1122 m 1,0,1
 372 1097 372 1097 413 1085 c 128,-1,2
 455 1072 455 1072 504 1072 c 0,3,4
 566.315 1072 566.315 1072 608 1090 c 128,-1,5
 654.577 1110.11 654.577 1110.11 677 1143 c 0,6,7
 692 1165 692 1165 698 1195 c 128,-1,8
 704 1225 704 1225 704 1287 c 2,9,-1
 704 1576 l 1,10,-1
 892 1576 l 1,11,-1
 892 948 l 1,12,-1
 704 948 l 1,13,-1
 704 1046 l 1,14,15
 677 992 677 992 620 963 c 128,-1,16
 563 933 563 933 487 933 c 0,17,18
 443 933 443 933 411 941 c 128,-1,19
 375 950 375 950 341 965 c 1,20,-1
 341 1122 l 1,0,1
EndSplineSet
EndChar
StartChar: uni02B5
Encoding: 693 693 693
Width: 1233
VWidth: 1905
Flags: W
TeX: 0 0 0 0
Fore
271 1121 m 1,0,1
 302 1096 302 1096 343 1084 c 0,2,3
 384 1071 384 1071 434 1071 c 0,4,5
 493 1071 493 1071 538 1090 c 0,6,7
 582 1108 582 1108 607 1143 c 0,8,9
 622 1164 622 1164 628 1194 c 0,10,11
 634 1224 634 1224 634 1286 c 2,12,-1
 634 1575 l 1,13,-1
 822 1575 l 1,14,-1
 822 948 l 1,15,-1
 820.719 948 l 1,16,17
 824.405 891.943 824.405 891.943 847 866 c 0,18,19
 873 835 873 835 937 835 c 2,20,-1
 962 835 l 1,21,-1
 962 709 l 1,22,-1
 884 709 l 2,23,24
 750 709 750 709 692 770 c 0,25,26
 638.847 824.986 638.847 824.986 634.405 948 c 1,27,-1
 634 971 l 1,28,-1
 634 1045 l 1,29,30
 607 991 607 991 550 962 c 0,31,32
 493 933 493 933 416 933 c 0,33,34
 378 933 378 933 341 941 c 0,35,36
 304 949 304 949 271 964 c 1,37,-1
 271 1121 l 1,0,1
EndSplineSet
EndChar
StartChar: uni02B6
Encoding: 694 694 694
Width: 1233
VWidth: 1999
Flags: W
TeX: 0 0 0 0
Fore
543 1223 m 2,0,-1
 493 1223 l 1,1,-1
 493 1071 l 1,2,-1
 543 1071 l 2,3,4
 601 1071 601 1071 626 1088 c 0,5,6
 652 1106 652 1106 652 1146 c 0,7,8
 652 1187 652 1187 626 1205 c 0,9,10
 601 1223 601 1223 543 1223 c 2,0,-1
493 1347 m 1,11,-1
 516 1347 l 2,12,13
 564 1347 564 1347 593 1364 c 0,14,15
 619.717 1379.27 619.717 1379.27 644 1420 c 2,16,-1
 737 1576 l 1,17,-1
 969 1576 l 1,18,-1
 863 1398 l 2,19,20
 830.479 1343.39 830.479 1343.39 798 1317 c 0,21,22
 766 1290 766 1290 726 1282 c 1,23,24
 799 1264 799 1264 836 1224 c 0,25,26
 872 1184 872 1184 872 1121 c 0,27,28
 872 1032 872 1032 802 990 c 0,29,30
 731 948 731 948 580 948 c 2,31,-1
 264 948 l 1,32,-1
 264 1576 l 1,33,-1
 493 1576 l 1,34,-1
 493 1347 l 1,11,-1
EndSplineSet
EndChar
StartChar: uni02B7
Encoding: 695 695 695
Width: 1233
VWidth: 1999
Flags: W
TeX: 0 0 0 0
Fore
222 1576 m 1,0,-1
 378 1576 l 1,1,-1
 463 1095 l 1,2,-1
 541 1412 l 1,3,-1
 692 1412 l 1,4,-1
 768 1095 l 1,5,-1
 855 1576 l 1,6,-1
 1011 1576 l 1,7,-1
 881 948 l 1,8,-1
 703 948 l 1,9,-1
 616 1274 l 1,10,-1
 530 948 l 1,11,-1
 352 948 l 1,12,-1
 222 1576 l 1,0,-1
EndSplineSet
EndChar
StartChar: uni02B8
Encoding: 696 696 696
Width: 1233
VWidth: 1906
Flags: W
TeX: 0 0 0 0
Fore
676 881 m 2,0,1
 637.904 792.152 637.904 792.152 586 752 c 128,-1,2
 533 712 533 712 457 712 c 2,3,-1
 303 712 l 1,4,-1
 303 837 l 1,5,-1
 379 837 l 2,6,7
 436 837 436 837 463 854 c 128,-1,8
 490 871 490 871 518 933 c 1,9,-1
 532 966 l 1,10,-1
 259 1576 l 1,11,-1
 456 1576 l 1,12,-1
 620 1169 l 1,13,-1
 777 1576 l 1,14,-1
 974 1576 l 1,15,-1
 676 881 l 2,0,1
EndSplineSet
EndChar
StartChar: uni02C0
Encoding: 704 704 704
Width: 1233
VWidth: 2094
Flags: W
TeX: 0 0 0 0
Fore
442 1360 m 9,0,0
 496 1360 l 1,10,11
 621 1360 621 1360 670 1424 c 128,-1,9
 703 1467 703 1467 703 1506 c 0,7,8
 703 1560 703 1560 670 1597 c 128,-1,6
 613 1661 613 1661 510 1661 c 0,4,5
 464 1661 464 1661 418 1649 c 128,-1,3
 373 1637 373 1637 328 1613 c 1,1,2
 328 1780 l 1,0,-1
 372 1799 372 1799 419 1809 c 128,-1,25
 465 1819 465 1819 570 1819 c 0,23,24
 708 1819 708 1819 829 1701 c 128,-1,22
 905 1627 905 1627 905 1506 c 0,20,21
 905 1377 905 1377 816 1296 c 128,-1,19
 757 1243 757 1243 648 1226 c 1,0,0
 648 948 l 1,0,-1
 442 948 l 1,1,-1
 442 1360 l 9,0,0
EndSplineSet
EndChar
StartChar: uni02C1
Encoding: 705 705 705
Width: 1233
VWidth: 2094
Flags: W
TeX: 0 0 0 0
Fore
791 1360 m 17,0,0
 791 948 l 1,1,-1
 585 948 l 1,0,-1
 585 1226 l 1,0,0
 476 1243 476 1243 417 1296 c 128,-1,19
 328 1377 328 1377 328 1506 c 0,20,21
 328 1627 328 1627 404 1701 c 128,-1,22
 525 1819 525 1819 663 1819 c 0,23,24
 768 1819 768 1819 814 1809 c 128,-1,25
 861 1799 861 1799 905 1780 c 1,0,-1
 905 1613 l 1,1,2
 860 1637 860 1637 815 1649 c 128,-1,3
 769 1661 769 1661 723 1661 c 0,4,5
 620 1661 620 1661 563 1597 c 128,-1,6
 530 1560 530 1560 530 1506 c 0,7,8
 530 1467 530 1467 563 1424 c 128,-1,9
 612 1360 612 1360 737 1360 c 1,10,11
 791 1360 l 17,0,0
EndSplineSet
EndChar
StartChar: circumflex
Encoding: 710 710 710
Width: 1233
Flags: W
Fore
496 1638 m 1,0,-1
 737 1638 l 1,1,-1
 993 1262 l 1,2,-1
 815 1262 l 1,3,-1
 616 1487 l 1,4,-1
 418 1262 l 1,5,-1
 240 1262 l 1,6,-1
 496 1638 l 1,0,-1
EndSplineSet
EndChar
StartChar: caron
Encoding: 711 711 711
Width: 1233
Flags: W
Fore
496 1262 m 1,0,-1
 240 1638 l 1,1,-1
 418 1638 l 1,2,-1
 616 1411 l 1,3,-1
 815 1638 l 1,4,-1
 993 1638 l 1,5,-1
 737 1262 l 1,6,-1
 496 1262 l 1,0,-1
EndSplineSet
EndChar
StartChar: uni02C8
Encoding: 712 712 712
Width: 1233
Flags: W
TeX: 117 0 0 0
Fore
408.3 1554 m 1,0,-1
 408.3 999 l 1,1,-1
 218.7 999 l 1,2,-1
 218.7 1554 l 1,3,-1
 408.3 1554 l 1,0,-1
EndSplineSet
EndChar
StartChar: uni02CC
Encoding: 716 716 716
Width: 1233
Flags: W
TeX: 117 0 0 0
Fore
408.3 390 m 1,0,-1
 408.3 -165 l 1,1,-1
 218.7 -165 l 1,2,-1
 218.7 390 l 1,3,-1
 408.3 390 l 1,0,-1
EndSplineSet
EndChar
StartChar: uni02D0
Encoding: 720 720 720
Width: 1233
Flags: W
TeX: 0 0 0 0
Fore
616 740 m 1,1,-1
 411 1120 l 1,2,-1
 822 1120 l 1,3,-1
 616 740 l 1,1,-1
617 380 m 1,1,-1
 822 0 l 1,2,-1
 411 0 l 1,3,-1
 617 380 l 1,1,-1
EndSplineSet
EndChar
StartChar: uni02D1
Encoding: 721 721 721
Width: 1233
Flags: W
TeX: 0 0 0 0
Fore
616 740 m 1,1,-1
 411 1120 l 1,2,-1
 822 1120 l 1,3,-1
 616 740 l 1,1,-1
EndSplineSet
EndChar
StartChar: uni02D2
Encoding: 722 722 722
Width: 1233
Flags: W
TeX: 0 0 0 0
Fore
238 1403 m 17,0,1
 293 1403 293 1403 331 1441.5 c 128,-1,2
 369 1480 369 1480 369 1534 c 128,-1,3
 369 1588 369 1588 330.5 1626.5 c 128,-1,4
 292 1665 292 1665 238 1665 c 1,5,-1
 238 1819 l 17,6,7
 356 1819 356 1819 439.5 1735.5 c 128,-1,8
 523 1652 523 1652 523 1534 c 128,-1,9
 523 1416 523 1416 439.5 1332.5 c 128,-1,10
 356 1249 356 1249 238 1249 c 1,11,-1
 238 1403 l 17,0,1
EndSplineSet
EndChar
StartChar: uni02D6
Encoding: 726 726 726
Width: 1233
Flags: W
TeX: 117 0 0 0
Fore
606 620 m 1,0,-1
 606 399 l 1,1,-1
 418 399 l 1,2,-1
 418 620 l 1,3,-1
 197 620 l 1,4,-1
 197 808 l 1,5,-1
 418 808 l 1,6,-1
 418 1029 l 1,7,-1
 606 1029 l 1,8,-1
 606 808 l 1,9,-1
 827 808 l 1,10,-1
 827 620 l 1,11,-1
 606 620 l 1,0,-1
EndSplineSet
EndChar
StartChar: breve
Encoding: 728 728 728
Width: 1233
Flags: W
Fore
281 1606 m 1,0,-1
 422 1606 l 1,1,2
 433 1537 433 1537 483 1499.5 c 128,-1,3
 533 1462 533 1462 616 1462 c 0,4,5
 699 1462 699 1462 748.5 1499 c 128,-1,6
 798 1536 798 1536 809 1606 c 1,7,-1
 952 1606 l 1,8,9
 946 1462 946 1462 859.5 1385.5 c 128,-1,10
 773 1309 773 1309 616 1309 c 0,11,12
 460 1309 460 1309 373.5 1385.5 c 128,-1,13
 287 1462 287 1462 281 1606 c 1,0,-1
EndSplineSet
Ligature: 0 0 'liga' space uni0306
EndChar
StartChar: dotaccent
Encoding: 729 729 729
Width: 1233
Flags: W
Fore
479 1585 m 1,0,-1
 754 1585 l 1,1,-1
 754 1339 l 1,2,-1
 479 1339 l 1,3,-1
 479 1585 l 1,0,-1
EndSplineSet
Ligature: 0 0 'liga' space uni0307
EndChar
StartChar: ring
Encoding: 730 730 730
Width: 1233
Flags: W
Fore
332 1534 m 0,0,1
 332 1652 332 1652 415 1735.5 c 128,-1,2
 498 1819 498 1819 616 1819 c 0,3,4
 735 1819 735 1819 818 1735.5 c 128,-1,5
 901 1652 901 1652 901 1534 c 0,6,7
 901 1416 901 1416 818 1332.5 c 128,-1,8
 735 1249 735 1249 616 1249 c 0,9,10
 498 1249 498 1249 415 1332.5 c 128,-1,11
 332 1416 332 1416 332 1534 c 0,0,1
485 1534 m 0,12,13
 485 1479 485 1479 523.5 1441 c 128,-1,14
 562 1403 562 1403 616 1403 c 0,15,16
 671 1403 671 1403 709.5 1441.5 c 128,-1,17
 748 1480 748 1480 748 1534 c 0,18,19
 748 1588 748 1588 709 1626.5 c 128,-1,20
 670 1665 670 1665 616 1665 c 0,21,22
 562 1665 562 1665 523.5 1626.5 c 128,-1,23
 485 1588 485 1588 485 1534 c 0,12,13
EndSplineSet
LCarets: 0 65535 '    ' 1 0 
Ligature: 0 0 'liga' space uni030A
EndChar
StartChar: ogonek
Encoding: 731 731 731
Width: 1233
Flags: W
Fore
557 0 m 1,0,-1
 698 0 l 1,1,2
 645 -71 645 -71 626.5 -106 c 128,-1,3
 608 -141 608 -141 608 -166 c 0,4,5
 608 -205 608 -205 638.5 -229.5 c 128,-1,6
 669 -254 669 -254 719 -254 c 0,7,8
 757 -254 757 -254 795.5 -246.5 c 128,-1,9
 834 -239 834 -239 874 -223 c 1,10,-1
 874 -379 l 1,11,12
 820 -390 820 -390 772.5 -395.5 c 128,-1,13
 725 -401 725 -401 684 -401 c 0,14,15
 570 -401 570 -401 508 -355 c 128,-1,16
 446 -309 446 -309 446 -223 c 0,17,18
 446 -170 446 -170 473.5 -115.5 c 128,-1,19
 501 -61 501 -61 557 0 c 1,0,-1
EndSplineSet
Ligature: 0 0 'liga' space uni0328
EndChar
StartChar: tilde
Encoding: 732 732 732
Width: 1233
Flags: W
Fore
618 1364 m 2,0,-1
 563 1401 l 2,1,2
 560 1403 560 1403 551 1409 c 0,3,4
 508 1438 508 1438 481 1438 c 0,5,6
 445 1438 445 1438 426.5 1407 c 128,-1,7
 408 1376 408 1376 408 1317 c 2,8,-1
 408 1309 l 1,9,-1
 268 1309 l 1,10,11
 268 1445 268 1445 319.5 1519 c 128,-1,12
 371 1593 371 1593 465 1593 c 0,13,14
 501 1593 501 1593 537 1579.5 c 128,-1,15
 573 1566 573 1566 614 1536 c 2,16,-1
 676 1493 l 2,17,18
 697 1478 697 1478 715.5 1470 c 128,-1,19
 734 1462 734 1462 750 1462 c 0,20,21
 786 1462 786 1462 805.5 1493.5 c 128,-1,22
 825 1525 825 1525 825 1583 c 2,23,-1
 825 1591 l 1,24,-1
 965 1591 l 1,25,26
 965 1455 965 1455 913.5 1381 c 128,-1,27
 862 1307 862 1307 768 1307 c 0,28,29
 732 1307 732 1307 699 1319 c 128,-1,30
 666 1331 666 1331 618 1364 c 2,0,-1
EndSplineSet
Ligature: 0 0 'liga' space tildecomb
EndChar
StartChar: hungarumlaut
Encoding: 733 733 733
Width: 1233
Flags: W
Fore
854 1638 m 1,0,-1
 1085 1638 l 1,1,-1
 813 1262 l 1,2,-1
 639 1262 l 1,3,-1
 854 1638 l 1,0,-1
492 1638 m 1,4,-1
 709 1638 l 1,5,-1
 461 1262 l 1,6,-1
 297 1262 l 1,7,-1
 492 1638 l 1,4,-1
EndSplineSet
LCarets: 0 65535 '    ' 1 0 
Ligature: 0 0 'liga' space uni030B
EndChar
StartChar: uni02DE
Encoding: 734 734 734
Width: 1233
Flags: W
TeX: 117 0 0 0
Fore
-311.999 883.291 m 0,0,-1
 313.629 1072 l 1,1,-1
 512.629 1073.55 l 1,2,-1
 512.63 903.35 l 2,3,4
 512.63 727.396 512.63 727.396 550.629 671.05 c 0,5,6
 588.629 615.85 588.629 615.85 693.629 615.85 c 2,7,-1
 928 615.85 l 1,8,-1
 928 436.45 l 1,9,-1
 640.629 436.45 l 2,10,11
 457.489 436.45 457.489 436.45 378.629 546.85 c 0,12,13
 313.479 638.067 313.479 638.067 313.628 804 c 1,14,-1
 -312 625.961 l 9,15,-1
 -311.999 883.291 l 0,0,-1
EndSplineSet
EndChar
StartChar: uni02E0
Encoding: 736 736 736
Width: 1233
VWidth: 1911
Flags: W
TeX: 0 0 0 0
Fore
728 1286 m 1,5,-1
 884 1072 884 1072 885 855 c 0,0,0
 886 725 886 725 624 723 c 0,0,0
 336 720 336 720 336 855 c 0,0,0
 335 1046 335 1046 505 1285 c 1,0,0
 285 1591 l 1,0,-1
 491 1591 l 1,1,-1
 616 1405 l 1,2,-1
 742 1591 l 1,3,-1
 948 1591 l 1,4,-1
 728 1286 l 1,5,-1
616 1162 m 1,0,0
 494 988 494 988 495 918 c 0,0,0
 496 849 496 849 612 849 c 16,0,0
 723 849 723 849 723 918 c 0,0,0
 723 1009 723 1009 616 1162 c 1,0,0
EndSplineSet
EndChar
StartChar: uni02E1
Encoding: 737 737 737
Width: 1233
VWidth: 2095
Flags: W
TeX: 0 0 0 0
Fore
485 1210 m 2,0,-1
 485 1694 l 1,1,-1
 295 1694 l 1,2,-1
 295 1820 l 1,3,-1
 673 1820 l 1,4,-1
 673 1210 l 2,5,6
 673 1136 673 1136 699 1105 c 128,-1,7
 725 1074 725 1074 788 1074 c 2,8,-1
 938 1074 l 1,9,-1
 938 948 l 1,10,-1
 736 948 l 2,11,12
 602 948 602 948 544 1009 c 128,-1,13
 485 1069 485 1069 485 1210 c 2,0,-1
EndSplineSet
EndChar
StartChar: uni02E2
Encoding: 738 738 738
Width: 1233
VWidth: 1998
Flags: W
TeX: 0 0 0 0
Fore
854 1557 m 1,0,-1
 854 1413 l 1,1,2
 802 1442 802 1442 746 1457 c 128,-1,3
 690 1472 690 1472 634 1472 c 0,4,5
 571 1472 571 1472 539 1456 c 128,-1,6
 507 1440 507 1440 507 1409 c 0,7,8
 507 1375.14 507 1375.14 644 1336 c 2,9,-1
 651 1334 l 1,10,-1
 705 1323 l 2,11,12
 805.424 1302.54 805.424 1302.54 855 1254 c 128,-1,13
 903 1207 903 1207 903 1126 c 0,14,15
 903 1030 903 1030 830 981 c 128,-1,16
 758 933 758 933 612 933 c 0,17,18
 547 933 547 933 479 943 c 128,-1,19
 411 952 411 952 342 972 c 1,20,-1
 342 1115 l 1,21,22
 404 1084 404 1084 468 1068 c 128,-1,23
 532 1052 532 1052 592 1052 c 0,24,25
 658 1052 658 1052 692 1069 c 128,-1,26
 726 1086 726 1086 726 1118 c 0,27,28
 726 1149 726 1149 702 1166 c 128,-1,29
 672.324 1185.78 672.324 1185.78 588 1202 c 2,30,-1
 536 1212 l 2,31,32
 426.969 1232.97 426.969 1232.97 379 1278 c 128,-1,33
 330 1324 330 1324 330 1400 c 0,34,35
 330 1490 330 1490 405 1541 c 128,-1,36
 480 1591 480 1591 616 1591 c 0,37,38
 683.666 1591 683.666 1591 737 1583 c 128,-1,39
 797 1574 797 1574 854 1557 c 1,0,-1
EndSplineSet
EndChar
StartChar: uni02E3
Encoding: 739 739 739
Width: 1233
VWidth: 1999
Flags: W
TeX: 0 0 0 0
Fore
955 1591 m 1,0,-1
 713 1290 l 1,1,-1
 976 963 l 1,2,-1
 757 963 l 1,3,-1
 616 1175 l 1,4,-1
 476 963 l 1,5,-1
 257 963 l 1,6,-1
 522 1290 l 1,7,-1
 278 1591 l 1,8,-1
 497 1591 l 1,9,-1
 616 1404 l 1,10,-1
 736 1591 l 1,11,-1
 955 1591 l 1,0,-1
EndSplineSet
EndChar
StartChar: uni02E4
Encoding: 740 740 740
Width: 1233
VWidth: 2094
Flags: W
TeX: 0 0 0 0
Fore
791 1360 m 17,0,0
 791 948 l 1,1,-1
 585 948 l 1,0,-1
 585 1226 l 1,0,0
 476 1243 476 1243 417 1296 c 128,-1,19
 328 1377 328 1377 328 1506 c 0,20,21
 328 1627 328 1627 404 1701 c 128,-1,22
 525 1819 525 1819 663 1819 c 0,23,24
 768 1819 768 1819 814 1809 c 128,-1,25
 861 1799 861 1799 905 1780 c 1,0,-1
 905 1613 l 1,1,2
 860 1637 860 1637 815 1649 c 128,-1,3
 769 1661 769 1661 723 1661 c 0,4,5
 620 1661 620 1661 563 1597 c 128,-1,6
 530 1560 530 1560 530 1506 c 0,7,8
 530 1467 530 1467 563 1424 c 128,-1,9
 612 1360 612 1360 737 1360 c 1,10,11
 791 1360 l 17,0,0
EndSplineSet
EndChar
StartChar: uni02E5
Encoding: 741 741 741
Width: 1233
Flags: W
TeX: 117 0 0 0
Fore
874 1420 m 1,0,-1
 874 0 l 1,1,-1
 686 0 l 1,2,-1
 686 1232 l 1,3,-1
 244 1232 l 1,4,-1
 244 1420 l 1,5,-1
 874 1420 l 1,0,-1
EndSplineSet
EndChar
StartChar: uni02E6
Encoding: 742 742 742
Width: 1233
Flags: W
TeX: 117 0 0 0
Fore
874 1420 m 1,0,-1
 874 0 l 1,1,-1
 686 0 l 1,2,-1
 686 924 l 1,3,-1
 244 924 l 1,4,-1
 244 1112 l 1,5,-1
 686 1112 l 1,6,-1
 686 1420 l 1,7,-1
 874 1420 l 1,0,-1
EndSplineSet
EndChar
StartChar: uni02E7
Encoding: 743 743 743
Width: 1233
Flags: W
TeX: 117 0 0 0
Fore
874 1420 m 1,0,-1
 874 0 l 1,1,-1
 686 0 l 1,2,-1
 686 616 l 1,3,-1
 244 616 l 1,4,-1
 244 804 l 1,5,-1
 686 804 l 1,6,-1
 686 1420 l 1,7,-1
 874 1420 l 1,0,-1
EndSplineSet
EndChar
StartChar: uni02E8
Encoding: 744 744 744
Width: 1233
Flags: W
TeX: 117 0 0 0
Fore
874 1420 m 1,0,-1
 874 0 l 1,1,-1
 686 0 l 1,2,-1
 686 308 l 1,3,-1
 244 308 l 1,4,-1
 244 496 l 1,5,-1
 686 496 l 1,6,-1
 686 1420 l 1,7,-1
 874 1420 l 1,0,-1
EndSplineSet
EndChar
StartChar: uni02E9
Encoding: 745 745 745
Width: 1233
Flags: W
TeX: 117 0 0 0
Fore
874 0 m 1,0,-1
 244 0 l 1,1,-1
 244 188 l 1,2,-1
 686 188 l 1,3,-1
 686 1420 l 1,4,-1
 874 1420 l 1,5,-1
 874 0 l 1,0,-1
EndSplineSet
EndChar
StartChar: uni0305
Encoding: 773 773 773
Width: 1233
Flags: W
TeX: 117 0 0 0
Fore
0 1556 m 1,0,-1
 1233 1556 l 1,1,-1
 1233 1368 l 1,2,-1
 0 1368 l 1,3,-1
 0 1556 l 1,0,-1
EndSplineSet
EndChar
StartChar: hookabovecomb
Encoding: 777 777 777
Width: 1233
Flags: W
TeX: 104 0 0 0
Fore
842.5 1552 m 0,0,1
 842.5 1461 842.5 1461 737.5 1346 c 1,2,-1
 737.5 1262 l 1,3,-1
 548.5 1262 l 1,4,-1
 548.5 1376 l 1,5,6
 610.5 1392 610.5 1392 656.5 1438 c 0,7,8
 678.5 1459 678.5 1459 678.5 1505 c 0,9,10
 678.5 1567 678.5 1567 621.5 1583 c 0,11,12
 581.5 1593 581.5 1593 555.5 1591 c 0,13,14
 531.5 1591 531.5 1591 506.5 1591 c 0,15,16
 460.5 1591 460.5 1591 390.5 1560 c 1,17,-1
 390.5 1712 l 1,18,19
 494.5 1738 494.5 1738 592.5 1738 c 0,20,21
 815.5 1738 815.5 1738 839.5 1593 c 0,22,23
 842.5 1574 842.5 1574 842.5 1552 c 0,0,1
EndSplineSet
EndChar
StartChar: uni030D
Encoding: 781 781 781
Width: 1233
Flags: W
TeX: 117 0 0 0
Fore
712 1706 m 1,0,-1
 712 1262 l 1,1,-1
 522 1262 l 1,2,-1
 522 1706 l 1,3,-1
 712 1706 l 1,0,-1
EndSplineSet
EndChar
StartChar: uni030F
Encoding: 783 783 783
Width: 1233
Flags: W
TeX: 117 0 0 0
Fore
786 1638 m 1,0,-1
 980 1262 l 1,1,-1
 817 1262 l 1,2,-1
 569 1638 l 1,3,-1
 786 1638 l 1,0,-1
423 1638 m 1,4,-1
 638 1262 l 1,5,-1
 464 1262 l 1,6,-1
 192 1638 l 1,7,-1
 423 1638 l 1,4,-1
EndSplineSet
EndChar
StartChar: uni0312
Encoding: 786 786 786
Width: 1233
Flags: W
TeX: 0 0 0 0
Fore
729 903 m 1,0,-1
 447 903 l 1,1,-1
 624 1209 l 1,2,-1
 818 1209 l 1,3,-1
 729 903 l 1,0,-1
EndSplineSet
EndChar
StartChar: uni0313
Encoding: 787 787 787
Width: 1233
Flags: W
TeX: 117 0 0 0
Fore
499.5 1558 m 1,0,-1
 823.5 1558 l 1,1,-1
 601.5 1260 l 1,2,-1
 409.5 1260 l 1,3,-1
 499.5 1558 l 1,0,-1
EndSplineSet
EndChar
StartChar: uni0314
Encoding: 788 788 788
Width: 1233
Flags: W
TeX: 117 0 0 0
Fore
733.5 1558 m 1,0,-1
 823.5 1260 l 1,1,-1
 631.5 1260 l 1,2,-1
 409.5 1558 l 1,3,-1
 733.5 1558 l 1,0,-1
EndSplineSet
EndChar
StartChar: uni0315
Encoding: 789 789 789
Width: 1233
Flags: W
TeX: 117 0 0 0
Fore
545 1638 m 1,0,-1
 827 1638 l 1,1,-1
 666 1262 l 1,2,-1
 469 1262 l 1,3,-1
 545 1638 l 1,0,-1
EndSplineSet
EndChar
StartChar: uni0318
Encoding: 792 792 792
Width: 1233
VWidth: 2012
Flags: W
TeX: 117 0 0 0
Fore
550.4 -624.3 m 1,0,-1
 367.7 -624.3 l 1,1,-1
 367.7 -434.7 l 1,2,-1
 550.4 -434.7 l 1,3,-1
 550.4 -252 l 1,4,-1
 740 -252 l 1,5,-1
 740 -807 l 1,6,-1
 550.4 -807 l 1,7,-1
 550.4 -624.3 l 1,0,-1
EndSplineSet
EndChar
StartChar: uni0319
Encoding: 793 793 793
Width: 1233
VWidth: 2012
Flags: W
TeX: 117 0 0 0
Fore
472.7 -252 m 1,0,-1
 662.3 -252 l 1,1,-1
 662.3 -434.7 l 1,2,-1
 845 -434.7 l 1,3,-1
 845 -624.3 l 1,4,-1
 662.3 -624.3 l 1,5,-1
 662.3 -807 l 1,6,-1
 472.7 -807 l 1,7,-1
 472.7 -252 l 1,0,-1
EndSplineSet
EndChar
StartChar: uni031A
Encoding: 794 794 794
Width: 1233
VWidth: 2039
Flags: W
TeX: 117 0 0 0
Fore
705 1713 m 1,0,-1
 339 1713 l 1,1,-1
 339 1902 l 1,2,-1
 894 1902 l 1,3,-1
 894 1347 l 1,4,-1
 705 1347 l 1,5,-1
 705 1713 l 1,0,-1
EndSplineSet
EndChar
StartChar: uni031B
Encoding: 795 795 795
Width: 1233
Flags: W
TeX: 117 0 0 0
Fore
416 850 m 1,0,-1
 416 991 l 1,1,2
 483 941 483 941 519.5 922 c 128,-1,3
 556 903 556 903 582 903 c 0,4,5
 621 903 621 903 645.5 932.5 c 128,-1,6
 670 962 670 962 670 1011 c 0,7,8
 670 1050 670 1050 662.5 1088.5 c 128,-1,9
 655 1127 655 1127 639 1167 c 1,10,-1
 795 1167 l 1,11,12
 806 1112 806 1112 811.5 1065 c 128,-1,13
 817 1018 817 1018 817 977 c 0,14,15
 817 862 817 862 771 800.5 c 128,-1,16
 725 739 725 739 639 739 c 0,17,18
 586 739 586 739 531.5 766 c 128,-1,19
 477 793 477 793 416 850 c 1,0,-1
EndSplineSet
EndChar
